<svg xmlns="http://www.w3.org/2000/svg" xmlns:xlink="http://www.w3.org/1999/xlink" width="154" height="154" viewBox="0 0 154 154"><rect width="100%" height="100%" fill="#DDDDDD"/><path d="M36.98 82.58L39.71 82.58L39.71 84.52L31.31 84.52L31.31 82.58L34.39 82.58L34.39 73.72Q34.39 73.20 34.42 72.64L34.42 72.64L32.24 74.47Q32.05 74.62 31.87 74.65Q31.68 74.69 31.52 74.66Q31.36 74.63 31.23 74.55Q31.10 74.47 31.04 74.38L31.04 74.38L30.22 73.25L34.85 69.31L36.98 69.31L36.98 82.58ZM45.83 71.69L45.29 74.85Q45.79 74.74 46.26 74.70Q46.72 74.65 47.15 74.65L47.15 74.65Q48.35 74.65 49.26 75.00Q50.17 75.36 50.79 75.99Q51.41 76.62 51.73 77.47Q52.04 78.31 52.04 79.29L52.04 79.29Q52.04 80.50 51.62 81.49Q51.19 82.49 50.43 83.20Q49.68 83.91 48.64 84.30Q47.61 84.69 46.39 84.69L46.39 84.69Q45.68 84.69 45.04 84.54Q44.40 84.39 43.84 84.15Q43.27 83.90 42.80 83.58Q42.32 83.26 41.94 82.90L41.94 82.90L42.74 81.80Q42.99 81.44 43.40 81.44L43.40 81.44Q43.66 81.44 43.94 81.61Q44.21 81.78 44.56 81.98Q44.91 82.18 45.39 82.34Q45.87 82.51 46.54 82.51L46.54 82.51Q47.25 82.51 47.80 82.28Q48.35 82.05 48.71 81.64Q49.07 81.22 49.25 80.65Q49.44 80.08 49.44 79.40L49.44 79.40Q49.44 78.17 48.72 77.47Q48.00 76.77 46.59 76.77L46.59 76.77Q45.51 76.77 44.38 77.17L44.38 77.17L42.76 76.71L44.02 69.33L51.52 69.33L51.52 70.44Q51.52 70.99 51.17 71.34Q50.82 71.69 49.99 71.69L49.99 71.69L45.83 71.69ZM56.06 78.80L60.68 78.80L60.68 73.83Q60.68 73.13 60.78 72.28L60.78 72.28L56.06 78.80ZM62.94 78.80L64.85 78.80L64.85 80.30Q64.85 80.51 64.71 80.66Q64.58 80.81 64.33 80.81L64.33 80.81L62.94 80.81L62.94 84.52L60.68 84.52L60.68 80.81L54.28 80.81Q54.02 80.81 53.82 80.65Q53.62 80.49 53.56 80.24L53.56 80.24L53.29 78.93L60.48 69.32L62.94 69.32L62.94 78.80ZM81.54 81.04L80.16 82.40L76.60 78.84L73.01 82.42L71.63 81.06L75.23 77.46L71.80 74.04L73.17 72.67L76.59 76.10L79.99 72.69L81.38 74.06L77.97 77.47L81.54 81.04ZM95.91 82.58L98.64 82.58L98.64 84.52L90.24 84.52L90.24 82.58L93.32 82.58L93.32 73.72Q93.32 73.20 93.35 72.64L93.35 72.64L91.16 74.47Q90.98 74.62 90.79 74.65Q90.61 74.69 90.45 74.66Q90.28 74.63 90.16 74.55Q90.03 74.47 89.97 74.38L89.97 74.38L89.15 73.25L93.78 69.31L95.91 69.31L95.91 82.58ZM104.75 71.69L104.22 74.85Q104.72 74.74 105.18 74.70Q105.64 74.65 106.07 74.65L106.07 74.65Q107.27 74.65 108.19 75.00Q109.10 75.36 109.72 75.99Q110.34 76.62 110.65 77.47Q110.97 78.31 110.97 79.29L110.97 79.29Q110.97 80.50 110.54 81.49Q110.12 82.49 109.36 83.20Q108.61 83.91 107.57 84.30Q106.54 84.69 105.32 84.69L105.32 84.69Q104.60 84.69 103.96 84.54Q103.32 84.39 102.76 84.15Q102.20 83.90 101.72 83.58Q101.24 83.26 100.87 82.90L100.87 82.90L101.66 81.80Q101.92 81.44 102.33 81.44L102.33 81.44Q102.59 81.44 102.86 81.61Q103.13 81.78 103.49 81.98Q103.84 82.18 104.32 82.34Q104.79 82.51 105.47 82.51L105.47 82.51Q106.18 82.51 106.73 82.28Q107.27 82.05 107.63 81.64Q108.00 81.22 108.18 80.65Q108.36 80.08 108.36 79.40L108.36 79.40Q108.36 78.17 107.64 77.47Q106.92 76.77 105.52 76.77L105.52 76.77Q104.44 76.77 103.30 77.17L103.30 77.17L101.69 76.71L102.95 69.33L110.44 69.33L110.44 70.44Q110.44 70.99 110.10 71.34Q109.75 71.69 108.92 71.69L108.92 71.69L104.75 71.69ZM114.99 78.80L119.61 78.80L119.61 73.83Q119.61 73.13 119.70 72.28L119.70 72.28L114.99 78.80ZM121.87 78.80L123.78 78.80L123.78 80.30Q123.78 80.51 123.64 80.66Q123.50 80.81 123.25 80.81L123.25 80.81L121.87 80.81L121.87 84.52L119.61 84.52L119.61 80.81L113.20 80.81Q112.94 80.81 112.74 80.65Q112.54 80.49 112.49 80.24L112.49 80.24L112.22 78.93L119.41 69.32L121.87 69.32L121.87 78.80Z" fill="#999999"/></svg>