<?xml version="1.0" standalone="no"?>
<!DOCTYPE svg PUBLIC "-//W3C//DTD SVG 20010904//EN"
 "http://www.w3.org/TR/2001/REC-SVG-20010904/DTD/svg10.dtd">
<svg version="1.0" xmlns="http://www.w3.org/2000/svg"
 width="400.000000pt" height="400.000000pt" viewBox="0 0 400.000000 400.000000"
 preserveAspectRatio="xMidYMid meet">
<metadata>
Created by potrace 1.14, written by Peter Selinger 2001-2017
</metadata>
<g transform="translate(0.000000,400.000000) scale(0.100000,-0.100000)"
fill="#000000" stroke="none">
<path d="M1819 3870 c-307 -28 -651 -155 -909 -338 -124 -87 -355 -318 -442
-442 -338 -477 -435 -1102 -258 -1655 160 -498 513 -902 984 -1125 282 -134
535 -186 856 -177 287 8 490 55 740 170 500 230 891 702 1024 1235 45 179 51
238 51 467 0 241 -10 318 -66 515 -170 593 -621 1064 -1205 1259 -256 86 -503
115 -775 91z m-656 -1126 c134 -19 145 -27 128 -92 -6 -20 -20 -107 -33 -192
-19 -130 -22 -197 -22 -420 -1 -281 6 -337 55 -449 23 -55 96 -130 154 -160
96 -48 361 -77 639 -68 323 10 458 41 544 125 101 99 135 235 134 547 0 207
-11 330 -49 563 -15 89 -15 104 -3 116 8 8 74 24 145 35 129 21 130 21 146 1
18 -21 48 -171 75 -370 12 -91 17 -198 17 -390 0 -230 -2 -278 -21 -366 -78
-382 -268 -529 -746 -580 -183 -19 -593 -14 -751 10 -331 50 -511 166 -601
386 -98 242 -103 735 -13 1205 20 101 36 130 68 121 9 -2 69 -12 134 -22z"/>
</g>
</svg>
