<?xml version="1.0" standalone="no"?>
<!DOCTYPE svg PUBLIC "-//W3C//DTD SVG 1.1//EN" "http://www.w3.org/Graphics/SVG/1.1/DTD/svg11.dtd" >
<svg xmlns="http://www.w3.org/2000/svg" xmlns:xlink="http://www.w3.org/1999/xlink" version="1.1">
<metadata>
Created by FontForge 20170731 at Tue Feb 21 21:51:37 2023
 By Aleksey,,,
copyright missing
</metadata>
<defs>
<font id="Metropolis-RegularItalic" horiz-adv-x="1116" >
  <font-face 
    font-family="Metropolis"
    font-weight="400"
    font-style="italic"
    font-stretch="normal"
    units-per-em="2048"
    panose-1="0 0 5 0 0 0 0 0 0 0"
    ascent="1628"
    descent="-420"
    x-height="1059"
    cap-height="1407"
    bbox="-496 -567 2341 1976"
    underline-thickness="40"
    underline-position="-312"
    slope="-11.75"
    unicode-range="U+0020-2212"
  />
<missing-glyph horiz-adv-x="1024" 
d="M840 1628v-2048h-650v2048h650zM682 1491h-338v-68h133v-75h-135v-68h340v68h-135v75h135v68zM547 1227h-205v-213h340v69h-135v144zM477 1157v-74h-67v74h67zM682 958h-340v-67h135v-76h-135v-67h205v143h135v67zM682 836h-68v-136h-272v-69h340v205zM682 586h-205v-115
h70v47h67v-96h-204v164h-68v-232h340v232zM682 231h-340v-231h340v231zM614 164v-96h-204v96h204zM682 -47h-340v-68h143l-143 -96v-68h340v68h-209l143 96h66v68z" />
    <glyph glyph-name=".notdef" horiz-adv-x="1024" 
d="M840 1628v-2048h-650v2048h650zM682 1491h-338v-68h133v-75h-135v-68h340v68h-135v75h135v68zM547 1227h-205v-213h340v69h-135v144zM477 1157v-74h-67v74h67zM682 958h-340v-67h135v-76h-135v-67h205v143h135v67zM682 836h-68v-136h-272v-69h340v205zM682 586h-205v-115
h70v47h67v-96h-204v164h-68v-232h340v232zM682 231h-340v-231h340v231zM614 164v-96h-204v96h204zM682 -47h-340v-68h143l-143 -96v-68h340v68h-209l143 96h66v68z" />
    <glyph glyph-name=".null" horiz-adv-x="0" 
 />
    <glyph glyph-name="nonmarkingreturn" horiz-adv-x="682" 
 />
    <glyph glyph-name="space" unicode=" " horiz-adv-x="563" 
 />
    <glyph glyph-name="exclam" unicode="!" horiz-adv-x="468" 
d="M150 395l169 1012h189l-250 -1012h-108zM139 -25q-43 0 -70.5 28.5t-27.5 70.5q0 53 37.5 88t85.5 35q42 0 69 -28t27 -69q0 -49 -37 -87t-84 -38z" />
    <glyph glyph-name="quotedbl" unicode="&#x22;" horiz-adv-x="819" 
d="M254 879q0 4 5 95t9 140q2 37 4 59.5t6 54.5t9.5 51t15.5 41t23.5 34t33 20t43.5 8q33 0 54.5 -20t21.5 -47q0 -50 -135 -436h-90zM625 879q0 4 5 95t9 140q2 37 4 59.5t6 54.5t9.5 51t15.5 41t23.5 34t33 20t43.5 8q33 0 54.5 -20t21.5 -47q0 -50 -135 -436h-90z" />
    <glyph glyph-name="numbersign" unicode="#" horiz-adv-x="1415" 
d="M1368 913h-242l-194 -421h242l-58 -125h-242l-167 -367h-138l168 367h-305l-168 -367h-137l168 367h-232l58 125h231l195 421h-234l56 125h235l170 369h137l-170 -369h306l170 369h137l-170 -369h241zM795 492l194 421h-305l-195 -421h306z" />
    <glyph glyph-name="dollar" unicode="$" horiz-adv-x="1333" 
d="M1176 1112q-45 56 -113.5 98.5t-142.5 63.5l-105 -498q186 -51 267 -126t81 -195q0 -196 -142.5 -327t-371.5 -148l-26 -132h-160l29 138q-126 19 -240 77.5t-182 141.5l118 117q57 -72 147 -124t187 -69l107 520q-186 51 -266 122t-80 185q0 199 142 331.5t368 144.5
l24 122h160l-29 -133q99 -22 190 -72.5t154 -119.5zM446 995q0 -57 51 -98t167 -78l98 467q-142 -15 -229 -94t-87 -197zM997 424q0 59 -51.5 103.5t-165.5 80.5l-100 -479q143 19 230 99t87 196z" />
    <glyph glyph-name="percent" unicode="%" horiz-adv-x="1703" 
d="M500 715q-126 0 -198.5 77t-72.5 199q0 110 53 209t145 159t198 60q126 0 198 -77.5t72 -200.5q0 -170 -117 -298t-278 -128zM182 0l1256 1407h159l-1253 -1407h-162zM502 825q71 0 133 46.5t97.5 118.5t35.5 149q0 76 -39 123t-106 47q-109 0 -189 -100.5t-80 -213.5
q0 -76 40.5 -123t107.5 -47zM1149 -20q-124 0 -198 77t-74 201q0 108 53 206t145.5 159t198.5 61q126 0 198 -78t72 -200q0 -109 -53 -207.5t-144.5 -158.5t-197.5 -60zM1151 90q74 0 137.5 49.5t97 122t33.5 146.5t-40 119.5t-107 45.5q-108 0 -187 -97.5t-79 -217.5
q0 -76 38.5 -122t106.5 -46z" />
    <glyph glyph-name="ampersand" unicode="&#x26;" horiz-adv-x="1441" 
d="M1315 641q-134 -208 -271 -356l181 -236l-152 -59q-24 32 -71 93.5t-68 90.5q-228 -199 -471 -199q-168 0 -272.5 86.5t-104.5 233.5q0 330 420 500q-66 120 -66 225q0 116 58.5 209t155 143.5t208.5 50.5q124 0 201.5 -77.5t77.5 -194.5q0 -66 -23 -122t-59.5 -97
t-95.5 -79t-115 -63.5t-135 -56.5q123 -176 250 -340q118 132 227 320zM856 1286q-110 0 -187 -73t-77 -179q0 -98 51 -192q64 22 111.5 42.5t94 48.5t75.5 58t47 70.5t18 87.5q0 61 -35.5 99t-97.5 38zM475 113q182 0 377 170q-158 216 -277 399q-158 -64 -247.5 -158
t-89.5 -213q0 -93 66.5 -145.5t170.5 -52.5z" />
    <glyph glyph-name="quotesingle" unicode="'" horiz-adv-x="448" 
d="M254 879q0 4 5 95t9 140q2 37 4 59.5t6 54.5t9.5 51t15.5 41t23.5 34t33 20t43.5 8q33 0 54.5 -20t21.5 -47q0 -50 -135 -436h-90z" />
    <glyph glyph-name="parenleft" unicode="(" horiz-adv-x="722" 
d="M365 -344q-273 273 -273 661q0 322 170 617t461 504l74 -95q-545 -459 -545 -1046q0 -299 205 -561z" />
    <glyph glyph-name="parenright" unicode=")" horiz-adv-x="720" 
d="M4 -352l-72 96q543 456 543 1044q0 158 -50.5 294.5t-152.5 269.5l93 78q270 -273 270 -660q0 -322 -170 -617.5t-461 -504.5z" />
    <glyph glyph-name="asterisk" unicode="*" horiz-adv-x="813" 
d="M457 770q-22 0 -34 13t-9 32q10 50 44 141t42 115q-18 -11 -103.5 -71t-134.5 -85q-17 -9 -35 -2.5t-24 25.5q-7 18 0.5 37.5t25.5 28.5q49 25 145 58.5t115 41.5q-12 6 -96 40.5t-121 59.5q-14 9 -14.5 28t12.5 38q15 18 37 24.5t35 -2.5q37 -25 96.5 -83t75.5 -72
q1 16 5.5 110.5t15.5 145.5q3 19 20 32t39 13t34 -13t9 -32q-8 -38 -22 -80.5t-34 -95t-30 -80.5q17 11 102.5 70.5t134.5 84.5q17 9 35.5 2.5t24.5 -24.5q7 -18 -1 -37.5t-26 -28.5q-49 -25 -142 -58t-116 -42q16 -8 97 -41.5t118 -58.5q14 -9 14.5 -28t-12.5 -38
q-15 -19 -36.5 -25.5t-34.5 2.5q-36 25 -95.5 83t-76.5 73q-2 -25 -4 -80t-5.5 -96t-11.5 -80q-3 -19 -20 -32t-39 -13z" />
    <glyph glyph-name="plus" unicode="+" horiz-adv-x="1191" 
d="M1114 760l-33 -152h-393l-82 -393h-153l82 393h-394l33 152h393l82 395h154l-82 -395h393z" />
    <glyph glyph-name="comma" unicode="," horiz-adv-x="473" 
d="M35 -276l-72 65q94 84 154 193q-39 0 -64.5 25.5t-25.5 66.5q0 55 37.5 89t85.5 34q51 0 78.5 -34t27.5 -91q0 -44 -15.5 -86.5t-51 -89.5t-66.5 -81t-88 -91z" />
    <glyph glyph-name="hyphen" unicode="-" horiz-adv-x="729" 
d="M88 481l33 150h530l-33 -150h-530z" />
    <glyph glyph-name="period" unicode="." horiz-adv-x="460" 
d="M127 -25q-43 0 -70.5 28.5t-27.5 70.5q0 53 37.5 88t85.5 35q42 0 69 -28t27 -69q0 -49 -37 -87t-84 -38z" />
    <glyph glyph-name="slash" unicode="/" horiz-adv-x="1007" 
d="M-86 -152l1067 1674h178l-1067 -1674h-178z" />
    <glyph glyph-name="zero" unicode="0" horiz-adv-x="1400" 
d="M596 -25q-215 0 -340 145t-125 388q0 135 35.5 269.5t103 251.5t157.5 208t207 143t243 52q215 0 339.5 -145t124.5 -386q0 -136 -35.5 -271t-102.5 -252t-156.5 -207.5t-206.5 -143t-244 -52.5zM604 123q123 0 233 71t184 183t117.5 249.5t43.5 270.5q0 177 -84 282
t-230 105q-122 0 -232 -71t-184 -183t-117.5 -248t-43.5 -268q0 -179 83.5 -285t229.5 -106z" />
    <glyph glyph-name="one" unicode="1" horiz-adv-x="727" 
d="M297 0l254 1212l-277 -159l-47 118l394 236h129l-293 -1407h-160z" />
    <glyph glyph-name="two" unicode="2" horiz-adv-x="1187" 
d="M-4 0l24 133l605 442q385 281 385 508q0 95 -67.5 150t-166.5 55q-224 0 -430 -223l-100 102q243 265 542 265q167 0 275 -91.5t108 -244.5q0 -92 -34 -178.5t-100 -165.5t-139.5 -144.5t-174.5 -140.5l-438 -315h712l-32 -152h-969z" />
    <glyph glyph-name="three" unicode="3" horiz-adv-x="1208" 
d="M502 -25q-168 0 -288 68.5t-181 177.5l125 96q53 -92 142 -144t210 -52q165 0 284 96t119 234q0 94 -81.5 141t-231.5 47h-156l31 147l146 -2q160 -2 277.5 85t117.5 221q0 88 -70 142t-184 54q-210 0 -416 -203l-92 105q234 244 522 244q183 0 293.5 -87.5t110.5 -230.5
q0 -146 -96.5 -250t-252.5 -147q100 -23 170 -93t70 -182q0 -133 -80 -241.5t-210 -167t-279 -58.5z" />
    <glyph glyph-name="four" unicode="4" horiz-adv-x="1292" 
d="M711 0l71 342h-700l4 133l891 932h186l-190 -920h211l-31 -145h-211l-72 -342h-159zM274 487h539l154 727z" />
    <glyph glyph-name="five" unicode="5" horiz-adv-x="1198" 
d="M485 -25q-299 0 -456 228l121 108q136 -192 350 -192q168 0 293 116.5t125 270.5q0 104 -73.5 166.5t-197.5 62.5q-171 0 -344 -112l-108 61l170 723h831l-31 -152h-676l-116 -469q153 91 313 91q174 0 284.5 -93t110.5 -254q0 -114 -47.5 -217.5t-128 -177t-190.5 -117
t-230 -43.5z" />
    <glyph glyph-name="six" unicode="6" horiz-adv-x="1251" 
d="M735 879q176 0 288 -93.5t112 -255.5q0 -151 -81.5 -279.5t-217 -202t-291.5 -73.5q-110 0 -192.5 34t-132.5 97t-74.5 147t-24.5 189q0 140 36 283.5t104 269t157.5 224t204.5 156t237 57.5q229 0 373 -172l-105 -117q-59 71 -123 107t-155 36q-94 0 -183.5 -52
t-159 -138.5t-121.5 -195.5t-79 -226q84 98 196.5 151.5t231.5 53.5zM549 113q110 0 209 57t158 149.5t59 192.5q0 107 -75.5 168t-199.5 61q-138 0 -253.5 -78t-165.5 -202v-2q0 -160 66 -253t202 -93z" />
    <glyph glyph-name="seven" unicode="7" horiz-adv-x="1155" 
d="M152 0l860 1255h-760l31 152h952l-23 -121l-874 -1286h-186z" />
    <glyph glyph-name="eight" unicode="8" horiz-adv-x="1247" 
d="M518 -25q-200 0 -324 90t-124 240q0 151 110 262t283 164q-97 40 -154 109.5t-57 163.5q0 95 48.5 177.5t127 136t175.5 84t196 30.5q179 0 299.5 -87t120.5 -231q0 -138 -96.5 -237t-254.5 -154q107 -39 173.5 -117t66.5 -184q0 -130 -85.5 -234t-219.5 -158.5
t-285 -54.5zM666 791q90 5 178.5 43.5t149.5 108t61 151.5q0 86 -73 139t-189 53q-97 0 -185.5 -39t-144 -108t-55.5 -150q0 -61 41.5 -106t98 -66.5t118.5 -25.5zM526 121q106 0 203 39.5t159 112t62 159.5q0 65 -46.5 116t-111.5 76t-133 27q-94 -2 -191.5 -44
t-166 -118.5t-68.5 -162.5q0 -93 82 -149t211 -56z" />
    <glyph glyph-name="nine" unicode="9" horiz-adv-x="1251" 
d="M780 1432q110 0 192.5 -34t132.5 -97t74.5 -147t24.5 -189q0 -140 -36 -283.5t-104 -269t-157.5 -224t-204.5 -156t-237 -57.5q-229 0 -373 172l105 117q59 -71 123 -107t155 -36q94 0 183.5 52t159 138.5t121.5 195.5t79 226q-84 -98 -196.5 -151.5t-231.5 -53.5
q-176 0 -288 93.5t-112 255.5q0 151 81.5 279.5t217 202t291.5 73.5zM625 666q138 0 253.5 78t165.5 202v2q0 160 -66 253t-202 93q-110 0 -209 -57t-158 -149.5t-59 -192.5q0 -107 75.5 -168t199.5 -61z" />
    <glyph glyph-name="colon" unicode=":" horiz-adv-x="448" 
d="M299 825q-45 0 -72.5 28.5t-27.5 70.5q0 53 37.5 88t85.5 35q42 0 69 -28t27 -69q0 -49 -36.5 -87t-82.5 -38zM121 -25q-43 0 -70.5 28.5t-27.5 70.5q0 53 37 88t85 35q42 0 69.5 -28.5t27.5 -68.5q0 -49 -37 -87t-84 -38z" />
    <glyph glyph-name="semicolon" unicode=";" horiz-adv-x="460" 
d="M299 825q-43 0 -70.5 28.5t-27.5 70.5q0 53 37.5 88t85.5 35q42 0 69 -28t27 -69q0 -49 -37 -87t-84 -38zM33 -276l-72 65q94 84 154 193q-39 0 -64.5 25.5t-25.5 66.5q0 55 37 89t85 34q51 0 79 -34t28 -91q0 -44 -15.5 -86.5t-51 -89.5t-66.5 -81t-88 -91z" />
    <glyph glyph-name="less" unicode="&#x3c;" horiz-adv-x="1193" 
d="M983 180l-836 463l25 121l1028 463l-29 -144l-860 -378l701 -379z" />
    <glyph glyph-name="equal" unicode="=" horiz-adv-x="1286" 
d="M236 834l32 151h940l-32 -151h-940zM141 383l33 152h940l-33 -152h-940z" />
    <glyph glyph-name="greater" unicode="&#x3e;" horiz-adv-x="1191" 
d="M66 180l28 146l860 379l-700 378l29 144l835 -463l-24 -121z" />
    <glyph glyph-name="question" unicode="?" horiz-adv-x="1093" 
d="M387 395l78 383q87 7 171 32.5t153 65.5t111 98t42 124q0 80 -58.5 134t-162.5 54q-111 0 -207 -52.5t-190 -146.5l-91 113q232 232 502 232q171 0 271 -87.5t100 -224.5q0 -87 -42 -166t-112.5 -137.5t-157.5 -100.5t-182 -61l-53 -260h-172zM410 -25q-44 0 -71.5 28.5
t-27.5 70.5q0 53 37.5 88t85.5 35q42 0 69 -28t27 -69q0 -49 -36.5 -87t-83.5 -38z" />
    <glyph glyph-name="at" unicode="@" horiz-adv-x="1892" 
d="M760 -238q-180 0 -326 81t-228.5 223t-82.5 317q0 211 80 396.5t218.5 317.5t333 208.5t416.5 76.5q133 0 250 -45.5t200.5 -124t132 -188.5t48.5 -236q0 -152 -63 -296t-176.5 -238t-245.5 -94q-95 0 -147 47t-52 129q-78 -79 -173 -127.5t-195 -48.5q-127 0 -202 71.5
t-75 194.5q0 141 88 281.5t227 229.5t279 89q102 0 163 -46.5t83 -119.5l55 135l135 -10q-25 -63 -70 -171.5t-68 -165t-49.5 -126t-38 -109t-11.5 -59.5q0 -47 28.5 -72.5t81.5 -25.5q98 0 181 84t126 202t43 232q0 229 -164 382t-411 153q-268 0 -485 -119t-340 -328.5
t-123 -466.5q0 -159 75 -287.5t207 -201t295 -72.5q232 0 467 125l27 -55q-262 -142 -514 -142zM811 281q83 0 163 42.5t137.5 109.5t92.5 151t35 164q0 75 -45.5 116t-134.5 41q-78 0 -157.5 -40t-139.5 -102.5t-97.5 -144t-37.5 -161.5q0 -82 48.5 -129t135.5 -47z" />
    <glyph glyph-name="A" unicode="A" horiz-adv-x="1607" 
d="M1231 0l-76 319h-784l-207 -319h-178l913 1407h176l-2 -2l328 -1405h-170zM469 471h651l-172 739z" />
    <glyph glyph-name="B" unicode="B" horiz-adv-x="1353" 
d="M49 0l293 1407h641q143 0 234.5 -80.5t91.5 -206.5q0 -113 -72 -213t-201 -166q82 -46 134.5 -127t52.5 -163q0 -120 -67.5 -224t-182.5 -165.5t-248 -61.5h-676zM379 811h438q132 0 229 83.5t97 197.5q0 75 -62 122.5t-159 47.5h-449zM240 145h462q149 0 258 96t109 228
q0 86 -69.5 141.5t-176.5 55.5h-475z" />
    <glyph glyph-name="C" unicode="C" horiz-adv-x="1441" 
d="M725 -25q-157 0 -292.5 81t-215.5 219t-80 298q0 171 72 330t192 274.5t284.5 185t342.5 69.5q123 0 249.5 -61.5t203.5 -158.5l-125 -102q-57 77 -157.5 125.5t-201.5 48.5q-140 0 -269.5 -57.5t-223.5 -153.5t-150.5 -227t-56.5 -273q0 -120 62 -224t167.5 -165
t227.5 -61q96 0 215.5 51t210.5 131l92 -119q-113 -92 -266.5 -151.5t-280.5 -59.5z" />
    <glyph glyph-name="D" unicode="D" horiz-adv-x="1509" 
d="M49 0l293 1407h471q280 0 457.5 -156.5t177.5 -402.5q0 -170 -74 -326.5t-197.5 -271t-293.5 -182.5t-353 -68h-481zM240 145h309q147 0 283 56t235.5 149.5t159 221.5t59.5 266q0 186 -138 305t-355 119h-320z" />
    <glyph glyph-name="E" unicode="E" horiz-adv-x="1280" 
d="M1321 1255h-850l-92 -462h762l-31 -152h-766l-98 -489h846l-33 -152h-1010l293 1407h1010z" />
    <glyph glyph-name="F" unicode="F" horiz-adv-x="1269" 
d="M1321 1255h-850l-92 -462h762l-31 -152h-766l-133 -641h-162l293 1407h1010z" />
    <glyph glyph-name="G" unicode="G" horiz-adv-x="1486" 
d="M811 586l33 151h563l-115 -551q-113 -92 -272 -151.5t-295 -59.5q-157 0 -292.5 81t-215.5 219t-80 298q0 171 72 330t192 274.5t284.5 185t342.5 69.5q132 0 264 -61.5t209 -158.5l-125 -102q-57 77 -163 125.5t-216 48.5q-140 0 -269.5 -57.5t-223.5 -153.5
t-150.5 -227t-56.5 -273q0 -120 62 -224t167.5 -165t227.5 -61q91 0 198 38.5t197 102.5l65 322h-403z" />
    <glyph glyph-name="H" unicode="H" horiz-adv-x="1468" 
d="M1331 1407h160l-293 -1407h-160l131 641h-829l-131 -641h-160l293 1407h160l-125 -614h829z" />
    <glyph glyph-name="I" unicode="I" horiz-adv-x="479" 
d="M49 0l293 1407h160l-293 -1407h-160z" />
    <glyph glyph-name="J" unicode="J" horiz-adv-x="1114" 
d="M410 -25q-122 0 -228.5 67t-152.5 173l135 102q23 -86 99.5 -141t174.5 -55q126 0 227 96.5t132 247.5l194 942h160l-199 -954q-44 -210 -195.5 -344t-346.5 -134z" />
    <glyph glyph-name="K" unicode="K" horiz-adv-x="1374" 
d="M49 0l293 1407h160l-164 -778l874 778h215l-727 -643l469 -764h-200l-398 655l-272 -233l-90 -422h-160z" />
    <glyph glyph-name="L" unicode="L" horiz-adv-x="1187" 
d="M244 152h766l-33 -152h-928l293 1407h160z" />
    <glyph glyph-name="M" unicode="M" horiz-adv-x="1683" 
d="M49 0l293 1407h158l317 -981l727 981h162l-293 -1407h-160l224 1063l-723 -981l-322 981l-223 -1063h-160z" />
    <glyph glyph-name="N" unicode="N" horiz-adv-x="1511" 
d="M49 0l293 1407h158l635 -1145l239 1145h160l-293 -1407h-156l-634 1145l-242 -1145h-160z" />
    <glyph glyph-name="O" unicode="O" horiz-adv-x="1669" 
d="M721 -25q-259 0 -421.5 164.5t-162.5 427.5q0 234 119 433t323 315.5t443 116.5q259 0 421.5 -164.5t162.5 -427.5q0 -234 -119 -433t-323 -315.5t-443 -116.5zM752 123q187 0 346.5 95.5t252.5 259.5t93 356q0 199 -125.5 324.5t-325.5 125.5q-187 0 -347 -94.5
t-253.5 -257t-93.5 -352.5q0 -203 126 -330t327 -127z" />
    <glyph glyph-name="P" unicode="P" horiz-adv-x="1353" 
d="M49 0l293 1407h563q192 0 315 -107t123 -276q0 -138 -85 -257.5t-229.5 -190t-311.5 -70.5h-402l-106 -506h-160zM346 657h404q178 0 307 108t129 257q0 103 -88 168t-226 65h-401z" />
    <glyph glyph-name="Q" unicode="Q" horiz-adv-x="1671" 
d="M1606 840q0 -177 -70.5 -336.5t-196.5 -280.5l115 -119l-111 -104l-122 127q-228 -152 -500 -152q-259 0 -421.5 164.5t-162.5 427.5q0 234 119 433t323 315.5t443 116.5q259 0 421.5 -164.5t162.5 -427.5zM752 123q201 0 368 110l-207 218l111 104l215 -225
q97 99 151 229t54 275q0 199 -125.5 324.5t-325.5 125.5q-187 0 -347 -94.5t-253.5 -257t-93.5 -352.5q0 -203 126 -330t327 -127z" />
    <glyph glyph-name="R" unicode="R" horiz-adv-x="1384" 
d="M1343 1024q0 -178 -138.5 -320t-346.5 -184l316 -520h-177l-309 506h-373l-106 -506h-160l293 1407h563q192 0 315 -107t123 -276zM750 657q178 0 307 108t129 257q0 103 -88 168t-226 65h-401l-125 -598h404z" />
    <glyph glyph-name="S" unicode="S" horiz-adv-x="1257" 
d="M549 -23q-146 0 -290 64t-228 164l119 117q69 -88 184 -143.5t227 -55.5q175 0 286 84.5t111 216.5q0 71 -73.5 120.5t-243.5 92.5q-214 51 -305.5 124.5t-91.5 194.5q0 210 154 344t397 134q121 0 248.5 -57t209.5 -148l-116 -117q-63 77 -164 126.5t-195 49.5
q-163 0 -266.5 -82t-103.5 -211q0 -67 74.5 -115t246.5 -92q212 -51 303.5 -128t91.5 -205q0 -210 -161 -344t-414 -134z" />
    <glyph glyph-name="T" unicode="T" horiz-adv-x="1306" 
d="M463 0l262 1255h-473l31 152h1106l-31 -152h-473l-262 -1255h-160z" />
    <glyph glyph-name="U" unicode="U" horiz-adv-x="1454" 
d="M614 -25q-171 0 -289 78t-164 218.5t-9 318.5l170 817h159l-172 -829q-41 -201 52.5 -329t281.5 -128q189 0 336 131.5t188 337.5l170 817h160l-172 -829q-56 -265 -255 -434t-456 -169z" />
    <glyph glyph-name="V" unicode="V" horiz-adv-x="1517" 
d="M1470 1407h179l-914 -1407h-176l2 2l-328 1405h170l283 -1210z" />
    <glyph glyph-name="W" unicode="W" horiz-adv-x="2254" 
d="M467 0l-188 1407h178l149 -1139l613 1139h178l133 -1139l629 1139h182l-774 -1407h-158l-139 1198l-645 -1198h-158z" />
    <glyph glyph-name="X" unicode="X" horiz-adv-x="1474" 
d="M1559 1407l-689 -707l390 -700h-191l-319 575l-562 -575h-200l688 707l-389 700h190l320 -576l561 576h201z" />
    <glyph glyph-name="Y" unicode="Y" horiz-adv-x="1488" 
d="M549 0l123 573l-396 834h162l330 -696l612 696h197l-737 -834l-123 -573h-168z" />
    <glyph glyph-name="Z" unicode="Z" horiz-adv-x="1292" 
d="M0 0l23 127l1083 1128h-832l31 152h1053l-25 -127l-1083 -1128h856l-33 -152h-1073z" />
    <glyph glyph-name="bracketleft" unicode="[" horiz-adv-x="749" 
d="M2 -236l360 1739h484l-25 -117h-348l-313 -1505h348l-23 -117h-483z" />
    <glyph glyph-name="backslash" unicode="\" horiz-adv-x="999" 
d="M633 -152l-371 1674h170l371 -1674h-170z" />
    <glyph glyph-name="bracketright" unicode="]" horiz-adv-x="749" 
d="M-53 -236l22 117h348l314 1505h-348l24 117h484l-361 -1739h-483z" />
    <glyph glyph-name="asciicircum" unicode="^" horiz-adv-x="1024" 
d="M186 846l449 561h121l213 -561h-129l-162 448l-356 -448h-136z" />
    <glyph glyph-name="underscore" unicode="_" horiz-adv-x="1417" 
d="M-72 -291l29 137h1221l-29 -137h-1221z" />
    <glyph glyph-name="grave" unicode="`" horiz-adv-x="528" 
d="M487 1180l-237 258l166 37l186 -295h-115z" />
    <glyph glyph-name="a" unicode="a" horiz-adv-x="1218" 
d="M1059 1059h153l-221 -1059h-153l41 195q-81 -103 -190 -161.5t-230 -58.5q-161 0 -279.5 125t-118.5 297q0 137 50.5 264t135 219.5t200.5 147.5t241 55q106 0 194 -68t130 -177zM487 113q155 0 281 106t172 270l16 84q7 44 7 78q0 120 -90.5 207.5t-213.5 87.5
q-117 0 -218 -73t-160.5 -197t-59.5 -268q0 -120 78.5 -207.5t187.5 -87.5z" />
    <glyph glyph-name="b" unicode="b" horiz-adv-x="1222" 
d="M764 1083q161 0 279 -124.5t118 -294.5q0 -137 -50.5 -264.5t-134.5 -220.5t-200 -148.5t-241 -55.5q-106 0 -194 69t-130 179l-47 -223h-154l297 1432h154l-119 -568q84 103 193 161t229 58zM561 113q118 0 219.5 73t161 197t59.5 268q0 120 -78.5 207.5t-187.5 87.5
q-158 0 -284.5 -110t-171.5 -279l-13 -61q-6 -44 -6 -88q0 -120 89 -207.5t212 -87.5z" />
    <glyph glyph-name="c" unicode="c" horiz-adv-x="1064" 
d="M504 -25q-118 0 -220 61.5t-161.5 165.5t-59.5 224q0 131 54 252.5t144 210t214 141.5t258 53q92 0 188 -44.5t156 -114.5l-121 -97q-37 52 -107 85.5t-144 33.5q-129 0 -240 -69.5t-176.5 -187t-65.5 -253.5q0 -132 91 -227.5t216 -95.5q162 0 304 133l92 -113
q-189 -158 -422 -158z" />
    <glyph glyph-name="d" unicode="d" horiz-adv-x="1224" 
d="M1137 1432h153l-297 -1432h-153l41 197q-81 -103 -191 -162.5t-231 -59.5q-161 0 -279.5 125t-118.5 297q0 137 50.5 264t135 219.5t200.5 147.5t241 55q106 0 195 -69t131 -178zM487 113q161 0 289 113.5t170 285.5l8 39q9 50 9 100q0 120 -90.5 207.5t-213.5 87.5
q-117 0 -218 -73t-160.5 -197t-59.5 -268q0 -120 78.5 -207.5t187.5 -87.5z" />
    <glyph glyph-name="e" unicode="e" horiz-adv-x="1110" 
d="M590 471h-373q-2 -14 -2 -41q0 -145 81.5 -231t221.5 -86q96 0 197.5 38t161.5 93l81 -109q-81 -72 -216.5 -116t-249.5 -44q-189 0 -309 123t-120 320q0 129 55 252t144.5 213t208.5 145t242 55q101 0 186.5 -34.5t139 -102t53.5 -155.5q0 -142 -135 -231t-367 -89z
M700 946q-156 0 -277 -96t-175 -242h370q154 0 238 45.5t84 128.5q0 75 -67.5 119.5t-172.5 44.5z" />
    <glyph glyph-name="f" unicode="f" horiz-adv-x="700" 
d="M672 1475q108 0 190 -72l-92 -105q-12 18 -37.5 28.5t-52.5 10.5q-55 0 -101.5 -40t-58.5 -99l-28 -139h260l-29 -137h-260l-193 -922h-153l192 922h-166l29 137h166l31 151q25 118 109 191.5t194 73.5z" />
    <glyph glyph-name="g" unicode="g" horiz-adv-x="1216" 
d="M1057 1059h153l-198 -953q-44 -209 -213 -333.5t-393 -124.5q-127 0 -234 40.5t-170 104.5l84 113q102 -121 315 -121q179 0 304 89.5t157 244.5l33 155q-171 -196 -420 -196q-183 0 -292 108.5t-109 292.5q0 116 46.5 226t124.5 193.5t188 134t231 50.5
q133 0 222.5 -58.5t131.5 -158.5zM514 215q155 0 277.5 101t162.5 247l11 49q4 40 4 60q0 127 -75 200.5t-204 73.5q-121 0 -226.5 -63.5t-166.5 -168.5t-61 -222q0 -128 74 -202.5t204 -74.5z" />
    <glyph glyph-name="h" unicode="h" horiz-adv-x="1118" 
d="M723 1083q152 0 242 -87.5t90 -229.5q0 -15 -1 -30t-3.5 -32t-8 -47.5t-12 -63t-19.5 -93t-26 -122t-35.5 -167t-44.5 -211.5h-153q20 94 39.5 188.5t31.5 152.5t24.5 116.5t19 90t13 64.5t9 48.5t5 32t3 26t0.5 20.5q0 96 -54 151.5t-147 55.5q-130 0 -243 -75.5
t-146 -180.5l-143 -690h-154l297 1432h154l-111 -533q64 83 165.5 133.5t207.5 50.5z" />
    <glyph glyph-name="i" unicode="i" horiz-adv-x="387" 
d="M356 1251q-41 0 -66.5 26.5t-25.5 65.5q0 42 34 76.5t79 34.5q39 0 64.5 -26.5t25.5 -65.5q0 -42 -34.5 -76.5t-76.5 -34.5zM6 0l221 1059h154l-221 -1059h-154z" />
    <glyph glyph-name="j" unicode="j" horiz-adv-x="395" 
d="M360 1251q-41 0 -66.5 26.5t-25.5 65.5q0 42 34 76.5t79 34.5q39 0 64.5 -26.5t25.5 -65.5q0 -42 -34.5 -76.5t-76.5 -34.5zM-158 -365q-90 0 -166 35l41 123q52 -20 121 -20q55 0 99.5 40t56.5 99l237 1147h154l-242 -1159q-25 -118 -108.5 -191.5t-192.5 -73.5z" />
    <glyph glyph-name="k" unicode="k" horiz-adv-x="1103" 
d="M10 0l297 1432h154l-197 -953l692 580h201l-579 -486l327 -573h-186l-268 469l-228 -186l-59 -283h-154z" />
    <glyph glyph-name="l" unicode="l" horiz-adv-x="395" 
d="M10 0l297 1432h154l-297 -1432h-154z" />
    <glyph glyph-name="m" unicode="m" horiz-adv-x="1740" 
d="M1368 1083q142 0 226.5 -86.5t84.5 -226.5q0 -38 -13 -107.5t-67 -325.5q-42 -200 -71 -337h-154q42 201 93 447q55 259 55 288q0 101 -48.5 156t-142.5 55q-120 0 -222 -79t-126 -199q-7 -38 -22.5 -111t-49 -233.5t-67.5 -323.5h-154q42 201 93 447q40 186 47.5 226.5
t7.5 61.5q0 101 -48.5 156t-142.5 55q-117 0 -217 -74.5t-127 -189.5l-143 -682h-154l221 1059h154l-31 -148q57 82 145 127t189 45q126 0 207 -68t100 -184q45 116 148 184t229 68z" />
    <glyph glyph-name="n" unicode="n" 
d="M721 1083q152 0 242 -87.5t90 -229.5q0 -15 -1 -30t-3.5 -32t-8 -47.5t-12 -63t-19.5 -93t-26 -122t-35.5 -167t-44.5 -211.5h-153q20 94 39.5 188.5t31.5 152.5t24.5 116.5t19 90t13 64.5t9 48.5t5 32t3 26t0.5 20.5q0 96 -54 151.5t-147 55.5q-134 0 -249.5 -80
t-143.5 -188l-141 -678h-154l221 1059h154l-33 -162q62 84 164 135t209 51z" />
    <glyph glyph-name="o" unicode="o" horiz-adv-x="1241" 
d="M502 -25q-178 0 -308.5 134t-130.5 317q0 175 91 326.5t245 241t332 89.5q119 0 222 -61t164 -165t61 -224q0 -131 -54.5 -252.5t-145.5 -210.5t-216 -142t-260 -53zM530 113q130 0 242.5 69t179 186t66.5 253q0 132 -93.5 228.5t-222.5 96.5q-128 0 -238.5 -69.5
t-175.5 -187t-65 -253.5q0 -132 91 -227.5t216 -95.5z" />
    <glyph glyph-name="p" unicode="p" horiz-adv-x="1222" 
d="M764 1083q161 0 279 -124.5t118 -294.5q0 -137 -50.5 -264.5t-134.5 -220.5t-200 -148.5t-241 -55.5q-105 0 -194.5 69.5t-131.5 178.5l-119 -575h-153l292 1411h154l-41 -197q81 103 191 162t231 59zM561 113q118 0 219.5 73t161 197t59.5 268q0 120 -78.5 207.5
t-187.5 87.5q-161 0 -289 -114t-170 -287l-8 -35q-8 -66 -8 -102q0 -120 89 -207.5t212 -87.5z" />
    <glyph glyph-name="q" unicode="q" horiz-adv-x="1220" 
d="M1059 1059h153l-292 -1411h-154l115 549q-84 -104 -193 -163t-229 -59q-161 0 -279.5 125t-118.5 297q0 137 50.5 264t135 219.5t200.5 147.5t241 55q106 0 195 -68t131 -177zM487 113q158 0 285 109.5t170 277.5l14 63q7 51 7 88q0 120 -90.5 207.5t-213.5 87.5
q-117 0 -218 -73t-160.5 -197t-59.5 -268q0 -120 78.5 -207.5t187.5 -87.5z" />
    <glyph glyph-name="r" unicode="r" horiz-adv-x="745" 
d="M340 862q70 103 187.5 162t260.5 59l-18 -137q-168 0 -301.5 -89.5t-177.5 -231.5l-131 -625h-154l221 1059h154z" />
    <glyph glyph-name="s" unicode="s" horiz-adv-x="950" 
d="M391 -25q-114 0 -223 42.5t-191 119.5l97 105q70 -61 155.5 -95t167.5 -34q116 0 200.5 60.5t84.5 143.5q0 46 -51 83t-168 75q-164 47 -235.5 105.5t-71.5 144.5q0 158 120 258t308 100q93 0 189 -32t173 -90l-90 -111q-61 45 -135 70.5t-143 25.5q-117 0 -192 -53.5
t-75 -136.5q0 -37 53.5 -72.5t176.5 -81.5q160 -49 228.5 -109t68.5 -149q0 -99 -61 -184t-164 -135t-222 -50z" />
    <glyph glyph-name="t" unicode="t" horiz-adv-x="747" 
d="M723 922h-260q-146 -701 -146 -717q0 -42 22 -67t58 -25q38 0 72.5 13.5t54.5 33.5l62 -121q-98 -64 -205 -64q-99 0 -158 59t-59 154q0 35 18.5 126.5t126.5 607.5h-166l29 137h166l61 291h154l-61 -291h260z" />
    <glyph glyph-name="u" unicode="u" 
d="M956 1059h154l-221 -1059h-154l33 162q-62 -84 -164 -135.5t-209 -51.5q-152 0 -242 87.5t-90 230.5q0 15 1 30t3.5 32t8 47.5t12 63t19.5 93t26 122t35.5 167t44.5 211.5h154q-20 -96 -39.5 -189t-32 -152t-24.5 -117t-19 -90.5t-13.5 -64.5t-9 -48t-5 -32.5t-3 -26
t-0.5 -20.5q0 -95 53.5 -150.5t147.5 -55.5q134 0 249.5 80t143.5 188z" />
    <glyph glyph-name="v" unicode="v" horiz-adv-x="1157" 
d="M397 0l-229 1059h168l168 -879l530 879h176l-665 -1059h-148z" />
    <glyph glyph-name="w" unicode="w" horiz-adv-x="1685" 
d="M303 0l-133 1059h160l86 -854l467 854h133l110 -854l443 854h168l-578 -1059h-145l-103 846l-462 -846h-146z" />
    <glyph glyph-name="x" unicode="x" horiz-adv-x="1114" 
d="M1153 1059l-502 -522l293 -537h-174l-231 422l-406 -422h-186l524 543l-283 516h177l219 -400l385 400h184z" />
    <glyph glyph-name="y" unicode="y" horiz-adv-x="1171" 
d="M131 -369q-94 0 -166 37l53 127q44 -24 113 -24q57 0 99 23t83 77l93 125l-238 1063h166l186 -881l535 881h170l-729 -1184q-81 -131 -169.5 -187.5t-195.5 -56.5z" />
    <glyph glyph-name="z" unicode="z" horiz-adv-x="983" 
d="M-35 0l23 121l788 792h-610l31 146h819l-23 -121l-792 -793h628l-30 -145h-834z" />
    <glyph glyph-name="braceleft" unicode="{" horiz-adv-x="831" 
d="M539 -340q-191 21 -274 81.5t-83 172.5q0 53 40 234.5t40 224.5q0 62 -37.5 88t-126.5 26l13 113q108 0 166.5 49t80.5 152l60 286q34 163 136 238.5t339 101.5l2 -108q-128 -19 -196.5 -47t-101.5 -74.5t-50 -130.5l-60 -295q-20 -96 -67.5 -149.5t-134.5 -81.5
q112 -45 112 -166q0 -46 -41 -223t-41 -228q0 -70 52 -101.5t194 -53.5z" />
    <glyph glyph-name="bar" unicode="|" horiz-adv-x="483" 
d="M39 -152l348 1674h123l-348 -1674h-123z" />
    <glyph glyph-name="braceright" unicode="}" horiz-adv-x="833" 
d="M-55 -340l-2 109q185 28 254.5 78.5t95.5 175.5l59 292q20 96 67 150.5t134 83.5q-113 44 -113 166q0 47 42 231.5t42 218.5q0 68 -53 100t-195 54l25 108q190 -22 272 -82t82 -174q0 -56 -38.5 -231.5t-38.5 -224.5q0 -62 37.5 -88.5t125.5 -26.5l-12 -113
q-108 0 -167 -47.5t-81 -150.5l-61 -289q-22 -109 -71 -175t-145.5 -107t-258.5 -58z" />
    <glyph glyph-name="asciitilde" unicode="~" horiz-adv-x="933" 
d="M629 614q-35 0 -65 14t-51 34t-39.5 40t-39.5 34t-43 14q-89 0 -141 -146l-92 27q81 237 235 237q35 0 65 -14t51 -34t39.5 -39.5t39.5 -33.5t43 -14q86 0 141 146l92 -27q-81 -238 -235 -238z" />
    <glyph glyph-name="exclamdown" unicode="&#xa1;" horiz-adv-x="468" 
d="M330 1083q44 0 71 -28t27 -70q0 -53 -37.5 -88t-85.5 -35q-42 0 -69 28t-27 68q0 49 37 87t84 38zM319 664l-169 -1012h-189l250 1012h108z" />
    <glyph glyph-name="cent" unicode="&#xa2;" horiz-adv-x="1222" 
d="M893 1075q74 -15 144.5 -55.5t117.5 -95.5l-121 -97q-54 79 -170 109l-170 -813q111 23 217 123l93 -113q-152 -129 -340 -153l-27 -132h-160l29 134q-155 29 -260 155.5t-105 288.5q0 122 46.5 235.5t125.5 200.5t188.5 145t231.5 72l27 127h160zM301 436
q0 -111 66.5 -198.5t167.5 -114.5l170 817q-171 -31 -287.5 -175t-116.5 -329z" />
    <glyph glyph-name="sterling" unicode="&#xa3;" horiz-adv-x="1347" 
d="M893 1286q-129 0 -233.5 -97.5t-135.5 -246.5l-55 -270h414l-29 -137h-414l-78 -383h766l-32 -152h-1059l14 78l148 74l80 383h-125l28 137h125l60 282q44 212 192.5 345t339.5 133q145 0 254 -68t139 -172l-135 -102q-7 88 -81 142t-183 54z" />
    <glyph glyph-name="yen" unicode="&#xa5;" horiz-adv-x="1570" 
d="M1618 1407l-649 -733h364l-28 -137h-433l-34 -164h432l-29 -137h-432l-51 -236h-168l51 236h-416l29 137h416l35 164h-416l28 137h349l-349 733h162l330 -696l612 696h197z" />
    <glyph glyph-name="dieresis" unicode="&#xa8;" horiz-adv-x="739" 
d="M330 1223q-39 0 -62.5 25t-23.5 61q0 39 30.5 70.5t71.5 31.5q38 0 62 -25t24 -61q0 -39 -31.5 -70.5t-70.5 -31.5zM723 1223q-39 0 -62.5 25t-23.5 61q0 39 30.5 70.5t71.5 31.5q38 0 62 -25t24 -61q0 -39 -31.5 -70.5t-70.5 -31.5z" />
    <glyph glyph-name="copyright" unicode="&#xa9;" horiz-adv-x="1888" 
d="M786 -238q-198 0 -349 80.5t-232.5 225t-81.5 329.5q0 193 81.5 374.5t216.5 315t319.5 214.5t381.5 81q302 0 482 -175t180 -457q0 -193 -81.5 -375t-216.5 -316t-319.5 -215.5t-380.5 -81.5zM801 -164q180 0 348.5 74.5t291 197t196 288t73.5 339.5q0 250 -165.5 412
t-436.5 162q-179 0 -347.5 -74t-291 -195.5t-196.5 -286.5t-74 -339q0 -257 165 -417.5t437 -160.5zM848 18q-118 0 -219.5 61.5t-161 165.5t-59.5 224q0 175 90.5 326.5t245 241t333.5 89.5q92 0 188 -44.5t156 -114.5l-121 -97q-37 52 -107 85.5t-144 33.5
q-129 0 -240 -69.5t-176.5 -187t-65.5 -253.5q0 -132 91 -227.5t216 -95.5q162 0 304 133l92 -113q-189 -158 -422 -158z" />
    <glyph glyph-name="guillemotleft" unicode="&#xab;" horiz-adv-x="1089" 
d="M340 106l-246 408l410 404l151 -33l-379 -369l222 -375zM745 106l-245 408l409 404l152 -33l-379 -369l221 -375z" />
    <glyph glyph-name="registered" unicode="&#xae;" horiz-adv-x="1275" 
d="M817 1382q180 0 295 -114t115 -287q0 -152 -89 -292.5t-232.5 -226t-297.5 -85.5q-181 0 -296 114.5t-115 288.5q0 115 52.5 226t138 193t199.5 132.5t230 50.5zM623 451q136 0 259.5 74.5t197 194.5t73.5 249q0 146 -98 243t-252 97q-133 0 -256 -71.5t-199 -191.5
t-76 -253q0 -147 98.5 -244.5t252.5 -97.5zM811 1186q90 0 142.5 -45t52.5 -119q0 -87 -50 -153.5t-131 -94.5l103 -203h-178l-93 187h-69l-39 -187h-160l127 615h295zM737 909q43 0 73 22t30 54q0 22 -21 35.5t-55 13.5h-119l-27 -125h119z" />
    <glyph glyph-name="macron" unicode="&#xaf;" horiz-adv-x="827" 
d="M240 1217l22 112h635l-23 -112h-634z" />
    <glyph glyph-name="degree" unicode="&#xb0;" horiz-adv-x="856" 
d="M510 866q-106 0 -175 65t-69 165q0 146 95 241t243 95q106 0 175 -65t69 -165q0 -145 -95.5 -240.5t-242.5 -95.5zM524 993q80 0 132.5 54.5t52.5 138.5q0 52 -33.5 85.5t-85.5 33.5q-80 0 -132 -54.5t-52 -138.5q0 -53 33 -86t85 -33z" />
    <glyph glyph-name="acute" unicode="&#xb4;" horiz-adv-x="536" 
d="M197 1180l309 295l158 -37l-345 -258h-122z" />
    <glyph glyph-name="paragraph" unicode="&#xb6;" horiz-adv-x="1271" 
d="M467 -102l154 710q-186 0 -294 89t-108 237q0 134 73 243.5t194.5 169.5t263.5 60h524l-313 -1509h-127l288 1390h-239l-289 -1390h-127z" />
    <glyph glyph-name="periodcentered" unicode="&#xb7;" horiz-adv-x="450" 
d="M221 453q-42 0 -68 26t-26 66q0 50 34 84.5t81 34.5q41 0 67.5 -26.5t26.5 -66.5q0 -50 -34.5 -84t-80.5 -34z" />
    <glyph glyph-name="cedilla" unicode="&#xb8;" horiz-adv-x="518" 
d="M162 -92q55 0 90 -32t35 -83q0 -82 -66.5 -134t-159.5 -52q-108 0 -176 61l49 78q43 -43 117 -43q63 0 98 23.5t35 64.5q0 26 -16 42.5t-41 16.5q-43 0 -80 -26l-31 39l99 160h110l-73 -115h10z" />
    <glyph glyph-name="guillemotright" unicode="&#xbb;" horiz-adv-x="1083" 
d="M166 106l-143 35l380 375l-223 369l150 33l250 -404zM567 106l-143 35l381 375l-223 369l149 33l250 -404z" />
    <glyph glyph-name="questiondown" unicode="&#xbf;" horiz-adv-x="1093" 
d="M684 1083q44 0 71 -28t27 -70q0 -53 -37.5 -88t-85.5 -35q-42 0 -69 28t-27 68q0 49 37 87t84 38zM707 664l-78 -383q-87 -7 -171 -32.5t-153 -65.5t-111 -98t-42 -124q0 -80 58.5 -134t162.5 -54q112 0 208 52.5t189 145.5l90 -112q-232 -232 -502 -232
q-171 0 -270.5 87.5t-99.5 224.5q0 87 42 166t112 137.5t157 100t182 60.5l54 261h172z" />
    <glyph glyph-name="Agrave" unicode="&#xc0;" horiz-adv-x="1636" 
d="M975 1528h-115l-237 258l165 37zM1231 0l-76 319h-784l-207 -319h-178l913 1407h176l-2 -2l328 -1405h-170zM469 471h651l-172 739z" />
    <glyph glyph-name="Aacute" unicode="&#xc1;" horiz-adv-x="1607" 
d="M1419 1786l-344 -258h-123l310 295zM1075 1407l-2 -2l328 -1405h-170l-76 319h-784l-207 -319h-178l913 1407h176zM1120 471l-172 739l-479 -739h651z" />
    <glyph glyph-name="Acircumflex" unicode="&#xc2;" horiz-adv-x="1607" 
d="M1053 1704l-199 -176h-121l264 280h144l149 -280h-114zM1231 0l-76 319h-784l-207 -319h-178l913 1407h176l-2 -2l328 -1405h-170zM469 471h651l-172 739z" />
    <glyph glyph-name="Atilde" unicode="&#xc3;" horiz-adv-x="1607" 
d="M918 1661q-90 0 -142 -145l-92 26q81 238 236 238q35 0 65 -14t50.5 -34t39.5 -39.5t39.5 -33.5t42.5 -14q86 0 141 145l93 -27q-81 -237 -236 -237q-35 0 -65 14t-50.5 34t-39.5 39.5t-39.5 33.5t-42.5 14zM1231 0l-76 319h-784l-207 -319h-178l913 1407h176l-2 -2
l328 -1405h-170zM469 471h651l-172 739z" />
    <glyph glyph-name="Adieresis" unicode="&#xc4;" horiz-adv-x="1607" 
d="M836 1571q-39 0 -62.5 25t-23.5 61q0 39 30.5 70.5t71.5 31.5q38 0 62 -25t24 -61q0 -39 -31.5 -70.5t-70.5 -31.5zM1229 1571q-39 0 -62.5 25t-23.5 61q0 39 30.5 70.5t71.5 31.5q38 0 62 -25t24 -61q0 -39 -31.5 -70.5t-70.5 -31.5zM1231 0l-76 319h-784l-207 -319
h-178l913 1407h176l-2 -2l328 -1405h-170zM469 471h651l-172 739z" />
    <glyph glyph-name="Aring" unicode="&#xc5;" horiz-adv-x="1607" 
d="M1018 1554q-76 0 -124 48.5t-48 121.5q0 100 80 176t180 76q76 0 123 -47t47 -119q0 -102 -79.5 -179t-178.5 -77zM1087 1886q-56 0 -102.5 -43.5t-46.5 -99.5q0 -42 28 -70t70 -28q56 0 102 44.5t46 100.5q0 42 -27 69t-70 27zM1231 0l-76 319h-784l-207 -319h-178
l913 1407h176l-2 -2l328 -1405h-170zM469 471h651l-172 739z" />
    <glyph glyph-name="AE" unicode="&#xc6;" horiz-adv-x="2015" 
d="M-16 0l1093 1407h1010l-31 -152h-850l-92 -462h762l-31 -152h-766l-98 -489h846l-33 -152h-1010l66 319h-426l-250 -319h-190zM543 471h340l123 588z" />
    <glyph glyph-name="Ccedilla" unicode="&#xc7;" horiz-adv-x="1441" 
d="M1028 1432q123 0 249.5 -61.5t203.5 -158.5l-125 -102q-57 77 -157.5 125.5t-201.5 48.5q-140 0 -269.5 -57.5t-223.5 -153.5t-150.5 -227t-56.5 -273q0 -120 62 -224t167.5 -165t227.5 -61q96 0 215.5 51t210.5 131l92 -119q-102 -85 -242.5 -142.5t-263.5 -66.5
l-45 -69h10q55 0 90 -32t35 -83q0 -82 -66.5 -134t-158.5 -52q-108 0 -176 61l49 78q43 -43 117 -43q63 0 98 23.5t35 64.5q0 26 -16.5 42.5t-41.5 16.5q-43 0 -80 -26l-30 39l71 117q-143 17 -262 100.5t-188.5 213.5t-69.5 279q0 171 72 330t192 274.5t284.5 185
t342.5 69.5z" />
    <glyph glyph-name="Egrave" unicode="&#xc8;" horiz-adv-x="1280" 
d="M946 1528h-115l-237 258l166 37zM1321 1255h-850l-92 -462h762l-31 -152h-766l-98 -489h846l-33 -152h-1010l293 1407h1010z" />
    <glyph glyph-name="Eacute" unicode="&#xc9;" horiz-adv-x="1280" 
d="M1290 1786l-344 -258h-123l310 295zM1321 1255h-850l-92 -462h762l-31 -152h-766l-98 -489h846l-33 -152h-1010l293 1407h1010z" />
    <glyph glyph-name="Ecircumflex" unicode="&#xca;" horiz-adv-x="1280" 
d="M924 1704l-199 -176h-121l264 280h144l149 -280h-114zM1321 1255h-850l-92 -462h762l-31 -152h-766l-98 -489h846l-33 -152h-1010l293 1407h1010z" />
    <glyph glyph-name="Edieresis" unicode="&#xcb;" horiz-adv-x="1280" 
d="M707 1571q-39 0 -62.5 25t-23.5 61q0 39 30.5 70.5t71.5 31.5q38 0 62 -25t24 -61q0 -39 -31.5 -70.5t-70.5 -31.5zM1100 1571q-39 0 -62.5 25t-23.5 61q0 39 30.5 70.5t71.5 31.5q38 0 62 -25t24 -61q0 -39 -31.5 -70.5t-70.5 -31.5zM1321 1255h-850l-92 -462h762
l-31 -152h-766l-98 -489h846l-33 -152h-1010l293 1407h1010z" />
    <glyph glyph-name="Igrave" unicode="&#xcc;" horiz-adv-x="479" 
d="M395 1528l-237 258l166 37l186 -295h-115zM49 0l293 1407h160l-293 -1407h-160z" />
    <glyph glyph-name="Iacute" unicode="&#xcd;" horiz-adv-x="479" 
d="M387 1528l309 295l158 -37l-344 -258h-123zM49 0l293 1407h160l-293 -1407h-160z" />
    <glyph glyph-name="Icircumflex" unicode="&#xce;" horiz-adv-x="479" 
d="M168 1528l264 280h143l150 -280h-115l-123 176l-198 -176h-121zM49 0l293 1407h160l-293 -1407h-160z" />
    <glyph glyph-name="Idieresis" unicode="&#xcf;" horiz-adv-x="479" 
d="M270 1571q-39 0 -62.5 25t-23.5 61q0 39 31 70.5t72 31.5q38 0 62 -25t24 -61q0 -39 -32 -70.5t-71 -31.5zM664 1571q-39 0 -62.5 25t-23.5 61q0 39 30.5 70.5t71.5 31.5q38 0 62 -25t24 -61q0 -39 -31.5 -70.5t-70.5 -31.5zM49 0l293 1407h160l-293 -1407h-160z" />
    <glyph glyph-name="Eth" unicode="&#xd0;" horiz-adv-x="1556" 
d="M860 1407q280 0 457.5 -156.5t177.5 -402.5q0 -170 -74 -326.5t-197.5 -271t-293 -182.5t-352.5 -68h-482l133 641h-104l31 152h106l127 614h471zM596 145q147 0 283 56t235.5 149.5t159 221.5t59.5 266q0 186 -138 305t-355 119h-320l-98 -469h448l-32 -152h-447
l-104 -496h309z" />
    <glyph glyph-name="Ntilde" unicode="&#xd1;" horiz-adv-x="1511" 
d="M1104 1526q-35 0 -65 14t-51 34t-39.5 39.5t-39.5 33.5t-43 14q-89 0 -141 -145l-92 26q81 238 235 238q35 0 65 -14t51 -34t39.5 -39.5t39.5 -33.5t43 -14q86 0 141 145l92 -27q-81 -237 -235 -237zM49 0l293 1407h158l635 -1145l239 1145h160l-293 -1407h-156
l-634 1145l-242 -1145h-160z" />
    <glyph glyph-name="Ograve" unicode="&#xd2;" horiz-adv-x="1669" 
d="M1014 1528l-238 258l166 37l186 -295h-114zM721 -25q-259 0 -421.5 164.5t-162.5 427.5q0 234 119 433t323 315.5t443 116.5q259 0 421.5 -164.5t162.5 -427.5q0 -234 -119 -433t-323 -315.5t-443 -116.5zM752 123q187 0 346.5 95.5t252.5 259.5t93 356
q0 199 -125.5 324.5t-325.5 125.5q-187 0 -347 -94.5t-253.5 -257t-93.5 -352.5q0 -203 126 -330t327 -127z" />
    <glyph glyph-name="Oacute" unicode="&#xd3;" horiz-adv-x="1669" 
d="M1006 1528l309 295l158 -37l-345 -258h-122zM721 -25q-259 0 -421.5 164.5t-162.5 427.5q0 234 119 433t323 315.5t443 116.5q259 0 421.5 -164.5t162.5 -427.5q0 -234 -119 -433t-323 -315.5t-443 -116.5zM752 123q187 0 346.5 95.5t252.5 259.5t93 356
q0 199 -125.5 324.5t-325.5 125.5q-187 0 -347 -94.5t-253.5 -257t-93.5 -352.5q0 -203 126 -330t327 -127z" />
    <glyph glyph-name="Ocircumflex" unicode="&#xd4;" horiz-adv-x="1669" 
d="M786 1528l265 280h143l149 -280h-114l-123 176l-199 -176h-121zM721 -25q-259 0 -421.5 164.5t-162.5 427.5q0 234 119 433t323 315.5t443 116.5q259 0 421.5 -164.5t162.5 -427.5q0 -234 -119 -433t-323 -315.5t-443 -116.5zM752 123q187 0 346.5 95.5t252.5 259.5
t93 356q0 199 -125.5 324.5t-325.5 125.5q-187 0 -347 -94.5t-253.5 -257t-93.5 -352.5q0 -203 126 -330t327 -127z" />
    <glyph glyph-name="Otilde" unicode="&#xd5;" horiz-adv-x="1669" 
d="M1208 1526q-35 0 -65 14t-50.5 34t-39.5 39.5t-39.5 33.5t-42.5 14q-90 0 -142 -145l-92 26q81 238 236 238q35 0 65 -14t50.5 -34t39.5 -39.5t39.5 -33.5t42.5 -14q87 0 142 145l92 -27q-81 -237 -236 -237zM721 -25q-259 0 -421.5 164.5t-162.5 427.5q0 234 119 433
t323 315.5t443 116.5q259 0 421.5 -164.5t162.5 -427.5q0 -234 -119 -433t-323 -315.5t-443 -116.5zM752 123q187 0 346.5 95.5t252.5 259.5t93 356q0 199 -125.5 324.5t-325.5 125.5q-187 0 -347 -94.5t-253.5 -257t-93.5 -352.5q0 -203 126 -330t327 -127z" />
    <glyph glyph-name="Odieresis" unicode="&#xd6;" horiz-adv-x="1669" 
d="M889 1571q-39 0 -62.5 25t-23.5 61q0 39 30.5 70.5t71.5 31.5q38 0 62 -25t24 -61q0 -39 -31.5 -70.5t-70.5 -31.5zM1282 1571q-39 0 -62.5 25t-23.5 61q0 39 30.5 70.5t71.5 31.5q38 0 62 -25t24 -61q0 -39 -31.5 -70.5t-70.5 -31.5zM721 -25q-259 0 -421.5 164.5
t-162.5 427.5q0 234 119 433t323 315.5t443 116.5q259 0 421.5 -164.5t162.5 -427.5q0 -234 -119 -433t-323 -315.5t-443 -116.5zM752 123q187 0 346.5 95.5t252.5 259.5t93 356q0 199 -125.5 324.5t-325.5 125.5q-187 0 -347 -94.5t-253.5 -257t-93.5 -352.5
q0 -203 126 -330t327 -127z" />
    <glyph glyph-name="multiply" unicode="&#xd7;" horiz-adv-x="1017" 
d="M985 963l-336 -279l221 -276l-127 -109l-221 279l-334 -279l-90 107l336 280l-221 277l127 108l223 -278l334 278z" />
    <glyph glyph-name="Oslash" unicode="&#xd8;" horiz-adv-x="1673" 
d="M1722 1407l-223 -205q109 -153 109 -362q0 -234 -119 -433t-323 -315.5t-443 -116.5t-397 142l-127 -117h-179l226 207q-107 154 -107 360q0 234 119 433t323 315.5t443 116.5q236 0 395 -140l125 115h178zM301 580q0 -144 68 -258l929 858q-123 104 -303 104
q-187 0 -347 -94.5t-253.5 -257t-93.5 -352.5zM1446 834q0 144 -70 253l-927 -858q122 -106 305 -106q187 0 346.5 95.5t252.5 259.5t93 356z" />
    <glyph glyph-name="Ugrave" unicode="&#xd9;" horiz-adv-x="1454" 
d="M879 1528l-238 258l166 37l186 -295h-114zM614 -25q-171 0 -289 78t-164 218.5t-9 318.5l170 817h159l-172 -829q-41 -201 52.5 -329t281.5 -128q189 0 336 131.5t188 337.5l170 817h160l-172 -829q-56 -265 -255 -434t-456 -169z" />
    <glyph glyph-name="Uacute" unicode="&#xda;" horiz-adv-x="1454" 
d="M870 1528l310 295l157 -37l-344 -258h-123zM614 -25q-171 0 -289 78t-164 218.5t-9 318.5l170 817h159l-172 -829q-41 -201 52.5 -329t281.5 -128q189 0 336 131.5t188 337.5l170 817h160l-172 -829q-56 -265 -255 -434t-456 -169z" />
    <glyph glyph-name="Ucircumflex" unicode="&#xdb;" horiz-adv-x="1454" 
d="M651 1528l264 280h144l149 -280h-114l-123 176l-199 -176h-121zM614 -25q-171 0 -289 78t-164 218.5t-9 318.5l170 817h159l-172 -829q-41 -201 52.5 -329t281.5 -128q189 0 336 131.5t188 337.5l170 817h160l-172 -829q-56 -265 -255 -434t-456 -169z" />
    <glyph glyph-name="Udieresis" unicode="&#xdc;" horiz-adv-x="1454" 
d="M754 1571q-39 0 -62.5 25t-23.5 61q0 39 30.5 70.5t71.5 31.5q38 0 62 -25t24 -61q0 -39 -31.5 -70.5t-70.5 -31.5zM1147 1571q-39 0 -62.5 25t-23.5 61q0 39 30.5 70.5t71.5 31.5q38 0 62 -25t24 -61q0 -39 -31.5 -70.5t-70.5 -31.5zM614 -25q-171 0 -289 78t-164 218.5
t-9 318.5l170 817h159l-172 -829q-41 -201 52.5 -329t281.5 -128q189 0 336 131.5t188 337.5l170 817h160l-172 -829q-56 -265 -255 -434t-456 -169z" />
    <glyph glyph-name="Yacute" unicode="&#xdd;" horiz-adv-x="1488" 
d="M874 1528l310 295l157 -37l-344 -258h-123zM549 0l123 573l-396 834h162l330 -696l612 696h197l-737 -834l-123 -573h-168z" />
    <glyph glyph-name="Thorn" unicode="&#xde;" horiz-adv-x="1357" 
d="M49 0l293 1407h164l-51 -248h401q193 0 315.5 -103t122.5 -268q0 -148 -86 -270.5t-226.5 -191t-301.5 -68.5h-416l-55 -258h-160zM295 410h377q193 0 328 104.5t135 265.5q0 108 -86.5 168t-239.5 60h-389z" />
    <glyph glyph-name="germandbls" unicode="&#xdf;" horiz-adv-x="1097" 
d="M8 0l228 1083q34 162 170.5 263.5t320.5 101.5q168 0 267.5 -84t99.5 -221q0 -128 -74 -231.5t-203 -170.5q90 -51 138.5 -124.5t48.5 -165.5q0 -125 -68.5 -229.5t-182.5 -163t-247 -58.5h-184l30 145h131q147 0 257 97.5t110 226.5q0 90 -66.5 143.5t-179.5 53.5h-143
l31 145h106q130 0 231 95t101 214q0 82 -57.5 132.5t-155.5 50.5q-119 0 -213 -74t-117 -185l-219 -1044h-160z" />
    <glyph glyph-name="agrave" unicode="&#xe0;" horiz-adv-x="1218" 
d="M811 1180h-115l-237 258l166 37zM1059 1059h153l-221 -1059h-153l41 195q-81 -103 -190 -161.5t-230 -58.5q-161 0 -279.5 125t-118.5 297q0 137 50.5 264t135 219.5t200.5 147.5t241 55q106 0 194 -68t130 -177zM487 113q155 0 281 106t172 270l16 84q7 44 7 78
q0 120 -90.5 207.5t-213.5 87.5q-117 0 -218 -73t-160.5 -197t-59.5 -268q0 -120 78.5 -207.5t187.5 -87.5z" />
    <glyph glyph-name="aacute" unicode="&#xe1;" horiz-adv-x="1218" 
d="M1155 1438l-344 -258h-123l309 295zM1059 1059h153l-221 -1059h-153l41 195q-81 -103 -190 -161.5t-230 -58.5q-161 0 -279.5 125t-118.5 297q0 137 50.5 264t135 219.5t200.5 147.5t241 55q106 0 194 -68t130 -177zM487 113q155 0 281 106t172 270l16 84q7 44 7 78
q0 120 -90.5 207.5t-213.5 87.5q-117 0 -218 -73t-160.5 -197t-59.5 -268q0 -120 78.5 -207.5t187.5 -87.5z" />
    <glyph glyph-name="acircumflex" unicode="&#xe2;" horiz-adv-x="1218" 
d="M788 1356l-198 -176h-121l264 280h144l149 -280h-115zM1059 1059h153l-221 -1059h-153l41 195q-81 -103 -190 -161.5t-230 -58.5q-161 0 -279.5 125t-118.5 297q0 137 50.5 264t135 219.5t200.5 147.5t241 55q106 0 194 -68t130 -177zM487 113q155 0 281 106t172 270
l16 84q7 44 7 78q0 120 -90.5 207.5t-213.5 87.5q-117 0 -218 -73t-160.5 -197t-59.5 -268q0 -120 78.5 -207.5t187.5 -87.5z" />
    <glyph glyph-name="atilde" unicode="&#xe3;" horiz-adv-x="1218" 
d="M653 1313q-89 0 -141 -146l-92 27q81 238 235 238q35 0 65 -14t51 -34t39.5 -40t39.5 -34t43 -14q86 0 141 146l92 -27q-81 -237 -235 -237q-35 0 -65 14t-51 34t-39.5 39.5t-39.5 33.5t-43 14zM1059 1059h153l-221 -1059h-153l41 195q-81 -103 -190 -161.5t-230 -58.5
q-161 0 -279.5 125t-118.5 297q0 137 50.5 264t135 219.5t200.5 147.5t241 55q106 0 194 -68t130 -177zM487 113q155 0 281 106t172 270l16 84q7 44 7 78q0 120 -90.5 207.5t-213.5 87.5q-117 0 -218 -73t-160.5 -197t-59.5 -268q0 -120 78.5 -207.5t187.5 -87.5z" />
    <glyph glyph-name="adieresis" unicode="&#xe4;" horiz-adv-x="1218" 
d="M571 1223q-39 0 -62.5 25t-23.5 61q0 39 31 70.5t72 31.5q38 0 62 -25t24 -61q0 -39 -32 -70.5t-71 -31.5zM965 1223q-39 0 -62.5 25t-23.5 61q0 39 30.5 70.5t71.5 31.5q38 0 62 -25t24 -61q0 -39 -31.5 -70.5t-70.5 -31.5zM1059 1059h153l-221 -1059h-153l41 195
q-81 -103 -190 -161.5t-230 -58.5q-161 0 -279.5 125t-118.5 297q0 137 50.5 264t135 219.5t200.5 147.5t241 55q106 0 194 -68t130 -177zM487 113q155 0 281 106t172 270l16 84q7 44 7 78q0 120 -90.5 207.5t-213.5 87.5q-117 0 -218 -73t-160.5 -197t-59.5 -268
q0 -120 78.5 -207.5t187.5 -87.5z" />
    <glyph glyph-name="aring" unicode="&#xe5;" horiz-adv-x="1218" 
d="M754 1206q-76 0 -124 48.5t-48 121.5q0 100 80 176t180 76q76 0 123 -47t47 -119q0 -102 -79.5 -179t-178.5 -77zM823 1538q-56 0 -102.5 -43.5t-46.5 -99.5q0 -42 28 -70.5t70 -28.5q56 0 102 45t46 101q0 42 -27 69t-70 27zM1059 1059h153l-221 -1059h-153l41 195
q-81 -103 -190 -161.5t-230 -58.5q-161 0 -279.5 125t-118.5 297q0 137 50.5 264t135 219.5t200.5 147.5t241 55q106 0 194 -68t130 -177zM487 113q155 0 281 106t172 270l16 84q7 44 7 78q0 120 -90.5 207.5t-213.5 87.5q-117 0 -218 -73t-160.5 -197t-59.5 -268
q0 -120 78.5 -207.5t187.5 -87.5z" />
    <glyph glyph-name="ae" unicode="&#xe6;" horiz-adv-x="1863" 
d="M1343 471h-372q-2 -14 -2 -41q0 -145 81.5 -231t221.5 -86q96 0 197 38t161 93l82 -109q-81 -72 -217 -116t-250 -44q-134 0 -236.5 64.5t-152.5 177.5q-86 -109 -217 -175.5t-270 -66.5q-195 0 -285.5 93t-58.5 258q20 100 91 178.5t171.5 120t212.5 41.5q166 0 342 -64
l10 49q10 46 11.5 86.5t-9 81t-35 69t-70.5 46.5t-110 18q-126 0 -334 -98l-47 129q221 100 395 100q144 0 231.5 -57t116.5 -160q93 100 215 158.5t250 58.5q101 0 186.5 -34.5t139 -102t53.5 -155.5q0 -142 -135 -231t-367 -89zM1454 946q-154 0 -277 -96t-176 -242h371
q154 0 238 45.5t84 128.5q0 75 -67.5 119.5t-172.5 44.5zM803 422l16 74q-137 41 -301 41q-123 0 -225 -66t-123 -164q-20 -93 41 -144.5t190 -51.5q136 0 256.5 93t145.5 218z" />
    <glyph glyph-name="ccedilla" unicode="&#xe7;" horiz-adv-x="1064" 
d="M733 1083q92 0 188 -44.5t156 -114.5l-121 -97q-37 52 -107 85.5t-144 33.5q-129 0 -240 -69.5t-176.5 -187t-65.5 -253.5q0 -132 91 -227.5t216 -95.5q162 0 304 133l92 -113q-177 -149 -394 -158l-43 -67h11q55 0 90 -32t35 -83q0 -82 -66.5 -134t-159.5 -52
q-108 0 -176 61l49 78q43 -43 117 -43q63 0 98 23.5t35 64.5q0 26 -16 42.5t-41 16.5q-43 0 -80 -26l-31 39l74 119q-155 29 -260 155.5t-105 288.5q0 131 54 252.5t144 210t214 141.5t258 53z" />
    <glyph glyph-name="egrave" unicode="&#xe8;" horiz-adv-x="1110" 
d="M805 1180h-115l-237 258l165 37zM590 471h-373q-2 -14 -2 -41q0 -145 81.5 -231t221.5 -86q96 0 197.5 38t161.5 93l81 -109q-81 -72 -216.5 -116t-249.5 -44q-189 0 -309 123t-120 320q0 129 55 252t144.5 213t208.5 145t242 55q101 0 186.5 -34.5t139 -102t53.5 -155.5
q0 -142 -135 -231t-367 -89zM700 946q-156 0 -277 -96t-175 -242h370q154 0 238 45.5t84 128.5q0 75 -67.5 119.5t-172.5 44.5z" />
    <glyph glyph-name="eacute" unicode="&#xe9;" horiz-adv-x="1110" 
d="M1149 1438l-344 -258h-123l309 295zM713 1083q101 0 186.5 -34.5t139 -102t53.5 -155.5q0 -142 -135 -231t-367 -89h-373q-2 -14 -2 -41q0 -145 81.5 -231t221.5 -86q96 0 197.5 38t161.5 93l81 -109q-81 -72 -216.5 -116t-249.5 -44q-189 0 -309 123t-120 320
q0 129 55 252t144.5 213t208.5 145t242 55zM618 608q154 0 238 45.5t84 128.5q0 75 -67.5 119.5t-172.5 44.5q-156 0 -277 -96t-175 -242h370z" />
    <glyph glyph-name="ecircumflex" unicode="&#xea;" horiz-adv-x="1110" 
d="M782 1356l-198 -176h-121l264 280h143l150 -280h-115zM590 471h-373q-2 -14 -2 -41q0 -145 81.5 -231t221.5 -86q96 0 197.5 38t161.5 93l81 -109q-81 -72 -216.5 -116t-249.5 -44q-189 0 -309 123t-120 320q0 129 55 252t144.5 213t208.5 145t242 55q101 0 186.5 -34.5
t139 -102t53.5 -155.5q0 -142 -135 -231t-367 -89zM700 946q-156 0 -277 -96t-175 -242h370q154 0 238 45.5t84 128.5q0 75 -67.5 119.5t-172.5 44.5z" />
    <glyph glyph-name="edieresis" unicode="&#xeb;" horiz-adv-x="1110" 
d="M565 1223q-39 0 -62.5 25t-23.5 61q0 39 31 70.5t72 31.5q38 0 62 -25t24 -61q0 -39 -32 -70.5t-71 -31.5zM958 1223q-39 0 -62.5 25t-23.5 61q0 39 31 70.5t72 31.5q38 0 62 -25t24 -61q0 -39 -32 -70.5t-71 -31.5zM590 471h-373q-2 -14 -2 -41q0 -145 81.5 -231
t221.5 -86q96 0 197.5 38t161.5 93l81 -109q-81 -72 -216.5 -116t-249.5 -44q-189 0 -309 123t-120 320q0 129 55 252t144.5 213t208.5 145t242 55q101 0 186.5 -34.5t139 -102t53.5 -155.5q0 -142 -135 -231t-367 -89zM700 946q-156 0 -277 -96t-175 -242h370
q154 0 238 45.5t84 128.5q0 75 -67.5 119.5t-172.5 44.5z" />
    <glyph glyph-name="igrave" unicode="&#xec;" horiz-adv-x="387" 
d="M279 1180l-238 258l166 37l186 -295h-114zM6 0l221 1059h154l-221 -1059h-154z" />
    <glyph glyph-name="iacute" unicode="&#xed;" horiz-adv-x="387" 
d="M270 1180l310 295l157 -37l-344 -258h-123zM6 0l221 1059h154l-221 -1059h-154z" />
    <glyph glyph-name="icircumflex" unicode="&#xee;" horiz-adv-x="387" 
d="M51 1180l264 280h144l149 -280h-114l-123 176l-199 -176h-121zM6 0l221 1059h154l-221 -1059h-154z" />
    <glyph glyph-name="idieresis" unicode="&#xef;" horiz-adv-x="387" 
d="M154 1223q-39 0 -62.5 25t-23.5 61q0 39 30.5 70.5t71.5 31.5q38 0 62 -25t24 -61q0 -39 -31.5 -70.5t-70.5 -31.5zM547 1223q-39 0 -62.5 25t-23.5 61q0 39 30.5 70.5t71.5 31.5q38 0 62 -25t24 -61q0 -39 -31.5 -70.5t-70.5 -31.5zM6 0l221 1059h154l-221 -1059h-154z
" />
    <glyph glyph-name="eth" unicode="&#xf0;" horiz-adv-x="1191" 
d="M895 1243q121 -136 180.5 -267t59.5 -276q0 -139 -49 -271t-132.5 -232.5t-204 -161t-255.5 -60.5q-198 0 -316.5 114.5t-118.5 303.5q0 121 46 236t123.5 201t187 138t229.5 52q198 0 318 -166q-49 168 -201 334l-277 -113l-30 127l209 86q-57 50 -144 119l160 55
l123 -116l225 92l31 -127zM502 115q121 0 227 68.5t167.5 181t61.5 237.5q0 126 -73.5 204.5t-206.5 78.5q-124 0 -230.5 -68t-167.5 -181t-61 -241t76 -204t207 -76z" />
    <glyph glyph-name="ntilde" unicode="&#xf1;" 
d="M664 1313q-90 0 -142 -146l-92 27q81 238 236 238q35 0 65 -14t50.5 -34t39.5 -40t39.5 -34t42.5 -14q86 0 141 146l93 -27q-81 -237 -236 -237q-35 0 -65 14t-50.5 34t-39.5 39.5t-39.5 33.5t-42.5 14zM721 1083q152 0 242 -87.5t90 -229.5q0 -15 -1 -30t-3.5 -32
t-8 -47.5t-12 -63t-19.5 -93t-26 -122t-35.5 -167t-44.5 -211.5h-153q20 94 39.5 188.5t31.5 152.5t24.5 116.5t19 90t13 64.5t9 48.5t5 32t3 26t0.5 20.5q0 96 -54 151.5t-147 55.5q-134 0 -249.5 -80t-143.5 -188l-141 -678h-154l221 1059h154l-33 -162q62 84 164 135
t209 51z" />
    <glyph glyph-name="ograve" unicode="&#xf2;" horiz-adv-x="1241" 
d="M696 1180l-237 258l166 37l186 -295h-115zM502 -25q-178 0 -308.5 134t-130.5 317q0 175 91 326.5t245 241t332 89.5q119 0 222 -61t164 -165t61 -224q0 -131 -54.5 -252.5t-145.5 -210.5t-216 -142t-260 -53zM530 113q130 0 242.5 69t179 186t66.5 253
q0 132 -93.5 228.5t-222.5 96.5q-128 0 -238.5 -69.5t-175.5 -187t-65 -253.5q0 -132 91 -227.5t216 -95.5z" />
    <glyph glyph-name="oacute" unicode="&#xf3;" horiz-adv-x="1241" 
d="M688 1180l309 295l158 -37l-344 -258h-123zM502 -25q-178 0 -308.5 134t-130.5 317q0 175 91 326.5t245 241t332 89.5q119 0 222 -61t164 -165t61 -224q0 -131 -54.5 -252.5t-145.5 -210.5t-216 -142t-260 -53zM530 113q130 0 242.5 69t179 186t66.5 253
q0 132 -93.5 228.5t-222.5 96.5q-128 0 -238.5 -69.5t-175.5 -187t-65 -253.5q0 -132 91 -227.5t216 -95.5z" />
    <glyph glyph-name="ocircumflex" unicode="&#xf4;" horiz-adv-x="1241" 
d="M469 1180l264 280h144l149 -280h-115l-123 176l-198 -176h-121zM502 -25q-178 0 -308.5 134t-130.5 317q0 175 91 326.5t245 241t332 89.5q119 0 222 -61t164 -165t61 -224q0 -131 -54.5 -252.5t-145.5 -210.5t-216 -142t-260 -53zM530 113q130 0 242.5 69t179 186
t66.5 253q0 132 -93.5 228.5t-222.5 96.5q-128 0 -238.5 -69.5t-175.5 -187t-65 -253.5q0 -132 91 -227.5t216 -95.5z" />
    <glyph glyph-name="otilde" unicode="&#xf5;" horiz-adv-x="1241" 
d="M891 1178q-35 0 -65 14t-51 34t-39.5 39.5t-39.5 33.5t-43 14q-89 0 -141 -146l-92 27q81 238 235 238q35 0 65 -14t51 -34t39.5 -40t39.5 -34t43 -14q86 0 141 146l92 -27q-81 -237 -235 -237zM502 -25q-178 0 -308.5 134t-130.5 317q0 175 91 326.5t245 241t332 89.5
q119 0 222 -61t164 -165t61 -224q0 -131 -54.5 -252.5t-145.5 -210.5t-216 -142t-260 -53zM530 113q130 0 242.5 69t179 186t66.5 253q0 132 -93.5 228.5t-222.5 96.5q-128 0 -238.5 -69.5t-175.5 -187t-65 -253.5q0 -132 91 -227.5t216 -95.5z" />
    <glyph glyph-name="odieresis" unicode="&#xf6;" horiz-adv-x="1241" 
d="M571 1223q-39 0 -62.5 25t-23.5 61q0 39 31 70.5t72 31.5q38 0 62 -25t24 -61q0 -39 -32 -70.5t-71 -31.5zM965 1223q-39 0 -62.5 25t-23.5 61q0 39 30.5 70.5t71.5 31.5q38 0 62 -25t24 -61q0 -39 -31.5 -70.5t-70.5 -31.5zM502 -25q-178 0 -308.5 134t-130.5 317
q0 175 91 326.5t245 241t332 89.5q119 0 222 -61t164 -165t61 -224q0 -131 -54.5 -252.5t-145.5 -210.5t-216 -142t-260 -53zM530 113q130 0 242.5 69t179 186t66.5 253q0 132 -93.5 228.5t-222.5 96.5q-128 0 -238.5 -69.5t-175.5 -187t-65 -253.5q0 -132 91 -227.5
t216 -95.5z" />
    <glyph glyph-name="divide" unicode="&#xf7;" horiz-adv-x="1198" 
d="M688 905q-45 0 -72.5 28.5t-27.5 70.5q0 53 37.5 87.5t85.5 34.5q42 0 70 -29t28 -69q0 -49 -38 -86t-83 -37zM141 608l33 152h940l-33 -152h-940zM551 242q-45 0 -72.5 28t-27.5 70q0 53 37 88t85 35q42 0 69.5 -28t27.5 -68q0 -49 -36.5 -87t-82.5 -38z" />
    <glyph glyph-name="oslash" unicode="&#xf8;" horiz-adv-x="1261" 
d="M1300 1059l-194 -182q74 -113 74 -244t-54.5 -252.5t-145.5 -210.5t-216 -142t-260 -53q-143 0 -258 91l-70 -66h-178l162 152q-94 124 -94 274q0 175 90.5 326.5t244.5 241t332 89.5q169 0 293 -114l96 90h178zM225 436q0 -98 51 -174l637 600q-91 84 -208 84
q-128 0 -238.5 -69.5t-176 -187t-65.5 -253.5zM1020 621q0 72 -33 143l-629 -592q78 -59 174 -59q130 0 242.5 69t179 186t66.5 253z" />
    <glyph glyph-name="ugrave" unicode="&#xf9;" 
d="M788 1184h-114l-238 258l166 37zM956 1059h154l-221 -1059h-154l33 162q-62 -84 -164 -135.5t-209 -51.5q-152 0 -242 87.5t-90 230.5q0 15 1 30t3.5 32t8 47.5t12 63t19.5 93t26 122t35.5 167t44.5 211.5h154q-20 -96 -39.5 -189t-32 -152t-24.5 -117t-19 -90.5
t-13.5 -64.5t-9 -48t-5 -32.5t-3 -26t-0.5 -20.5q0 -95 53.5 -150.5t147.5 -55.5q134 0 249.5 80t143.5 188z" />
    <glyph glyph-name="uacute" unicode="&#xfa;" 
d="M1133 1442l-345 -258h-122l309 295zM815 381l141 678h154l-221 -1059h-154l33 162q-62 -84 -164 -135.5t-209 -51.5q-152 0 -242 87.5t-90 230.5q0 15 1 30t3.5 32t8 47.5t12 63t19.5 93t26 122t35.5 167t44.5 211.5h154q-20 -96 -39.5 -189t-32 -152t-24.5 -117
t-19 -90.5t-13.5 -64.5t-9 -48t-5 -32.5t-3 -26t-0.5 -20.5q0 -95 53.5 -150.5t147.5 -55.5q134 0 249.5 80t143.5 188z" />
    <glyph glyph-name="ucircumflex" unicode="&#xfb;" 
d="M766 1360l-199 -176h-121l265 280h143l150 -280h-115zM956 1059h154l-221 -1059h-154l33 162q-62 -84 -164 -135.5t-209 -51.5q-152 0 -242 87.5t-90 230.5q0 15 1 30t3.5 32t8 47.5t12 63t19.5 93t26 122t35.5 167t44.5 211.5h154q-20 -96 -39.5 -189t-32 -152
t-24.5 -117t-19 -90.5t-13.5 -64.5t-9 -48t-5 -32.5t-3 -26t-0.5 -20.5q0 -95 53.5 -150.5t147.5 -55.5q134 0 249.5 80t143.5 188z" />
    <glyph glyph-name="udieresis" unicode="&#xfc;" 
d="M549 1227q-39 0 -62.5 25t-23.5 61q0 39 30.5 70.5t71.5 31.5q38 0 62 -25t24 -61q0 -39 -31.5 -70.5t-70.5 -31.5zM942 1227q-39 0 -62.5 25t-23.5 61q0 39 30.5 70.5t71.5 31.5q38 0 62 -25t24 -61q0 -39 -31.5 -70.5t-70.5 -31.5zM956 1059h154l-221 -1059h-154
l33 162q-62 -84 -164 -135.5t-209 -51.5q-152 0 -242 87.5t-90 230.5q0 15 1 30t3.5 32t8 47.5t12 63t19.5 93t26 122t35.5 167t44.5 211.5h154q-20 -96 -39.5 -189t-32 -152t-24.5 -117t-19 -90.5t-13.5 -64.5t-9 -48t-5 -32.5t-3 -26t-0.5 -20.5q0 -95 53.5 -150.5
t147.5 -55.5q134 0 249.5 80t143.5 188z" />
    <glyph glyph-name="yacute" unicode="&#xfd;" horiz-adv-x="1171" 
d="M670 1180l309 295l158 -37l-344 -258h-123zM131 -369q-94 0 -166 37l53 127q44 -24 113 -24q57 0 99 23t83 77l93 125l-238 1063h166l186 -881l535 881h170l-729 -1184q-81 -131 -169.5 -187.5t-195.5 -56.5z" />
    <glyph glyph-name="thorn" unicode="&#xfe;" horiz-adv-x="1226" 
d="M768 1083q161 0 279 -124.5t118 -294.5q0 -137 -50.5 -264.5t-134.5 -220.5t-200 -148.5t-241 -55.5q-107 0 -196.5 70t-129.5 182l-121 -579h-153l370 1784h154l-119 -572q81 105 191.5 164t232.5 59zM565 113q118 0 220 73t161.5 197t59.5 268q0 120 -79 207.5
t-188 87.5q-127 0 -236.5 -73t-174 -197t-64.5 -268q0 -120 89 -207.5t212 -87.5z" />
    <glyph glyph-name="ydieresis" unicode="&#xff;" horiz-adv-x="1171" 
d="M553 1223q-39 0 -62.5 25t-23.5 61q0 39 30.5 70.5t71.5 31.5q38 0 62 -25t24 -61q0 -39 -31.5 -70.5t-70.5 -31.5zM946 1223q-39 0 -62.5 25t-23.5 61q0 39 31 70.5t72 31.5q38 0 62 -25t24 -61q0 -39 -32 -70.5t-71 -31.5zM131 -369q-94 0 -166 37l53 127
q44 -24 113 -24q57 0 99 23t83 77l93 125l-238 1063h166l186 -881l535 881h170l-729 -1184q-81 -131 -169.5 -187.5t-195.5 -56.5z" />
    <glyph glyph-name="Amacron" unicode="&#x100;" horiz-adv-x="1607" 
d="M1366 1677l-23 -112h-634l22 112h635zM1231 0l-76 319h-784l-207 -319h-178l913 1407h176l-2 -2l328 -1405h-170zM469 471h651l-172 739z" />
    <glyph glyph-name="amacron" unicode="&#x101;" horiz-adv-x="1218" 
d="M1102 1329l-23 -112h-635l23 112h635zM1059 1059h153l-221 -1059h-153l41 195q-81 -103 -190 -161.5t-230 -58.5q-161 0 -279.5 125t-118.5 297q0 137 50.5 264t135 219.5t200.5 147.5t241 55q106 0 194 -68t130 -177zM487 113q155 0 281 106t172 270l16 84q7 44 7 78
q0 120 -90.5 207.5t-213.5 87.5q-117 0 -218 -73t-160.5 -197t-59.5 -268q0 -120 78.5 -207.5t187.5 -87.5z" />
    <glyph glyph-name="Abreve" unicode="&#x102;" horiz-adv-x="1607" 
d="M1028 1554q-172 0 -280 127l108 88q31 -39 79 -60t99 -21q116 0 228 90l84 -105q-142 -119 -318 -119zM1231 0l-76 319h-784l-207 -319h-178l913 1407h176l-2 -2l328 -1405h-170zM469 471h651l-172 739z" />
    <glyph glyph-name="abreve" unicode="&#x103;" horiz-adv-x="1218" 
d="M764 1206q-173 0 -281 127l109 88q32 -39 79.5 -60.5t98.5 -21.5q114 0 227 91l84 -105q-142 -119 -317 -119zM1059 1059h153l-221 -1059h-153l41 195q-81 -103 -190 -161.5t-230 -58.5q-161 0 -279.5 125t-118.5 297q0 137 50.5 264t135 219.5t200.5 147.5t241 55
q106 0 194 -68t130 -177zM487 113q155 0 281 106t172 270l16 84q7 44 7 78q0 120 -90.5 207.5t-213.5 87.5q-117 0 -218 -73t-160.5 -197t-59.5 -268q0 -120 78.5 -207.5t187.5 -87.5z" />
    <glyph glyph-name="Aogonek" unicode="&#x104;" horiz-adv-x="1607" 
d="M1446 -190l53 -109q-78 -55 -176 -55q-88 0 -140.5 46.5t-52.5 127.5q0 60 26.5 111t70.5 83l-72 305h-784l-207 -319h-178l913 1407h176l-2 -2l328 -1405q-67 0 -110.5 -44.5t-43.5 -113.5q0 -35 23.5 -55t64.5 -20q68 0 111 43zM469 471h651l-172 739z" />
    <glyph glyph-name="aogonek" unicode="&#x105;" horiz-adv-x="1218" 
d="M926 -233q67 0 110 43l54 -109q-78 -55 -177 -55q-88 0 -140 46.5t-52 127.5q0 69 34 126t89 85l35 164q-81 -103 -190 -161.5t-230 -58.5q-161 0 -279.5 125t-118.5 297q0 137 50.5 264t135 219.5t200.5 147.5t241 55q106 0 194 -68t130 -177l47 221h153l-221 -1059
q-67 0 -110 -44.5t-43 -113.5q0 -35 23.5 -55t64.5 -20zM487 113q155 0 281 106t172 270l16 84q7 44 7 78q0 120 -90.5 207.5t-213.5 87.5q-117 0 -218 -73t-160.5 -197t-59.5 -268q0 -120 78.5 -207.5t187.5 -87.5z" />
    <glyph glyph-name="Cacute" unicode="&#x106;" horiz-adv-x="1441" 
d="M981 1528l309 295l158 -37l-344 -258h-123zM725 -25q-157 0 -292.5 81t-215.5 219t-80 298q0 171 72 330t192 274.5t284.5 185t342.5 69.5q123 0 249.5 -61.5t203.5 -158.5l-125 -102q-57 77 -157.5 125.5t-201.5 48.5q-140 0 -269.5 -57.5t-223.5 -153.5t-150.5 -227
t-56.5 -273q0 -120 62 -224t167.5 -165t227.5 -61q96 0 215.5 51t210.5 131l92 -119q-113 -92 -266.5 -151.5t-280.5 -59.5z" />
    <glyph glyph-name="cacute" unicode="&#x107;" horiz-adv-x="1064" 
d="M670 1180l309 295l158 -37l-344 -258h-123zM504 -25q-118 0 -220 61.5t-161.5 165.5t-59.5 224q0 131 54 252.5t144 210t214 141.5t258 53q92 0 188 -44.5t156 -114.5l-121 -97q-37 52 -107 85.5t-144 33.5q-129 0 -240 -69.5t-176.5 -187t-65.5 -253.5q0 -132 91 -227.5
t216 -95.5q162 0 304 133l92 -113q-189 -158 -422 -158z" />
    <glyph glyph-name="Ccaron" unicode="&#x10c;" horiz-adv-x="1441" 
d="M971 1528l-146 280h113l121 -176l201 176h122l-268 -280h-143zM725 -25q-157 0 -292.5 81t-215.5 219t-80 298q0 171 72 330t192 274.5t284.5 185t342.5 69.5q123 0 249.5 -61.5t203.5 -158.5l-125 -102q-57 77 -157.5 125.5t-201.5 48.5q-140 0 -269.5 -57.5
t-223.5 -153.5t-150.5 -227t-56.5 -273q0 -120 62 -224t167.5 -165t227.5 -61q96 0 215.5 51t210.5 131l92 -119q-113 -92 -266.5 -151.5t-280.5 -59.5z" />
    <glyph glyph-name="ccaron" unicode="&#x10d;" horiz-adv-x="1064" 
d="M659 1180l-145 280h113l121 -176l200 176h123l-268 -280h-144zM504 -25q-118 0 -220 61.5t-161.5 165.5t-59.5 224q0 131 54 252.5t144 210t214 141.5t258 53q92 0 188 -44.5t156 -114.5l-121 -97q-37 52 -107 85.5t-144 33.5q-129 0 -240 -69.5t-176.5 -187
t-65.5 -253.5q0 -132 91 -227.5t216 -95.5q162 0 304 133l92 -113q-189 -158 -422 -158z" />
    <glyph glyph-name="Dcaron" unicode="&#x10e;" horiz-adv-x="1509" 
d="M768 1528l-145 280h112l121 -176l201 176h123l-269 -280h-143zM49 0l293 1407h471q280 0 457.5 -156.5t177.5 -402.5q0 -170 -74 -326.5t-197.5 -271t-293.5 -182.5t-353 -68h-481zM240 145h309q147 0 283 56t235.5 149.5t159 221.5t59.5 266q0 186 -138 305t-355 119
h-320z" />
    <glyph glyph-name="dcaron" unicode="&#x10f;" horiz-adv-x="1513" 
d="M1014 836l123 596h153l-297 -1432h-153l41 197q-81 -103 -191 -162.5t-231 -59.5q-161 0 -279.5 125t-118.5 297q0 137 50.5 264t135 219.5t200.5 147.5t241 55q106 0 195 -69t131 -178zM1573 1432q43 0 66.5 -29t23.5 -78q0 -38 -11 -72t-41 -74t-54.5 -66.5
t-77.5 -80.5l-62 55q87 81 131 164q-33 -4 -55.5 19t-22.5 59q0 39 31 71t72 32zM487 113q161 0 289 113.5t170 285.5l8 39q9 50 9 100q0 120 -90.5 207.5t-213.5 87.5q-117 0 -218 -73t-160.5 -197t-59.5 -268q0 -120 78.5 -207.5t187.5 -87.5z" />
    <glyph glyph-name="Dcroat" unicode="&#x110;" horiz-adv-x="1556" 
d="M860 1407q280 0 457.5 -156.5t177.5 -402.5q0 -170 -74 -326.5t-197.5 -271t-293 -182.5t-352.5 -68h-482l133 641h-104l31 152h106l127 614h471zM596 145q147 0 283 56t235.5 149.5t159 221.5t59.5 266q0 186 -138 305t-355 119h-320l-98 -469h448l-32 -152h-447
l-104 -496h309z" />
    <glyph glyph-name="dcroat" unicode="&#x111;" horiz-adv-x="1224" 
d="M1430 1300l-23 -102h-166l-248 -1198h-153l41 197q-81 -103 -191 -162.5t-231 -59.5q-161 0 -279.5 125t-118.5 297q0 137 50.5 264t135 219.5t200.5 147.5t241 55q106 0 195 -69t131 -178l73 362h-315l23 102h315l27 132h153l-26 -132h166zM487 113q161 0 289 113.5
t170 285.5l8 39q9 50 9 100q0 120 -90.5 207.5t-213.5 87.5q-117 0 -218 -73t-160.5 -197t-59.5 -268q0 -120 78.5 -207.5t187.5 -87.5z" />
    <glyph glyph-name="Emacron" unicode="&#x112;" horiz-adv-x="1280" 
d="M1237 1677l-23 -112h-634l22 112h635zM1321 1255h-850l-92 -462h762l-31 -152h-766l-98 -489h846l-33 -152h-1010l293 1407h1010z" />
    <glyph glyph-name="emacron" unicode="&#x113;" horiz-adv-x="1110" 
d="M1096 1329l-23 -112h-635l23 112h635zM713 1083q101 0 186.5 -34.5t139 -102t53.5 -155.5q0 -142 -135 -231t-367 -89h-373q-2 -14 -2 -41q0 -145 81.5 -231t221.5 -86q96 0 197.5 38t161.5 93l81 -109q-81 -72 -216.5 -116t-249.5 -44q-189 0 -309 123t-120 320
q0 129 55 252t144.5 213t208.5 145t242 55zM618 608q154 0 238 45.5t84 128.5q0 75 -67.5 119.5t-172.5 44.5q-156 0 -277 -96t-175 -242h370z" />
    <glyph glyph-name="Edotaccent" unicode="&#x116;" horiz-adv-x="1280" 
d="M903 1571q-39 0 -62.5 25t-23.5 61q0 39 31 70.5t72 31.5q38 0 62 -25t24 -61q0 -39 -32 -70.5t-71 -31.5zM1321 1255h-850l-92 -462h762l-31 -152h-766l-98 -489h846l-33 -152h-1010l293 1407h1010z" />
    <glyph glyph-name="edotaccent" unicode="&#x117;" horiz-adv-x="1110" 
d="M762 1223q-39 0 -62.5 25t-23.5 61q0 39 30.5 70.5t71.5 31.5q38 0 62 -25t24 -61q0 -39 -31.5 -70.5t-70.5 -31.5zM590 471h-373q-2 -14 -2 -41q0 -145 81.5 -231t221.5 -86q96 0 197.5 38t161.5 93l81 -109q-81 -72 -216.5 -116t-249.5 -44q-189 0 -309 123t-120 320
q0 129 55 252t144.5 213t208.5 145t242 55q101 0 186.5 -34.5t139 -102t53.5 -155.5q0 -142 -135 -231t-367 -89zM700 946q-156 0 -277 -96t-175 -242h370q154 0 238 45.5t84 128.5q0 75 -67.5 119.5t-172.5 44.5z" />
    <glyph glyph-name="Eogonek" unicode="&#x118;" horiz-adv-x="1280" 
d="M1321 1255h-850l-92 -462h762l-31 -152h-766l-98 -489h846l-33 -152q-67 0 -110.5 -44.5t-43.5 -113.5q0 -35 23.5 -55t64.5 -20q68 0 111 43l53 -109q-78 -55 -176 -55q-88 0 -140.5 46.5t-52.5 127.5q0 109 78 180h-817l293 1407h1010z" />
    <glyph glyph-name="eogonek" unicode="&#x119;" horiz-adv-x="1110" 
d="M590 471h-373q-2 -14 -2 -41q0 -145 81.5 -231t221.5 -86q96 0 197.5 38t161.5 93l81 -109q-81 -72 -216.5 -116t-249.5 -44q-68 0 -111 -44t-43 -113q0 -35 23.5 -55.5t64.5 -20.5q68 0 111 43l53 -109q-78 -55 -176 -55q-88 0 -140.5 46.5t-52.5 127.5q0 66 31 120.5
t82 86.5q-125 43 -198 153.5t-73 262.5q0 129 55 252t144.5 213t208.5 145t242 55q101 0 186.5 -34.5t139 -102t53.5 -155.5q0 -142 -135 -231t-367 -89zM700 946q-156 0 -277 -96t-175 -242h370q154 0 238 45.5t84 128.5q0 75 -67.5 119.5t-172.5 44.5z" />
    <glyph glyph-name="Ecaron" unicode="&#x11a;" horiz-adv-x="1280" 
d="M956 1528h-143l-145 280h112l121 -176l201 176h123zM1321 1255h-850l-92 -462h762l-31 -152h-766l-98 -489h846l-33 -152h-1010l293 1407h1010z" />
    <glyph glyph-name="ecaron" unicode="&#x11b;" horiz-adv-x="1110" 
d="M815 1180h-143l-146 280h113l121 -176l201 176h122zM590 471h-373q-2 -14 -2 -41q0 -145 81.5 -231t221.5 -86q96 0 197.5 38t161.5 93l81 -109q-81 -72 -216.5 -116t-249.5 -44q-189 0 -309 123t-120 320q0 129 55 252t144.5 213t208.5 145t242 55q101 0 186.5 -34.5
t139 -102t53.5 -155.5q0 -142 -135 -231t-367 -89zM700 946q-156 0 -277 -96t-175 -242h370q154 0 238 45.5t84 128.5q0 75 -67.5 119.5t-172.5 44.5z" />
    <glyph glyph-name="Gbreve" unicode="&#x11e;" horiz-adv-x="1486" 
d="M1051 1554q-173 0 -281 127l109 88q31 -39 79 -60t99 -21q115 0 227 90l84 -105q-142 -119 -317 -119zM811 586l33 151h563l-115 -551q-113 -92 -272 -151.5t-295 -59.5q-157 0 -292.5 81t-215.5 219t-80 298q0 171 72 330t192 274.5t284.5 185t342.5 69.5
q132 0 264 -61.5t209 -158.5l-125 -102q-57 77 -163 125.5t-216 48.5q-140 0 -269.5 -57.5t-223.5 -153.5t-150.5 -227t-56.5 -273q0 -120 62 -224t167.5 -165t227.5 -61q91 0 198 38.5t197 102.5l65 322h-403z" />
    <glyph glyph-name="gbreve" unicode="&#x11f;" horiz-adv-x="1216" 
d="M768 1206q-173 0 -281 127l109 88q32 -39 79.5 -60.5t98.5 -21.5q114 0 227 91l84 -105q-142 -119 -317 -119zM1057 1059h153l-198 -953q-44 -209 -213 -333.5t-393 -124.5q-127 0 -234 40.5t-170 104.5l84 113q102 -121 315 -121q179 0 304 89.5t157 244.5l33 155
q-171 -196 -420 -196q-183 0 -292 108.5t-109 292.5q0 116 46.5 226t124.5 193.5t188 134t231 50.5q133 0 222.5 -58.5t131.5 -158.5zM514 215q155 0 277.5 101t162.5 247l11 49q4 40 4 60q0 127 -75 200.5t-204 73.5q-121 0 -226.5 -63.5t-166.5 -168.5t-61 -222
q0 -128 74 -202.5t204 -74.5z" />
    <glyph glyph-name="uni0122" unicode="&#x122;" horiz-adv-x="1486" 
d="M811 586l33 151h563l-115 -551q-113 -92 -272 -151.5t-295 -59.5q-157 0 -292.5 81t-215.5 219t-80 298q0 171 72 330t192 274.5t284.5 185t342.5 69.5q132 0 264 -61.5t209 -158.5l-125 -102q-57 77 -163 125.5t-216 48.5q-140 0 -269.5 -57.5t-223.5 -153.5
t-150.5 -227t-56.5 -273q0 -120 62 -224t167.5 -165t227.5 -61q91 0 198 38.5t197 102.5l65 322h-403zM678 -168q43 0 66.5 -29t23.5 -77q0 -38 -11 -72t-41 -74t-54.5 -66.5t-77.5 -80.5l-62 55q87 81 131 164q-33 -4 -55.5 19t-22.5 59q0 39 31 70.5t72 31.5z" />
    <glyph glyph-name="uni0123" unicode="&#x123;" horiz-adv-x="1216" 
d="M772 1227q-43 0 -66.5 29t-23.5 77q0 38 11 72t41 74t54.5 66.5t77.5 80.5l62 -55q-87 -81 -131 -164q33 4 55 -19t22 -59q0 -39 -30.5 -70.5t-71.5 -31.5zM1057 1059h153l-198 -953q-44 -209 -213 -333.5t-393 -124.5q-127 0 -234 40.5t-170 104.5l84 113
q102 -121 315 -121q179 0 304 89.5t157 244.5l33 155q-171 -196 -420 -196q-183 0 -292 108.5t-109 292.5q0 116 46.5 226t124.5 193.5t188 134t231 50.5q133 0 222.5 -58.5t131.5 -158.5zM514 215q155 0 277.5 101t162.5 247l11 49q4 40 4 60q0 127 -75 200.5t-204 73.5
q-121 0 -226.5 -63.5t-166.5 -168.5t-61 -222q0 -128 74 -202.5t204 -74.5z" />
    <glyph glyph-name="Imacron" unicode="&#x12a;" horiz-adv-x="479" 
d="M143 1565l23 112h635l-23 -112h-635zM49 0l293 1407h160l-293 -1407h-160z" />
    <glyph glyph-name="imacron" unicode="&#x12b;" horiz-adv-x="387" 
d="M27 1217l22 112h635l-22 -112h-635zM6 0l221 1059h154l-221 -1059h-154z" />
    <glyph glyph-name="Iogonek" unicode="&#x12e;" horiz-adv-x="479" 
d="M143 -233q68 0 111 43l53 -109q-78 -55 -176 -55q-88 0 -140 46.5t-52 127.5q0 66 32 121.5t84 87.5l287 1378h160l-293 -1407q-67 0 -110.5 -44.5t-43.5 -113.5q0 -35 23.5 -55t64.5 -20z" />
    <glyph glyph-name="iogonek" unicode="&#x12f;" horiz-adv-x="387" 
d="M367 1411q38 0 62 -25t24 -61q0 -39 -32 -70.5t-71 -31.5t-62.5 25t-23.5 61q0 39 31 70.5t72 31.5zM160 0q-67 0 -110.5 -44.5t-43.5 -113.5q0 -35 23.5 -55t64.5 -20q68 0 111 43l53 -109q-78 -55 -176 -55q-88 0 -140.5 46.5t-52.5 127.5q0 69 34 126t89 85l215 1028
h154z" />
    <glyph glyph-name="Idotaccent" unicode="&#x130;" horiz-adv-x="479" 
d="M467 1571q-39 0 -62.5 25t-23.5 61q0 39 30.5 70.5t71.5 31.5q38 0 62 -25t24 -61q0 -39 -31.5 -70.5t-70.5 -31.5zM49 0l293 1407h160l-293 -1407h-160z" />
    <glyph glyph-name="dotlessi" unicode="&#x131;" horiz-adv-x="387" 
d="M6 0l221 1059h154l-221 -1059h-154z" />
    <glyph glyph-name="uni0136" unicode="&#x136;" horiz-adv-x="1374" 
d="M49 0l293 1407h160l-164 -778l874 778h215l-727 -643l469 -764h-200l-398 655l-272 -233l-90 -422h-160zM432 -567l-61 55q87 81 131 164q-33 -4 -55.5 19t-22.5 59q0 39 30.5 70.5t71.5 31.5q43 0 66.5 -29t23.5 -77q0 -38 -11 -72t-41 -74t-54.5 -66.5t-77.5 -80.5z
" />
    <glyph glyph-name="uni0137" unicode="&#x137;" horiz-adv-x="1103" 
d="M10 0l297 1432h154l-197 -953l692 580h201l-579 -486l327 -573h-186l-268 469l-228 -186l-59 -283h-154zM270 -567l-61 55q87 81 131 164q-33 -4 -55.5 19t-22.5 59q0 39 31 70.5t72 31.5q43 0 66.5 -29t23.5 -77q0 -31 -10 -61.5t-22 -53.5t-41.5 -58t-48.5 -55t-63 -65
z" />
    <glyph glyph-name="Lacute" unicode="&#x139;" horiz-adv-x="1187" 
d="M854 1786l-344 -258h-123l309 295zM244 152h766l-33 -152h-928l293 1407h160z" />
    <glyph glyph-name="lacute" unicode="&#x13a;" horiz-adv-x="395" 
d="M348 1552l309 295l158 -37l-344 -258h-123zM10 0l297 1432h154l-297 -1432h-154z" />
    <glyph glyph-name="Lcaron" unicode="&#x13d;" horiz-adv-x="1187" 
d="M825 1325q0 -38 -11 -72t-41 -74t-54.5 -66.5t-77.5 -80.5l-61 55q87 81 131 164q-33 -4 -55.5 19t-22.5 59q0 39 30.5 71t71.5 32q43 0 66.5 -29t23.5 -78zM244 152h766l-33 -152h-928l293 1407h160z" />
    <glyph glyph-name="lcaron" unicode="&#x13e;" horiz-adv-x="612" 
d="M10 0l297 1432h154l-297 -1432h-154zM582 1032l-62 55q87 81 131 164q-33 -4 -55.5 19t-22.5 59q0 39 31 71t72 32q43 0 66.5 -29t23.5 -78q0 -38 -11 -72t-41 -74t-54.5 -66.5t-77.5 -80.5z" />
    <glyph glyph-name="Lslash" unicode="&#x141;" horiz-adv-x="1308" 
d="M365 152h765l-32 -152h-928l119 569l-195 -90l29 154l199 92l141 682h160l-123 -598l301 139l-29 -153l-305 -142z" />
    <glyph glyph-name="lslash" unicode="&#x142;" horiz-adv-x="608" 
d="M614 879l-28 -154l-172 -80l-133 -645h-154l117 565l-187 -86l29 154l190 88l148 711h154l-132 -631z" />
    <glyph glyph-name="Nacute" unicode="&#x143;" horiz-adv-x="1511" 
d="M901 1528l309 295l158 -37l-344 -258h-123zM49 0l293 1407h158l635 -1145l239 1145h160l-293 -1407h-156l-634 1145l-242 -1145h-160z" />
    <glyph glyph-name="nacute" unicode="&#x144;" 
d="M1165 1438l-344 -258h-123l310 295zM721 1083q152 0 242 -87.5t90 -229.5q0 -15 -1 -30t-3.5 -32t-8 -47.5t-12 -63t-19.5 -93t-26 -122t-35.5 -167t-44.5 -211.5h-153q20 94 39.5 188.5t31.5 152.5t24.5 116.5t19 90t13 64.5t9 48.5t5 32t3 26t0.5 20.5q0 96 -54 151.5
t-147 55.5q-134 0 -249.5 -80t-143.5 -188l-141 -678h-154l221 1059h154l-33 -162q62 84 164 135t209 51z" />
    <glyph glyph-name="uni0145" unicode="&#x145;" horiz-adv-x="1511" 
d="M49 0l293 1407h158l635 -1145l239 1145h160l-293 -1407h-156l-634 1145l-242 -1145h-160zM506 -567l-62 55q87 81 131 164q-33 -4 -55 19t-22 59q0 39 30.5 70.5t71.5 31.5q43 0 66.5 -29t23.5 -77q0 -38 -11 -72t-41 -74t-54.5 -66.5t-77.5 -80.5z" />
    <glyph glyph-name="uni0146" unicode="&#x146;" 
d="M721 1083q152 0 242 -87.5t90 -229.5q0 -15 -1 -30t-3.5 -32t-8 -47.5t-12 -63t-19.5 -93t-26 -122t-35.5 -167t-44.5 -211.5h-153q20 94 39.5 188.5t31.5 152.5t24.5 116.5t19 90t13 64.5t9 48.5t5 32t3 26t0.5 20.5q0 96 -54 151.5t-147 55.5q-134 0 -249.5 -80
t-143.5 -188l-141 -678h-154l221 1059h154l-33 -162q62 84 164 135t209 51zM420 -168q43 0 66.5 -29t23.5 -77q0 -38 -11 -72t-41 -74t-54.5 -66.5t-77.5 -80.5l-62 55q87 81 131 164q-33 -4 -55.5 19t-22.5 59q0 39 31 70.5t72 31.5z" />
    <glyph glyph-name="Ncaron" unicode="&#x147;" horiz-adv-x="1511" 
d="M891 1528l-146 280h113l121 -176l201 176h123l-269 -280h-143zM49 0l293 1407h158l635 -1145l239 1145h160l-293 -1407h-156l-634 1145l-242 -1145h-160z" />
    <glyph glyph-name="ncaron" unicode="&#x148;" 
d="M831 1180h-143l-145 280h112l121 -176l201 176h123zM721 1083q152 0 242 -87.5t90 -229.5q0 -15 -1 -30t-3.5 -32t-8 -47.5t-12 -63t-19.5 -93t-26 -122t-35.5 -167t-44.5 -211.5h-153q20 94 39.5 188.5t31.5 152.5t24.5 116.5t19 90t13 64.5t9 48.5t5 32t3 26t0.5 20.5
q0 96 -54 151.5t-147 55.5q-134 0 -249.5 -80t-143.5 -188l-141 -678h-154l221 1059h154l-33 -162q62 84 164 135t209 51z" />
    <glyph glyph-name="Omacron" unicode="&#x14c;" horiz-adv-x="1669" 
d="M762 1565l22 112h635l-22 -112h-635zM721 -25q-259 0 -421.5 164.5t-162.5 427.5q0 234 119 433t323 315.5t443 116.5q259 0 421.5 -164.5t162.5 -427.5q0 -234 -119 -433t-323 -315.5t-443 -116.5zM752 123q187 0 346.5 95.5t252.5 259.5t93 356q0 199 -125.5 324.5
t-325.5 125.5q-187 0 -347 -94.5t-253.5 -257t-93.5 -352.5q0 -203 126 -330t327 -127z" />
    <glyph glyph-name="omacron" unicode="&#x14d;" horiz-adv-x="1241" 
d="M444 1217l23 112h635l-23 -112h-635zM502 -25q-178 0 -308.5 134t-130.5 317q0 175 91 326.5t245 241t332 89.5q119 0 222 -61t164 -165t61 -224q0 -131 -54.5 -252.5t-145.5 -210.5t-216 -142t-260 -53zM530 113q130 0 242.5 69t179 186t66.5 253q0 132 -93.5 228.5
t-222.5 96.5q-128 0 -238.5 -69.5t-175.5 -187t-65 -253.5q0 -132 91 -227.5t216 -95.5z" />
    <glyph glyph-name="Ohungarumlaut" unicode="&#x150;" horiz-adv-x="1669" 
d="M809 1528l309 295l158 -37l-344 -258h-123zM1219 1528l309 291l158 -37l-345 -254h-122zM721 -25q-259 0 -421.5 164.5t-162.5 427.5q0 234 119 433t323 315.5t443 116.5q259 0 421.5 -164.5t162.5 -427.5q0 -234 -119 -433t-323 -315.5t-443 -116.5zM752 123
q187 0 346.5 95.5t252.5 259.5t93 356q0 199 -125.5 324.5t-325.5 125.5q-187 0 -347 -94.5t-253.5 -257t-93.5 -352.5q0 -203 126 -330t327 -127z" />
    <glyph glyph-name="ohungarumlaut" unicode="&#x151;" horiz-adv-x="1241" 
d="M492 1180l309 295l157 -37l-344 -258h-122zM901 1180l309 290l158 -36l-344 -254h-123zM502 -25q-178 0 -308.5 134t-130.5 317q0 175 91 326.5t245 241t332 89.5q119 0 222 -61t164 -165t61 -224q0 -131 -54.5 -252.5t-145.5 -210.5t-216 -142t-260 -53zM530 113
q130 0 242.5 69t179 186t66.5 253q0 132 -93.5 228.5t-222.5 96.5q-128 0 -238.5 -69.5t-175.5 -187t-65 -253.5q0 -132 91 -227.5t216 -95.5z" />
    <glyph glyph-name="OE" unicode="&#x152;" horiz-adv-x="2115" 
d="M131 555q0 162 76.5 319.5t199 273.5t283 187.5t320.5 71.5h1177l-30 -152h-850l-93 -462h762l-30 -152h-766l-99 -489h846l-33 -152h-1167q-258 0 -427 155.5t-169 399.5zM291 559q0 -184 128.5 -298t328.5 -114h167l232 1113h-158q-128 0 -256 -61t-224.5 -158
t-157 -225.5t-60.5 -256.5z" />
    <glyph glyph-name="oe" unicode="&#x153;" horiz-adv-x="2050" 
d="M1530 471h-373q-2 -14 -2 -41q0 -145 81.5 -231t221.5 -86q96 0 197.5 38t161.5 93l81 -109q-81 -72 -216.5 -116t-249.5 -44q-139 0 -244.5 70t-151.5 191q-96 -121 -236 -191t-298 -70q-178 0 -308.5 134t-130.5 317q0 175 91 326.5t245 241t332 89.5q133 0 245 -76
t165 -198q94 126 230 200t282 74q101 0 186.5 -34.5t139 -102t53.5 -155.5q0 -142 -135 -231t-367 -89zM530 113q130 0 242.5 69t179 186t66.5 253q0 132 -93.5 228.5t-222.5 96.5q-128 0 -238.5 -69.5t-175.5 -187t-65 -253.5q0 -132 91 -227.5t216 -95.5zM1640 946
q-156 0 -277 -96t-175 -242h371q154 0 237.5 45.5t83.5 128.5q0 75 -67.5 119.5t-172.5 44.5z" />
    <glyph glyph-name="Racute" unicode="&#x154;" horiz-adv-x="1384" 
d="M1307 1786l-344 -258h-123l309 295zM1343 1024q0 -178 -138.5 -320t-346.5 -184l316 -520h-177l-309 506h-373l-106 -506h-160l293 1407h563q192 0 315 -107t123 -276zM750 657q178 0 307 108t129 257q0 103 -88 168t-226 65h-401l-125 -598h404z" />
    <glyph glyph-name="racute" unicode="&#x155;" horiz-adv-x="745" 
d="M961 1438l-345 -258h-122l309 295zM340 862q70 103 187.5 162t260.5 59l-18 -137q-168 0 -301.5 -89.5t-177.5 -231.5l-131 -625h-154l221 1059h154z" />
    <glyph glyph-name="uni0156" unicode="&#x156;" horiz-adv-x="1384" 
d="M1343 1024q0 -178 -138.5 -320t-346.5 -184l316 -520h-177l-309 506h-373l-106 -506h-160l293 1407h563q192 0 315 -107t123 -276zM750 657q178 0 307 108t129 257q0 103 -88 168t-226 65h-401l-125 -598h404zM543 -168q43 0 66.5 -29t23.5 -77q0 -38 -11 -72t-41 -74
t-54.5 -66.5t-77.5 -80.5l-62 55q87 81 131 164q-33 -4 -55.5 19t-22.5 59q0 39 31 70.5t72 31.5z" />
    <glyph glyph-name="uni0157" unicode="&#x157;" horiz-adv-x="745" 
d="M340 862q70 103 187.5 162t260.5 59l-18 -137q-168 0 -301.5 -89.5t-177.5 -231.5l-131 -625h-154l221 1059h154zM262 -168q43 0 66.5 -29t23.5 -77q0 -38 -11 -72t-41 -74t-54.5 -66.5t-77.5 -80.5l-62 55q89 83 132 164q-33 -4 -55.5 19t-22.5 59q0 39 30.5 70.5
t71.5 31.5z" />
    <glyph glyph-name="Rcaron" unicode="&#x158;" horiz-adv-x="1384" 
d="M973 1528h-144l-145 280h113l121 -176l200 176h123zM1343 1024q0 -178 -138.5 -320t-346.5 -184l316 -520h-177l-309 506h-373l-106 -506h-160l293 1407h563q192 0 315 -107t123 -276zM750 657q178 0 307 108t129 257q0 103 -88 168t-226 65h-401l-125 -598h404z" />
    <glyph glyph-name="rcaron" unicode="&#x159;" horiz-adv-x="745" 
d="M627 1180h-144l-145 280h113l120 -176l201 176h123zM340 862q70 103 187.5 162t260.5 59l-18 -137q-168 0 -301.5 -89.5t-177.5 -231.5l-131 -625h-154l221 1059h154z" />
    <glyph glyph-name="Sacute" unicode="&#x15a;" horiz-adv-x="1257" 
d="M782 1528l310 295l157 -37l-344 -258h-123zM549 -23q-146 0 -290 64t-228 164l119 117q69 -88 184 -143.5t227 -55.5q175 0 286 84.5t111 216.5q0 71 -73.5 120.5t-243.5 92.5q-214 51 -305.5 124.5t-91.5 194.5q0 210 154 344t397 134q121 0 248.5 -57t209.5 -148
l-116 -117q-63 77 -164 126.5t-195 49.5q-163 0 -266.5 -82t-103.5 -211q0 -67 74.5 -115t246.5 -92q212 -51 303.5 -128t91.5 -205q0 -210 -161 -344t-414 -134z" />
    <glyph glyph-name="sacute" unicode="&#x15b;" horiz-adv-x="950" 
d="M563 1180l309 295l158 -37l-344 -258h-123zM391 -25q-114 0 -223 42.5t-191 119.5l97 105q70 -61 155.5 -95t167.5 -34q116 0 200.5 60.5t84.5 143.5q0 46 -51 83t-168 75q-164 47 -235.5 105.5t-71.5 144.5q0 158 120 258t308 100q93 0 189 -32t173 -90l-90 -111
q-61 45 -135 70.5t-143 25.5q-117 0 -192 -53.5t-75 -136.5q0 -37 53.5 -72.5t176.5 -81.5q160 -49 228.5 -109t68.5 -149q0 -99 -61 -184t-164 -135t-222 -50z" />
    <glyph glyph-name="Scedilla" unicode="&#x15e;" horiz-adv-x="1257" 
d="M778 1288q-163 0 -266.5 -82t-103.5 -211q0 -67 74.5 -115t246.5 -92q212 -51 303.5 -128t91.5 -205q0 -204 -155 -338t-400 -140l-45 -69h11q55 0 89.5 -32t34.5 -83q0 -82 -66.5 -134t-158.5 -52q-108 0 -176 61l49 78q43 -43 117 -43q63 0 98 23.5t35 64.5
q0 26 -16 42.5t-41 16.5q-43 0 -80 -26l-31 39l74 121q-128 18 -245 77t-187 144l119 117q69 -88 184 -143.5t227 -55.5q175 0 286 84.5t111 216.5q0 71 -73.5 120.5t-243.5 92.5q-214 51 -305.5 124.5t-91.5 194.5q0 210 154 344t397 134q121 0 248.5 -57t209.5 -148
l-116 -117q-63 77 -164 126.5t-195 49.5z" />
    <glyph glyph-name="scedilla" unicode="&#x15f;" horiz-adv-x="950" 
d="M578 946q-117 0 -192 -53.5t-75 -136.5q0 -37 53.5 -72.5t176.5 -81.5q160 -49 228.5 -109t68.5 -149q0 -146 -125.5 -253.5t-300.5 -115.5l-43 -67h10q55 0 90 -32t35 -83q0 -82 -66.5 -134t-158.5 -52q-109 0 -177 61l50 78q43 -43 116 -43q63 0 98 23.5t35 64.5
q0 26 -16 42.5t-41 16.5q-43 0 -80 -26l-31 39l74 119q-198 29 -330 155l97 105q70 -61 155.5 -95t167.5 -34q116 0 200.5 60.5t84.5 143.5q0 46 -51 83t-168 75q-164 47 -235.5 105.5t-71.5 144.5q0 158 120 258t308 100q93 0 189 -32t173 -90l-90 -111q-61 45 -135 70.5
t-143 25.5z" />
    <glyph glyph-name="Scaron" unicode="&#x160;" horiz-adv-x="1257" 
d="M772 1528l-145 280h112l121 -176l201 176h123l-269 -280h-143zM549 -23q-146 0 -290 64t-228 164l119 117q69 -88 184 -143.5t227 -55.5q175 0 286 84.5t111 216.5q0 71 -73.5 120.5t-243.5 92.5q-214 51 -305.5 124.5t-91.5 194.5q0 210 154 344t397 134
q121 0 248.5 -57t209.5 -148l-116 -117q-63 77 -164 126.5t-195 49.5q-163 0 -266.5 -82t-103.5 -211q0 -67 74.5 -115t246.5 -92q212 -51 303.5 -128t91.5 -205q0 -210 -161 -344t-414 -134z" />
    <glyph glyph-name="scaron" unicode="&#x161;" horiz-adv-x="950" 
d="M553 1180l-145 280h112l121 -176l201 176h123l-269 -280h-143zM391 -25q-114 0 -223 42.5t-191 119.5l97 105q70 -61 155.5 -95t167.5 -34q116 0 200.5 60.5t84.5 143.5q0 46 -51 83t-168 75q-164 47 -235.5 105.5t-71.5 144.5q0 158 120 258t308 100q93 0 189 -32
t173 -90l-90 -111q-61 45 -135 70.5t-143 25.5q-117 0 -192 -53.5t-75 -136.5q0 -37 53.5 -72.5t176.5 -81.5q160 -49 228.5 -109t68.5 -149q0 -99 -61 -184t-164 -135t-222 -50z" />
    <glyph glyph-name="uni0162" unicode="&#x162;" horiz-adv-x="1306" 
d="M283 1407h1106l-31 -152h-473l-262 -1255h-45l-60 -92h10q55 0 90 -32t35 -83q0 -82 -66.5 -134t-158.5 -52q-108 0 -176 61l49 78q43 -43 117 -43q63 0 98 23.5t35 64.5q0 26 -16 42.5t-41 16.5q-43 0 -80 -26l-31 39l84 137h-4l262 1255h-473z" />
    <glyph glyph-name="uni0163" unicode="&#x163;" horiz-adv-x="747" 
d="M723 922h-260q-146 -701 -146 -717q0 -42 22 -67t58 -25q38 0 72.5 13.5t54.5 33.5l62 -121q-87 -58 -185 -64l-43 -67h11q55 0 90 -32t35 -83q0 -82 -66.5 -134t-159.5 -52q-108 0 -176 61l49 78q43 -43 117 -43q63 0 98 23.5t35 64.5q0 26 -16 42.5t-41 16.5
q-43 0 -80 -26l-31 39l78 125q-65 22 -101 74.5t-36 125.5q0 35 18.5 126.5t126.5 607.5h-166l29 137h166l61 291h154l-61 -291h260z" />
    <glyph glyph-name="Tcaron" unicode="&#x164;" horiz-adv-x="1306" 
d="M791 1528l-146 280h113l121 -176l200 176h123l-268 -280h-143zM463 0l262 1255h-473l31 152h1106l-31 -152h-473l-262 -1255h-160z" />
    <glyph glyph-name="tcaron" unicode="&#x165;" horiz-adv-x="1028" 
d="M1087 1432q43 0 67 -29.5t24 -77.5q0 -31 -10 -61.5t-22 -53.5t-41.5 -58t-48.5 -55t-63 -65l-61 55q87 81 131 164q-33 -4 -55.5 19t-22.5 59q0 39 30.5 71t71.5 32zM553 1350l-61 -291h260l-29 -137h-260q-146 -701 -146 -717q0 -42 22 -67t58 -25q38 0 72.5 13.5
t54.5 33.5l62 -121q-98 -64 -205 -64q-99 0 -158 59t-59 154q0 35 18.5 126.5t126.5 607.5h-166l29 137h166l61 291h154z" />
    <glyph glyph-name="Umacron" unicode="&#x16a;" horiz-adv-x="1454" 
d="M627 1565l22 112h635l-22 -112h-635zM614 -25q-171 0 -289 78t-164 218.5t-9 318.5l170 817h159l-172 -829q-41 -201 52.5 -329t281.5 -128q189 0 336 131.5t188 337.5l170 817h160l-172 -829q-56 -265 -255 -434t-456 -169z" />
    <glyph glyph-name="umacron" unicode="&#x16b;" 
d="M1079 1333l-22 -112h-635l22 112h635zM956 1059h154l-221 -1059h-154l33 162q-62 -84 -164 -135.5t-209 -51.5q-152 0 -242 87.5t-90 230.5q0 15 1 30t3.5 32t8 47.5t12 63t19.5 93t26 122t35.5 167t44.5 211.5h154q-20 -96 -39.5 -189t-32 -152t-24.5 -117t-19 -90.5
t-13.5 -64.5t-9 -48t-5 -32.5t-3 -26t-0.5 -20.5q0 -95 53.5 -150.5t147.5 -55.5q134 0 249.5 80t143.5 188z" />
    <glyph glyph-name="Uring" unicode="&#x16e;" horiz-adv-x="1454" 
d="M936 1554q-76 0 -124 48.5t-48 121.5q0 100 80 176t180 76q76 0 123 -47t47 -119q0 -102 -79.5 -179t-178.5 -77zM954 1645q56 0 102 44.5t46 100.5q0 42 -27 69t-69 27q-56 0 -103 -43.5t-47 -99.5q0 -42 28 -70t70 -28zM614 -25q-171 0 -289 78t-164 218.5t-9 318.5
l170 817h159l-172 -829q-41 -201 52.5 -329t281.5 -128q189 0 336 131.5t188 337.5l170 817h160l-172 -829q-56 -265 -255 -434t-456 -169z" />
    <glyph glyph-name="uring" unicode="&#x16f;" 
d="M731 1210q-76 0 -124 48.5t-48 121.5q0 100 80 176t180 76q75 0 122.5 -47t47.5 -119q0 -102 -79.5 -179t-178.5 -77zM801 1542q-56 0 -103 -43.5t-47 -99.5q0 -42 28.5 -70.5t70.5 -28.5q56 0 101.5 44.5t45.5 101.5q0 42 -27 69t-69 27zM956 1059h154l-221 -1059h-154
l33 162q-62 -84 -164 -135.5t-209 -51.5q-152 0 -242 87.5t-90 230.5q0 15 1 30t3.5 32t8 47.5t12 63t19.5 93t26 122t35.5 167t44.5 211.5h154q-20 -96 -39.5 -189t-32 -152t-24.5 -117t-19 -90.5t-13.5 -64.5t-9 -48t-5 -32.5t-3 -26t-0.5 -20.5q0 -95 53.5 -150.5
t147.5 -55.5q134 0 249.5 80t143.5 188z" />
    <glyph glyph-name="Uhungarumlaut" unicode="&#x170;" horiz-adv-x="1454" 
d="M674 1528l309 295l158 -37l-344 -258h-123zM1083 1528l310 291l157 -37l-344 -254h-123zM614 -25q-171 0 -289 78t-164 218.5t-9 318.5l170 817h159l-172 -829q-41 -201 52.5 -329t281.5 -128q189 0 336 131.5t188 337.5l170 817h160l-172 -829q-56 -265 -255 -434
t-456 -169z" />
    <glyph glyph-name="uhungarumlaut" unicode="&#x171;" 
d="M936 1442l-344 -258h-123l309 295zM1001 1184h-122l309 291l158 -37zM815 381l141 678h154l-221 -1059h-154l33 162q-62 -84 -164 -135.5t-209 -51.5q-152 0 -242 87.5t-90 230.5q0 15 1 30t3.5 32t8 47.5t12 63t19.5 93t26 122t35.5 167t44.5 211.5h154
q-20 -96 -39.5 -189t-32 -152t-24.5 -117t-19 -90.5t-13.5 -64.5t-9 -48t-5 -32.5t-3 -26t-0.5 -20.5q0 -95 53.5 -150.5t147.5 -55.5q134 0 249.5 80t143.5 188z" />
    <glyph glyph-name="Uogonek" unicode="&#x172;" horiz-adv-x="1454" 
d="M1337 1407h160l-172 -829q-56 -265 -255 -434t-456 -169q-33 0 -49 2q-69 -43 -69 -135q0 -35 23.5 -55t64.5 -20q67 0 110 43l54 -109q-78 -55 -177 -55q-88 0 -140 46.5t-52 127.5q0 105 74 176q-183 51 -264.5 211t-36.5 383l170 817h159l-172 -829
q-41 -201 52.5 -329t281.5 -128q189 0 336 131.5t188 337.5z" />
    <glyph glyph-name="uogonek" unicode="&#x173;" 
d="M874 -233q68 0 111 43l53 -109q-78 -55 -176 -55q-88 0 -140 46.5t-52 127.5q0 109 78 180h-13l33 162q-62 -84 -164 -135.5t-209 -51.5q-152 0 -242 87.5t-90 230.5q0 15 1 30t3.5 32t8 47.5t12 63t19.5 93t26 122t35.5 167t44.5 211.5h154q-20 -96 -39.5 -189t-32 -152
t-24.5 -117t-19 -90.5t-13.5 -64.5t-9 -48t-5 -32.5t-3 -26t-0.5 -20.5q0 -95 53.5 -150.5t147.5 -55.5q134 0 249.5 80t143.5 188l141 678h154l-217 -1043l47 -16q-67 0 -110.5 -44.5t-43.5 -113.5q0 -35 23.5 -55t64.5 -20z" />
    <glyph glyph-name="Wcircumflex" unicode="&#x174;" horiz-adv-x="2254" 
d="M1055 1528l264 280h143l150 -280h-115l-123 176l-198 -176h-121zM467 0l-188 1407h178l149 -1139l613 1139h178l133 -1139l629 1139h182l-774 -1407h-158l-139 1198l-645 -1198h-158z" />
    <glyph glyph-name="wcircumflex" unicode="&#x175;" horiz-adv-x="1685" 
d="M696 1180l265 280h143l149 -280h-114l-123 176l-199 -176h-121zM303 0l-133 1059h160l86 -854l467 854h133l110 -854l443 854h168l-578 -1059h-145l-103 846l-462 -846h-146z" />
    <glyph glyph-name="Ycircumflex" unicode="&#x176;" horiz-adv-x="1488" 
d="M655 1528l265 280h143l149 -280h-114l-123 176l-199 -176h-121zM549 0l123 573l-396 834h162l330 -696l612 696h197l-737 -834l-123 -573h-168z" />
    <glyph glyph-name="ycircumflex" unicode="&#x177;" horiz-adv-x="1171" 
d="M451 1180l264 280h143l150 -280h-115l-123 176l-199 -176h-120zM131 -369q-94 0 -166 37l53 127q44 -24 113 -24q57 0 99 23t83 77l93 125l-238 1063h166l186 -881l535 881h170l-729 -1184q-81 -131 -169.5 -187.5t-195.5 -56.5z" />
    <glyph glyph-name="Ydieresis" unicode="&#x178;" horiz-adv-x="1488" 
d="M758 1571q-39 0 -62.5 25t-23.5 61q0 39 30.5 70.5t71.5 31.5q38 0 62 -25t24 -61q0 -39 -31.5 -70.5t-70.5 -31.5zM1151 1571q-39 0 -62.5 25t-23.5 61q0 39 30.5 70.5t71.5 31.5q38 0 62 -25t24 -61q0 -39 -31.5 -70.5t-70.5 -31.5zM549 0l123 573l-396 834h162
l330 -696l612 696h197l-737 -834l-123 -573h-168z" />
    <glyph glyph-name="Zacute" unicode="&#x179;" horiz-adv-x="1292" 
d="M797 1528l309 295l158 -37l-344 -258h-123zM0 0l23 127l1083 1128h-832l31 152h1053l-25 -127l-1083 -1128h856l-33 -152h-1073z" />
    <glyph glyph-name="zacute" unicode="&#x17a;" horiz-adv-x="983" 
d="M580 1180l309 295l158 -37l-345 -258h-122zM-35 0l23 121l788 792h-610l31 146h819l-23 -121l-792 -793h628l-30 -145h-834z" />
    <glyph glyph-name="Zdotaccent" unicode="&#x17b;" horiz-adv-x="1292" 
d="M877 1571q-39 0 -62.5 25t-23.5 61q0 39 30.5 70.5t71.5 31.5q38 0 62 -25t24 -61q0 -39 -31.5 -70.5t-70.5 -31.5zM0 0l23 127l1083 1128h-832l31 152h1053l-25 -127l-1083 -1128h856l-33 -152h-1073z" />
    <glyph glyph-name="zdotaccent" unicode="&#x17c;" horiz-adv-x="983" 
d="M659 1223q-39 0 -62.5 25t-23.5 61q0 39 31 70.5t72 31.5q38 0 62 -25t24 -61q0 -39 -32 -70.5t-71 -31.5zM-35 0l23 121l788 792h-610l31 146h819l-23 -121l-792 -793h628l-30 -145h-834z" />
    <glyph glyph-name="Zcaron" unicode="&#x17d;" horiz-adv-x="1292" 
d="M786 1528l-145 280h113l120 -176l201 176h123l-268 -280h-144zM0 0l23 127l1083 1128h-832l31 152h1053l-25 -127l-1083 -1128h856l-33 -152h-1073z" />
    <glyph glyph-name="zcaron" unicode="&#x17e;" horiz-adv-x="983" 
d="M569 1180l-145 280h113l120 -176l201 176h123l-268 -280h-144zM-35 0l23 121l788 792h-610l31 146h819l-23 -121l-792 -793h628l-30 -145h-834z" />
    <glyph glyph-name="uni0237" unicode="&#x237;" horiz-adv-x="395" 
d="M-158 -365q-90 0 -166 35l41 123q52 -20 121 -20q55 0 99.5 40t56.5 99l237 1147h154l-242 -1159q-25 -118 -108.5 -191.5t-192.5 -73.5z" />
    <glyph glyph-name="circumflex" unicode="&#x2c6;" horiz-adv-x="684" 
d="M199 1180l264 280h143l150 -280h-115l-123 176l-199 -176h-120z" />
    <glyph glyph-name="caron" unicode="&#x2c7;" horiz-adv-x="684" 
d="M403 1180l-145 280h113l121 -176l200 176h123l-268 -280h-144z" />
    <glyph glyph-name="breve" unicode="&#x2d8;" horiz-adv-x="729" 
d="M512 1206q-173 0 -281 127l109 88q32 -39 79.5 -60.5t98.5 -21.5q114 0 227 91l84 -105q-142 -119 -317 -119z" />
    <glyph glyph-name="dotaccent" unicode="&#x2d9;" horiz-adv-x="346" 
d="M330 1223q-39 0 -62.5 25t-23.5 61q0 39 30.5 70.5t71.5 31.5q38 0 62 -25t24 -61q0 -39 -31.5 -70.5t-70.5 -31.5z" />
    <glyph glyph-name="ring" unicode="&#x2da;" horiz-adv-x="577" 
d="M430 1206q-76 0 -124 48.5t-48 121.5q0 100 80 176t180 76q76 0 123 -47t47 -119q0 -102 -79.5 -179t-178.5 -77zM449 1296q56 0 101.5 44.5t45.5 101.5q0 42 -27 69t-69 27q-56 0 -103 -43.5t-47 -99.5q0 -42 28.5 -70.5t70.5 -28.5z" />
    <glyph glyph-name="ogonek" unicode="&#x2db;" horiz-adv-x="542" 
d="M131 -354q-88 0 -140 46.5t-52 127.5q0 75 40 135.5t103 85.5l127 -41q-67 0 -110.5 -44.5t-43.5 -113.5q0 -35 23.5 -55t64.5 -20q68 0 111 43l53 -109q-78 -55 -176 -55z" />
    <glyph glyph-name="tilde" unicode="&#x2dc;" horiz-adv-x="811" 
d="M684 1178q-35 0 -65 14t-51 34t-39.5 39.5t-39.5 33.5t-43 14q-89 0 -141 -146l-92 27q81 238 236 238q35 0 65 -14t50.5 -34t39.5 -40t39.5 -34t42.5 -14q86 0 141 146l93 -27q-81 -237 -236 -237z" />
    <glyph glyph-name="hungarumlaut" unicode="&#x2dd;" horiz-adv-x="948" 
d="M197 1180l309 295l158 -37l-345 -258h-122zM606 1180l309 290l158 -36l-344 -254h-123z" />
    <glyph glyph-name="uni0307" unicode="&#x307;" horiz-adv-x="0" 
d="M-16 1251q-41 0 -67 26.5t-26 65.5q0 42 34 76.5t79 34.5q39 0 64.5 -26.5t25.5 -65.5q0 -42 -34 -76.5t-76 -34.5z" />
    <glyph glyph-name="uni0326" unicode="&#x326;" horiz-adv-x="0" 
d="M-434 -567l-62 55q87 81 131 164q-33 -4 -55 19t-22 59q0 39 30.5 70.5t71.5 31.5q43 0 66.5 -29t23.5 -77q0 -38 -11 -72t-41 -74t-54.5 -66.5t-77.5 -80.5z" />
    <glyph glyph-name="Wgrave" unicode="&#x1e80;" horiz-adv-x="2254" 
d="M1282 1528l-238 258l166 37l187 -295h-115zM467 0l-188 1407h178l149 -1139l613 1139h178l133 -1139l629 1139h182l-774 -1407h-158l-139 1198l-645 -1198h-158z" />
    <glyph glyph-name="wgrave" unicode="&#x1e81;" horiz-adv-x="1685" 
d="M924 1180l-238 258l166 37l186 -295h-114zM303 0l-133 1059h160l86 -854l467 854h133l110 -854l443 854h168l-578 -1059h-145l-103 846l-462 -846h-146z" />
    <glyph glyph-name="Wacute" unicode="&#x1e82;" horiz-adv-x="2254" 
d="M1274 1528l309 295l158 -37l-344 -258h-123zM467 0l-188 1407h178l149 -1139l613 1139h178l133 -1139l629 1139h182l-774 -1407h-158l-139 1198l-645 -1198h-158z" />
    <glyph glyph-name="wacute" unicode="&#x1e83;" horiz-adv-x="1685" 
d="M915 1180l310 295l157 -37l-344 -258h-123zM303 0l-133 1059h160l86 -854l467 854h133l110 -854l443 854h168l-578 -1059h-145l-103 846l-462 -846h-146z" />
    <glyph glyph-name="Wdieresis" unicode="&#x1e84;" horiz-adv-x="2254" 
d="M1157 1571q-39 0 -62.5 25t-23.5 61q0 39 31 70.5t72 31.5q38 0 62 -25t24 -61q0 -39 -32 -70.5t-71 -31.5zM1550 1571q-39 0 -62.5 25t-23.5 61q0 39 31 70.5t72 31.5q38 0 62 -25t24 -61q0 -39 -32 -70.5t-71 -31.5zM467 0l-188 1407h178l149 -1139l613 1139h178
l133 -1139l629 1139h182l-774 -1407h-158l-139 1198l-645 -1198h-158z" />
    <glyph glyph-name="wdieresis" unicode="&#x1e85;" horiz-adv-x="1685" 
d="M799 1223q-39 0 -62.5 25t-23.5 61q0 39 30.5 70.5t71.5 31.5q38 0 62 -25t24 -61q0 -39 -31.5 -70.5t-70.5 -31.5zM1192 1223q-39 0 -62.5 25t-23.5 61q0 39 30.5 70.5t71.5 31.5q38 0 62 -25t24 -61q0 -39 -31.5 -70.5t-70.5 -31.5zM303 0l-133 1059h160l86 -854
l467 854h133l110 -854l443 854h168l-578 -1059h-145l-103 846l-462 -846h-146z" />
    <glyph glyph-name="uni1EB8" unicode="&#x1eb8;" horiz-adv-x="1351" 
d="M1321 1255h-850l-92 -462h762l-31 -152h-766l-98 -489h846l-33 -152h-1010l293 1407h1010zM477 -164q38 0 62 -25t24 -61q0 -39 -31.5 -70.5t-70.5 -31.5t-62.5 25t-23.5 61q0 39 30.5 70.5t71.5 31.5z" />
    <glyph glyph-name="uni1EB9" unicode="&#x1eb9;" horiz-adv-x="1173" 
d="M590 471h-373q-2 -14 -2 -41q0 -145 81.5 -231t221.5 -86q96 0 197.5 38t161.5 93l81 -109q-81 -72 -216.5 -116t-249.5 -44q-189 0 -309 123t-120 320q0 129 55 252t144.5 213t208.5 145t242 55q101 0 186.5 -34.5t139 -102t53.5 -155.5q0 -142 -135 -231t-367 -89z
M700 946q-156 0 -277 -96t-175 -242h370q154 0 238 45.5t84 128.5q0 75 -67.5 119.5t-172.5 44.5zM395 -166q38 0 62 -25t24 -61q0 -39 -31.5 -70.5t-70.5 -31.5t-62.5 25t-23.5 61q0 39 30.5 70.5t71.5 31.5z" />
    <glyph glyph-name="uni1EBC" unicode="&#x1ebc;" horiz-adv-x="1280" 
d="M788 1661q-89 0 -141 -145l-92 26q81 238 236 238q35 0 65 -14t50.5 -34t39.5 -39.5t39.5 -33.5t42.5 -14q86 0 141 145l93 -27q-81 -237 -236 -237q-35 0 -65 14t-51 34t-39.5 39.5t-39.5 33.5t-43 14zM1321 1255h-850l-92 -462h762l-31 -152h-766l-98 -489h846
l-33 -152h-1010l293 1407h1010z" />
    <glyph glyph-name="uni1EBD" unicode="&#x1ebd;" horiz-adv-x="1110" 
d="M647 1313q-89 0 -141 -146l-92 27q81 238 235 238q35 0 65 -14t51 -34t39.5 -40t39.5 -34t43 -14q86 0 141 146l92 -27q-81 -237 -235 -237q-35 0 -65 14t-51 34t-39.5 39.5t-39.5 33.5t-43 14zM713 1083q101 0 186.5 -34.5t139 -102t53.5 -155.5q0 -142 -135 -231
t-367 -89h-373q-2 -14 -2 -41q0 -145 81.5 -231t221.5 -86q96 0 197.5 38t161.5 93l81 -109q-81 -72 -216.5 -116t-249.5 -44q-189 0 -309 123t-120 320q0 129 55 252t144.5 213t208.5 145t242 55zM618 608q154 0 238 45.5t84 128.5q0 75 -67.5 119.5t-172.5 44.5
q-156 0 -277 -96t-175 -242h370z" />
    <glyph glyph-name="Ygrave" unicode="&#x1ef2;" horiz-adv-x="1488" 
d="M883 1528l-238 258l166 37l186 -295h-114zM549 0l123 573l-396 834h162l330 -696l612 696h197l-737 -834l-123 -573h-168z" />
    <glyph glyph-name="ygrave" unicode="&#x1ef3;" horiz-adv-x="1171" 
d="M678 1180l-238 258l166 37l187 -295h-115zM131 -369q-94 0 -166 37l53 127q44 -24 113 -24q57 0 99 23t83 77l93 125l-238 1063h166l186 -881l535 881h170l-729 -1184q-81 -131 -169.5 -187.5t-195.5 -56.5z" />
    <glyph glyph-name="uni2002" unicode="&#x2002;" horiz-adv-x="1024" 
 />
    <glyph glyph-name="uni2003" unicode="&#x2003;" horiz-adv-x="2048" 
 />
    <glyph glyph-name="uni2004" unicode="&#x2004;" horiz-adv-x="681" 
 />
    <glyph glyph-name="uni2005" unicode="&#x2005;" horiz-adv-x="512" 
 />
    <glyph glyph-name="uni2006" unicode="&#x2006;" horiz-adv-x="339" 
 />
    <glyph glyph-name="endash" unicode="&#x2013;" horiz-adv-x="1150" 
d="M90 483l29 146h952l-29 -146h-952z" />
    <glyph glyph-name="emdash" unicode="&#x2014;" horiz-adv-x="1775" 
d="M90 483l29 146h1577l-29 -146h-1577z" />
    <glyph glyph-name="quoteleft" unicode="&#x2018;" horiz-adv-x="475" 
d="M449 1382l71 -65q-92 -82 -153 -193q39 0 64.5 -25.5t25.5 -66.5q0 -55 -37.5 -89t-85.5 -34q-51 0 -79 34t-28 91q0 44 15.5 86.5t51.5 89.5t66.5 80.5t88.5 91.5z" />
    <glyph glyph-name="quoteright" unicode="&#x2019;" horiz-adv-x="471" 
d="M281 909l-72 66q93 83 153 192q-39 0 -64.5 26t-25.5 67q0 54 37 88t86 34q51 0 79 -34t28 -91q0 -44 -15.5 -86.5t-51 -89.5t-66.5 -81t-88 -91z" />
    <glyph glyph-name="quotesinglbase" unicode="&#x201a;" horiz-adv-x="473" 
d="M35 -276l-72 65q94 84 154 193q-39 0 -64.5 25.5t-25.5 66.5q0 55 37.5 89t85.5 34q51 0 78.5 -34t27.5 -91q0 -44 -15.5 -86.5t-51 -89.5t-66.5 -81t-88 -91z" />
    <glyph glyph-name="quotedblleft" unicode="&#x201c;" horiz-adv-x="882" 
d="M449 1382l71 -65q-92 -82 -153 -193q39 0 64.5 -25.5t25.5 -66.5q0 -55 -37.5 -89t-85.5 -34q-51 0 -79 34t-28 91q0 44 15.5 86.5t51.5 89.5t66.5 80.5t88.5 91.5zM856 1382l72 -65q-94 -84 -154 -193q39 0 64.5 -25.5t25.5 -66.5q0 -55 -37.5 -89t-85.5 -34
q-51 0 -78.5 34t-27.5 91q0 44 15.5 86.5t51 89.5t66.5 81t88 91z" />
    <glyph glyph-name="quotedblright" unicode="&#x201d;" horiz-adv-x="880" 
d="M281 909l-72 66q93 83 153 192q-39 0 -64.5 26t-25.5 67q0 54 37 88t86 34q51 0 79 -34t28 -91q0 -44 -15.5 -86.5t-51 -89.5t-66.5 -81t-88 -91zM690 909l-72 66q95 85 154 192q-39 0 -64.5 26t-25.5 67q0 54 37 88t86 34q51 0 78.5 -34t27.5 -91q0 -44 -15.5 -86.5
t-51 -89.5t-66.5 -81t-88 -91z" />
    <glyph glyph-name="quotedblbase" unicode="&#x201e;" horiz-adv-x="880" 
d="M35 -276l-72 65q94 84 154 193q-39 0 -64.5 25.5t-25.5 66.5q0 55 37.5 89t85.5 34q51 0 78.5 -34t27.5 -91q0 -44 -15.5 -86.5t-51 -89.5t-66.5 -81t-88 -91zM442 -276l-71 65q92 82 153 193q-39 0 -64.5 25.5t-25.5 66.5q0 55 37.5 89t85.5 34q51 0 79 -34t28 -91
q0 -44 -15.5 -86.5t-51.5 -89.5t-66.5 -80.5t-88.5 -91.5z" />
    <glyph glyph-name="bullet" unicode="&#x2022;" horiz-adv-x="722" 
d="M340 365q-92 0 -150.5 58t-58.5 146q0 112 88 198.5t201 86.5q90 0 148.5 -59t58.5 -146q0 -112 -89 -198t-198 -86z" />
    <glyph glyph-name="ellipsis" unicode="&#x2026;" horiz-adv-x="1280" 
d="M127 -25q-43 0 -70.5 28.5t-27.5 70.5q0 53 37.5 88t85.5 35q42 0 69 -28t27 -69q0 -49 -37 -87t-84 -38zM537 -25q-44 0 -71.5 28.5t-27.5 70.5q0 53 37.5 88t85.5 35q42 0 69 -28t27 -69q0 -49 -36.5 -87t-83.5 -38zM946 -25q-43 0 -70.5 28.5t-27.5 70.5q0 53 37.5 88
t85.5 35q42 0 69 -28t27 -69q0 -49 -37 -87t-84 -38z" />
    <glyph glyph-name="uni202F" unicode="&#x202f;" horiz-adv-x="563" 
 />
    <glyph glyph-name="perthousand" unicode="&#x2030;" horiz-adv-x="2482" 
d="M500 715q-126 0 -198.5 77t-72.5 199q0 110 53 209t145 159t198 60q126 0 198 -77.5t72 -200.5q0 -170 -117 -298t-278 -128zM182 0l1256 1407h159l-1253 -1407h-162zM502 825q71 0 133 46.5t97.5 118.5t35.5 149q0 76 -39 123t-106 47q-109 0 -189 -100.5t-80 -213.5
q0 -76 40.5 -123t107.5 -47zM1149 -20q-124 0 -198 77t-74 201q0 108 53 206t145.5 159t198.5 61q126 0 198 -78t72 -200q0 -109 -53 -207.5t-144.5 -158.5t-197.5 -60zM1927 -20q-124 0 -198 77t-74 201q0 108 53 206t145.5 159t198.5 61q126 0 198 -78t72 -200
q0 -109 -53 -207.5t-144.5 -158.5t-197.5 -60zM1151 90q74 0 137.5 49.5t97 122t33.5 146.5t-40 119.5t-107 45.5q-108 0 -187 -97.5t-79 -217.5q0 -76 38.5 -122t106.5 -46zM1929 90q75 0 138 49.5t97 122t34 146.5t-40.5 119.5t-107.5 45.5q-108 0 -187 -97.5t-79 -217.5
q0 -76 38.5 -122t106.5 -46z" />
    <glyph glyph-name="guilsinglleft" unicode="&#x2039;" horiz-adv-x="684" 
d="M340 106l-246 408l410 404l151 -33l-379 -369l222 -375z" />
    <glyph glyph-name="guilsinglright" unicode="&#x203a;" horiz-adv-x="681" 
d="M166 106l-143 35l380 375l-223 369l150 33l250 -404z" />
    <glyph glyph-name="Euro" unicode="&#x20ac;" horiz-adv-x="1679" 
d="M1227 1432q123 0 249 -61.5t203 -158.5l-125 -102q-57 77 -157 125.5t-201 48.5q-177 0 -332 -87t-250 -234h641l-28 -138h-684q-39 -104 -45 -204h686l-27 -138h-651q33 -154 159 -257t287 -103q96 0 215.5 51t210.5 131l92 -119q-113 -92 -266 -151.5t-280 -59.5
q-215 0 -381.5 146.5t-200.5 361.5h-201l27 138h170q6 110 39 204h-166l29 138h196q114 211 327.5 340t463.5 129z" />
    <glyph glyph-name="trademark" unicode="&#x2122;" horiz-adv-x="1576" 
d="M303 571l96 461h-159l30 154h484l-31 -154h-164l-96 -461h-160zM725 571l127 615h160l118 -305l246 305h162l-127 -615h-162l72 342l-246 -307l-119 307l-71 -342h-160z" />
    <glyph glyph-name="minus" unicode="&#x2212;" horiz-adv-x="1257" 
d="M174 608l33 152h940l-33 -152h-940z" />
    <glyph glyph-name="a.alt" horiz-adv-x="1079" 
d="M653 1083q179 0 270 -86.5t91 -236.5q0 -20 -1 -35t-5.5 -43.5t-9.5 -55.5t-17.5 -88t-26 -123t-37.5 -178.5t-49 -236.5h-153l33 156q-72 -87 -183 -134t-217 -47q-150 0 -241 74t-91 199q0 121 69.5 218t179.5 148.5t235 51.5q166 0 342 -64q20 104 20 146
q0 204 -223 204q-126 0 -334 -98l-47 129q221 100 395 100zM782 338l2 -8q24 116 35 166q-137 41 -301 41q-89 0 -169.5 -35t-131.5 -98t-51 -138q0 -74 59 -114.5t156 -40.5q118 0 234.5 60.5t166.5 166.5z" />
    <glyph glyph-name="aacute.alt" horiz-adv-x="1079" 
d="M1100 1438l-344 -258h-123l309 295zM653 1083q179 0 270 -86.5t91 -236.5q0 -20 -1 -35t-5.5 -43.5t-9.5 -55.5t-17.5 -88t-26 -123t-37.5 -178.5t-49 -236.5h-153l33 156q-72 -87 -183 -134t-217 -47q-150 0 -241 74t-91 199q0 121 69.5 218t179.5 148.5t235 51.5
q166 0 342 -64q20 104 20 146q0 204 -223 204q-126 0 -334 -98l-47 129q221 100 395 100zM782 338l2 -8q24 116 35 166q-137 41 -301 41q-89 0 -169.5 -35t-131.5 -98t-51 -138q0 -74 59 -114.5t156 -40.5q118 0 234.5 60.5t166.5 166.5z" />
    <glyph glyph-name="abreve.alt" horiz-adv-x="1079" 
d="M709 1206q-173 0 -281 127l109 88q32 -39 79.5 -60.5t98.5 -21.5q114 0 227 91l84 -105q-142 -119 -317 -119zM653 1083q179 0 270 -86.5t91 -236.5q0 -20 -1 -35t-5.5 -43.5t-9.5 -55.5t-17.5 -88t-26 -123t-37.5 -178.5t-49 -236.5h-153l33 156q-72 -87 -183 -134
t-217 -47q-150 0 -241 74t-91 199q0 121 69.5 218t179.5 148.5t235 51.5q166 0 342 -64q20 104 20 146q0 204 -223 204q-126 0 -334 -98l-47 129q221 100 395 100zM782 338l2 -8q24 116 35 166q-137 41 -301 41q-89 0 -169.5 -35t-131.5 -98t-51 -138q0 -74 59 -114.5
t156 -40.5q118 0 234.5 60.5t166.5 166.5z" />
    <glyph glyph-name="acircumflex.alt" horiz-adv-x="1079" 
d="M733 1356l-198 -176h-121l264 280h143l150 -280h-115zM653 1083q179 0 270 -86.5t91 -236.5q0 -20 -1 -35t-5.5 -43.5t-9.5 -55.5t-17.5 -88t-26 -123t-37.5 -178.5t-49 -236.5h-153l33 156q-72 -87 -183 -134t-217 -47q-150 0 -241 74t-91 199q0 121 69.5 218
t179.5 148.5t235 51.5q166 0 342 -64q20 104 20 146q0 204 -223 204q-126 0 -334 -98l-47 129q221 100 395 100zM782 338l2 -8q24 116 35 166q-137 41 -301 41q-89 0 -169.5 -35t-131.5 -98t-51 -138q0 -74 59 -114.5t156 -40.5q118 0 234.5 60.5t166.5 166.5z" />
    <glyph glyph-name="adieresis.alt" horiz-adv-x="1079" 
d="M516 1223q-39 0 -62.5 25t-23.5 61q0 39 30.5 70.5t71.5 31.5q38 0 62 -25t24 -61q0 -39 -31.5 -70.5t-70.5 -31.5zM909 1223q-39 0 -62.5 25t-23.5 61q0 39 31 70.5t72 31.5q38 0 62 -25t24 -61q0 -39 -32 -70.5t-71 -31.5zM653 1083q179 0 270 -86.5t91 -236.5
q0 -20 -1 -35t-5.5 -43.5t-9.5 -55.5t-17.5 -88t-26 -123t-37.5 -178.5t-49 -236.5h-153l33 156q-72 -87 -183 -134t-217 -47q-150 0 -241 74t-91 199q0 121 69.5 218t179.5 148.5t235 51.5q166 0 342 -64q20 104 20 146q0 204 -223 204q-126 0 -334 -98l-47 129
q221 100 395 100zM782 338l2 -8q24 116 35 166q-137 41 -301 41q-89 0 -169.5 -35t-131.5 -98t-51 -138q0 -74 59 -114.5t156 -40.5q118 0 234.5 60.5t166.5 166.5z" />
    <glyph glyph-name="agrave.alt" horiz-adv-x="1079" 
d="M756 1180h-115l-238 258l166 37zM653 1083q179 0 270 -86.5t91 -236.5q0 -20 -1 -35t-5.5 -43.5t-9.5 -55.5t-17.5 -88t-26 -123t-37.5 -178.5t-49 -236.5h-153l33 156q-72 -87 -183 -134t-217 -47q-150 0 -241 74t-91 199q0 121 69.5 218t179.5 148.5t235 51.5
q166 0 342 -64q20 104 20 146q0 204 -223 204q-126 0 -334 -98l-47 129q221 100 395 100zM782 338l2 -8q24 116 35 166q-137 41 -301 41q-89 0 -169.5 -35t-131.5 -98t-51 -138q0 -74 59 -114.5t156 -40.5q118 0 234.5 60.5t166.5 166.5z" />
    <glyph glyph-name="amacron.alt" horiz-adv-x="1079" 
d="M412 1329h635l-23 -112h-635zM653 1083q179 0 270 -86.5t91 -236.5q0 -20 -1 -35t-5.5 -43.5t-9.5 -55.5t-17.5 -88t-26 -123t-37.5 -178.5t-49 -236.5h-153l33 156q-72 -87 -183 -134t-217 -47q-150 0 -241 74t-91 199q0 121 69.5 218t179.5 148.5t235 51.5
q166 0 342 -64q20 104 20 146q0 204 -223 204q-126 0 -334 -98l-47 129q221 100 395 100zM782 338l2 -8q24 116 35 166q-137 41 -301 41q-89 0 -169.5 -35t-131.5 -98t-51 -138q0 -74 59 -114.5t156 -40.5q118 0 234.5 60.5t166.5 166.5z" />
    <glyph glyph-name="aogonek.alt" horiz-adv-x="1079" 
d="M803 -233q67 0 110 43l54 -109q-78 -55 -176 -55q-88 0 -140.5 46.5t-52.5 127.5q0 69 34 126t89 85q4 20 9 42t10 46.5t8 36.5q-72 -87 -183 -134t-217 -47q-150 0 -241 74t-91 199q0 121 69.5 218t179.5 148.5t235 51.5q166 0 342 -64q20 104 20 146q0 204 -223 204
q-126 0 -334 -98l-47 129q221 100 395 100q179 0 270 -86.5t91 -236.5q0 -20 -1 -35t-5.5 -43.5t-9.5 -55.5t-17.5 -88t-26 -123t-37.5 -178.5t-49 -236.5q-67 0 -110 -44.5t-43 -113.5q0 -35 23.5 -55t64.5 -20zM782 338l2 -8q24 116 35 166q-137 41 -301 41
q-89 0 -169.5 -35t-131.5 -98t-51 -138q0 -74 59 -114.5t156 -40.5q118 0 234.5 60.5t166.5 166.5z" />
    <glyph glyph-name="aring.alt" horiz-adv-x="1079" 
d="M698 1206q-76 0 -124 48.5t-48 121.5q0 100 80 176t180 76q76 0 123 -47t47 -119q0 -102 -79.5 -179t-178.5 -77zM768 1538q-56 0 -103 -43.5t-47 -99.5q0 -42 28.5 -70.5t70.5 -28.5q56 0 101.5 44.5t45.5 101.5q0 42 -27 69t-69 27zM653 1083q179 0 270 -86.5
t91 -236.5q0 -20 -1 -35t-5.5 -43.5t-9.5 -55.5t-17.5 -88t-26 -123t-37.5 -178.5t-49 -236.5h-153l33 156q-72 -87 -183 -134t-217 -47q-150 0 -241 74t-91 199q0 121 69.5 218t179.5 148.5t235 51.5q166 0 342 -64q20 104 20 146q0 204 -223 204q-126 0 -334 -98l-47 129
q221 100 395 100zM782 338l2 -8q24 116 35 166q-137 41 -301 41q-89 0 -169.5 -35t-131.5 -98t-51 -138q0 -74 59 -114.5t156 -40.5q118 0 234.5 60.5t166.5 166.5z" />
    <glyph glyph-name="atilde.alt" horiz-adv-x="1079" 
d="M598 1313q-89 0 -141 -146l-92 27q81 238 235 238q35 0 65 -14t51 -34t39.5 -40t39.5 -34t43 -14q86 0 141 146l92 -27q-81 -237 -235 -237q-35 0 -65 14t-51 34t-39.5 39.5t-39.5 33.5t-43 14zM653 1083q179 0 270 -86.5t91 -236.5q0 -20 -1 -35t-5.5 -43.5t-9.5 -55.5
t-17.5 -88t-26 -123t-37.5 -178.5t-49 -236.5h-153l33 156q-72 -87 -183 -134t-217 -47q-150 0 -241 74t-91 199q0 121 69.5 218t179.5 148.5t235 51.5q166 0 342 -64q20 104 20 146q0 204 -223 204q-126 0 -334 -98l-47 129q221 100 395 100zM782 338l2 -8q24 116 35 166
q-137 41 -301 41q-89 0 -169.5 -35t-131.5 -98t-51 -138q0 -74 59 -114.5t156 -40.5q118 0 234.5 60.5t166.5 166.5z" />
    </font>
</defs>
</svg>
