<?xml version="1.0" standalone="no"?>
<!DOCTYPE svg PUBLIC "-//W3C//DTD SVG 1.1//EN" "http://www.w3.org/Graphics/SVG/1.1/DTD/svg11.dtd" >
<svg xmlns="http://www.w3.org/2000/svg" xmlns:xlink="http://www.w3.org/1999/xlink" version="1.1">
<metadata>
Created by FontForge 20170731 at Tue Feb 21 21:51:36 2023
 By Aleksey,,,
copyright missing
</metadata>
<defs>
<font id="Metropolis-Bold" horiz-adv-x="1585" >
  <font-face 
    font-family="Metropolis"
    font-weight="700"
    font-stretch="normal"
    units-per-em="2048"
    panose-1="0 0 8 0 0 0 0 0 0 0"
    ascent="1628"
    descent="-420"
    x-height="1059"
    cap-height="1407"
    bbox="-383 -596 2470 2003"
    underline-thickness="40"
    underline-position="-312"
    unicode-range="U+0020-2212"
  />
<missing-glyph horiz-adv-x="1024" 
d="M840 1628v-2048h-650v2048h650zM682 1491h-338v-68h133v-75h-135v-68h340v68h-135v75h135v68zM547 1227h-205v-213h340v69h-135v144zM477 1157v-74h-67v74h67zM682 958h-340v-67h135v-76h-135v-67h205v143h135v67zM682 836h-68v-136h-272v-69h340v205zM682 586h-205v-115
h70v47h67v-96h-204v164h-68v-232h340v232zM682 231h-340v-231h340v231zM614 164v-96h-204v96h204zM682 -47h-340v-68h143l-143 -96v-68h340v68h-209l143 96h66v68z" />
    <glyph glyph-name=".notdef" horiz-adv-x="1024" 
d="M840 1628v-2048h-650v2048h650zM682 1491h-338v-68h133v-75h-135v-68h340v68h-135v75h135v68zM547 1227h-205v-213h340v69h-135v144zM477 1157v-74h-67v74h67zM682 958h-340v-67h135v-76h-135v-67h205v143h135v67zM682 836h-68v-136h-272v-69h340v205zM682 586h-205v-115
h70v47h67v-96h-204v164h-68v-232h340v232zM682 231h-340v-231h340v231zM614 164v-96h-204v96h204zM682 -47h-340v-68h143l-143 -96v-68h340v68h-209l143 96h66v68z" />
    <glyph glyph-name=".null" horiz-adv-x="0" 
 />
    <glyph glyph-name="nonmarkingreturn" horiz-adv-x="682" 
 />
    <glyph glyph-name="space" unicode=" " horiz-adv-x="557" 
 />
    <glyph glyph-name="exclam" unicode="!" horiz-adv-x="608" 
d="M203 496l-70 911h340l-67 -911h-203zM305 -25q-81 0 -135.5 56t-54.5 135q0 73 55 127.5t135 54.5q73 0 127.5 -55t54.5 -127q0 -78 -54 -134.5t-128 -56.5z" />
    <glyph glyph-name="quotedbl" unicode="&#x22;" horiz-adv-x="1030" 
d="M209 807q-94 332 -94 453q0 66 45.5 112.5t109.5 46.5q63 0 109.5 -46.5t46.5 -112.5q0 -129 -96 -453h-121zM700 807q-94 332 -94 453q0 66 45.5 112.5t110.5 46.5q63 0 109.5 -46.5t46.5 -112.5q0 -125 -97 -453h-121z" />
    <glyph glyph-name="numbersign" unicode="#" horiz-adv-x="1411" 
d="M1282 862h-199l-79 -319h196l-53 -215h-199l-82 -328h-221l82 328h-235l-82 -328h-220l82 328h-192l53 215h195l80 319h-199l53 215h199l84 330h219l-84 -330h235l84 330h222l-84 -330h196zM782 543l80 319h-235l-80 -319h235z" />
    <glyph glyph-name="dollar" unicode="$" horiz-adv-x="1421" 
d="M1290 422q0 -183 -119 -301t-331 -141v-132h-199v132q-306 30 -520 229l172 207q163 -141 348 -174v338q-89 22 -152.5 44t-125.5 56t-99.5 75.5t-60.5 101.5t-23 136q0 181 126.5 300.5t334.5 136.5v124h199v-133q231 -32 413 -184l-159 -217q-125 98 -254 135v-328
q111 -27 187.5 -58t139 -77.5t93 -113.5t30.5 -156zM485 1024q0 -55 36 -87.5t120 -59.5v294q-71 -12 -113.5 -52.5t-42.5 -94.5zM840 240q70 15 108.5 55t38.5 94q0 53 -33.5 84.5t-113.5 56.5v-290z" />
    <glyph glyph-name="percent" unicode="%" horiz-adv-x="1789" 
d="M455 700q-155 0 -253 103t-98 256q0 155 98.5 258.5t254.5 103.5t253 -103.5t97 -256.5q0 -154 -98.5 -257.5t-253.5 -103.5zM289 0l979 1407h237l-979 -1407h-237zM457 877q65 0 107 50t42 134q0 81 -42.5 131.5t-108.5 50.5q-65 0 -106.5 -50t-41.5 -132t43 -133
t107 -51zM1335 -23q-156 0 -254 104t-98 257t98.5 256.5t253.5 103.5t253 -104t98 -256q0 -154 -99.5 -257.5t-251.5 -103.5zM1335 156q67 0 108.5 49.5t41.5 132.5q0 82 -43 133t-107 51q-68 0 -109.5 -50t-41.5 -134q0 -81 42.5 -131.5t108.5 -50.5z" />
    <glyph glyph-name="ampersand" unicode="&#x26;" horiz-adv-x="1478" 
d="M1382 78l-245 -111l-150 156q-184 -148 -409 -148q-207 0 -340.5 110t-133.5 298q0 138 72.5 231.5t233.5 165.5q-56 82 -78.5 146t-22.5 141q0 148 116.5 253t283.5 105q171 0 284 -101.5t113 -254.5q0 -115 -74 -190.5t-248 -155.5q89 -105 217 -242q84 123 138 258
l217 -102q-99 -200 -195 -326zM713 1210q-62 0 -105 -40.5t-43 -102.5q0 -46 21.5 -88t68.5 -102q107 43 150 83t43 107q0 62 -37.5 102.5t-97.5 40.5zM614 203q101 0 215 86q-143 150 -288 319q-140 -83 -140 -205q0 -91 61 -145.5t152 -54.5z" />
    <glyph glyph-name="quotesingle" unicode="'" horiz-adv-x="538" 
d="M209 807q-94 332 -94 453q0 66 45.5 112.5t109.5 46.5q63 0 109.5 -46.5t46.5 -112.5q0 -129 -96 -453h-121z" />
    <glyph glyph-name="parenleft" unicode="(" horiz-adv-x="780" 
d="M555 -348q-218 158 -338.5 389.5t-120.5 501.5q0 271 120 502t339 389l152 -160q-163 -167 -238.5 -339.5t-75.5 -391.5q0 -218 76 -391t238 -338z" />
    <glyph glyph-name="parenright" unicode=")" horiz-adv-x="780" 
d="M225 -348l-151 162q161 165 236 338t75 391q0 219 -75 391.5t-236 339.5l151 160q219 -158 339 -389t120 -502q0 -270 -120.5 -501.5t-338.5 -389.5z" />
    <glyph glyph-name="asterisk" unicode="*" horiz-adv-x="854" 
d="M428 707q-32 0 -55 21t-23 50q0 42 20 127t23 109q-23 -18 -84.5 -76.5t-95.5 -79.5q-25 -14 -55 -4.5t-47 37.5q-15 29 -8 58.5t32 43.5q35 21 117.5 45.5t105.5 34.5q-23 10 -105.5 34.5t-117.5 45.5q-25 13 -32 43.5t8 58.5q17 29 47 38.5t55 -5.5q34 -21 95.5 -79.5
t84.5 -75.5q-4 26 -24.5 109.5t-20.5 125.5q0 30 23.5 51t56.5 21q32 0 55 -21.5t23 -50.5q0 -42 -20.5 -125.5t-24.5 -109.5q23 17 84.5 75.5t95.5 79.5q25 14 55 4.5t47 -37.5q15 -29 9 -59t-31 -43q-36 -21 -118 -45t-107 -35q24 -10 106.5 -34.5t118.5 -45.5
q25 -13 31 -43.5t-9 -58.5q-17 -29 -47 -38.5t-55 5.5q-34 21 -95.5 79.5t-84.5 76.5q3 -26 24 -110t21 -126q0 -29 -23 -50t-55 -21z" />
    <glyph glyph-name="plus" unicode="+" horiz-adv-x="1214" 
d="M1102 805v-244h-365v-373h-258v373h-366v244h366v373h258v-373h365z" />
    <glyph glyph-name="comma" unicode="," horiz-adv-x="575" 
d="M256 -299l-106 82q95 86 124 192q-73 0 -126.5 55t-53.5 130q0 76 55 132t130 56q87 0 140.5 -71.5t53.5 -184.5q0 -183 -217 -391z" />
    <glyph glyph-name="hyphen" unicode="-" horiz-adv-x="741" 
d="M90 436v254h561v-254h-561z" />
    <glyph glyph-name="period" unicode="." horiz-adv-x="577" 
d="M291 -25q-79 0 -134 56t-55 135q0 73 55.5 127.5t133.5 54.5q74 0 128 -54.5t54 -127.5q0 -78 -53.5 -134.5t-128.5 -56.5z" />
    <glyph glyph-name="slash" unicode="/" horiz-adv-x="1067" 
d="M23 -152l706 1674h315l-706 -1674h-315z" />
    <glyph glyph-name="zero" unicode="0" horiz-adv-x="1464" 
d="M733 -25q-184 0 -328.5 92.5t-224.5 259t-80 378.5q0 211 80 376.5t224.5 258t328.5 92.5q182 0 326 -92.5t224.5 -258.5t80.5 -376q0 -211 -80.5 -378t-224.5 -259.5t-326 -92.5zM733 250q141 0 230.5 128t89.5 327q0 198 -89.5 325t-230.5 127q-142 0 -232.5 -127
t-90.5 -325q0 -199 90.5 -327t232.5 -128z" />
    <glyph glyph-name="one" unicode="1" horiz-adv-x="897" 
d="M428 0v1061l-240 -150l-120 213l421 283h242v-1407h-303z" />
    <glyph glyph-name="two" unicode="2" horiz-adv-x="1282" 
d="M104 0v246l519 401q122 96 171.5 171.5t49.5 152.5q0 85 -61.5 135.5t-151.5 50.5q-99 0 -181 -47t-163 -139l-193 186q217 275 545 275q225 0 370.5 -126t145.5 -323q0 -145 -74 -263t-254 -249l-256 -199h596v-272h-1063z" />
    <glyph glyph-name="three" unicode="3" horiz-adv-x="1280" 
d="M637 -27q-181 0 -326 64.5t-239 173.5l178 201q75 -80 172.5 -123t202.5 -43q113 0 179 48t66 124q0 165 -274 162h-162v258l162 -2q116 0 181 41t65 116q0 76 -66.5 122t-171.5 46q-173 0 -330 -164l-174 185q207 250 535 250q233 0 373.5 -107.5t140.5 -277.5
q0 -119 -72 -204t-192 -120q126 -29 210.5 -114t84.5 -216q0 -185 -149 -302.5t-394 -117.5z" />
    <glyph glyph-name="four" unicode="4" horiz-adv-x="1368" 
d="M795 0v287h-686l-29 233l651 887h367v-866h186v-254h-186v-287h-303zM397 541h398v544z" />
    <glyph glyph-name="five" unicode="5" horiz-adv-x="1292" 
d="M631 -27q-326 0 -543 217l176 213q175 -165 371 -165q116 0 185 61t69 154t-68.5 148.5t-183.5 55.5q-152 0 -275 -92l-202 82l20 760h934v-272h-653l-10 -312q123 86 276 86q126 0 230.5 -50.5t169.5 -153.5t65 -242q0 -224 -153.5 -357t-407.5 -133z" />
    <glyph glyph-name="six" unicode="6" horiz-adv-x="1331" 
d="M764 909q131 0 238 -52.5t172 -155t65 -238.5q0 -215 -153.5 -351.5t-385.5 -136.5q-150 0 -265.5 52t-187.5 147t-108.5 222.5t-36.5 283.5q0 217 80 388t228 267.5t340 96.5q240 0 430 -152l-144 -229q-67 57 -134 85.5t-152 28.5q-135 0 -223.5 -104.5t-108.5 -284.5
q64 63 155.5 98t190.5 35zM684 231q110 0 178 64.5t68 153.5q0 98 -73.5 156.5t-178.5 58.5q-86 0 -152.5 -43.5t-99.5 -118.5q21 -134 82 -202.5t176 -68.5z" />
    <glyph glyph-name="seven" unicode="7" horiz-adv-x="1218" 
d="M223 0l559 1135h-696v272h1047v-227l-568 -1180h-342z" />
    <glyph glyph-name="eight" unicode="8" horiz-adv-x="1327" 
d="M664 -25q-157 0 -284.5 46.5t-204.5 139.5t-77 216q0 121 75.5 211.5t201.5 138.5q-240 102 -240 322q0 119 76 208t194.5 132t258.5 43q143 0 261.5 -44.5t192.5 -133t74 -205.5q0 -218 -240 -322q128 -51 202.5 -141.5t74.5 -208.5q0 -124 -77.5 -217t-204.5 -139
t-283 -46zM664 831q90 6 159.5 55.5t69.5 123.5q0 72 -65 120t-164 48q-101 0 -165.5 -48t-64.5 -120q0 -77 69.5 -124.5t160.5 -54.5zM664 229q113 0 186.5 51t73.5 130q0 78 -80.5 129.5t-179.5 54.5q-99 -3 -180 -54.5t-81 -129.5q0 -79 73.5 -130t187.5 -51z" />
    <glyph glyph-name="nine" unicode="9" horiz-adv-x="1331" 
d="M631 1432q150 0 265.5 -52t187.5 -147t108.5 -222.5t36.5 -283.5q0 -218 -80 -388.5t-228 -267t-339 -96.5q-240 0 -430 152l143 229q67 -57 134.5 -85.5t152.5 -28.5q135 0 223 104.5t108 284.5q-64 -63 -155.5 -98t-190.5 -35q-131 0 -238 52.5t-172 155t-65 238.5
q0 215 153.5 351.5t385.5 136.5zM653 743q86 0 152.5 43.5t99.5 118.5q-21 134 -82 202.5t-176 68.5q-110 0 -178 -64.5t-68 -153.5q0 -98 73.5 -156.5t178.5 -58.5z" />
    <glyph glyph-name="colon" unicode=":" horiz-adv-x="589" 
d="M299 715q-81 0 -135.5 55.5t-54.5 134.5q0 73 55 127.5t135 54.5q74 0 128 -54.5t54 -127.5q0 -78 -53.5 -134t-128.5 -56zM299 -25q-81 0 -135.5 56t-54.5 135q0 73 55 127.5t135 54.5q74 0 128 -54.5t54 -127.5q0 -78 -53.5 -134.5t-128.5 -56.5z" />
    <glyph glyph-name="semicolon" unicode=";" horiz-adv-x="587" 
d="M295 715q-81 0 -136 55.5t-55 134.5q0 73 55.5 127.5t135.5 54.5q74 0 128 -54.5t54 -127.5q0 -78 -53.5 -134t-128.5 -56zM264 -299l-106 82q96 87 125 192q-73 0 -127 55t-54 130q0 77 54.5 132.5t130.5 55.5q86 0 140 -71.5t54 -184.5q0 -183 -217 -391z" />
    <glyph glyph-name="less" unicode="&#x3c;" horiz-adv-x="1216" 
d="M1069 168l-956 418v235l956 418v-242l-719 -295l719 -290v-244z" />
    <glyph glyph-name="equal" unicode="=" horiz-adv-x="1345" 
d="M178 803v244h989v-244h-989zM178 336v244h989v-244h-989z" />
    <glyph glyph-name="greater" unicode="&#x3e;" horiz-adv-x="1216" 
d="M147 168v244l719 290l-719 295v242l957 -418v-235z" />
    <glyph glyph-name="question" unicode="?" horiz-adv-x="1087" 
d="M377 483v336q142 6 232.5 57t90.5 125q0 66 -57 113t-147 47q-143 0 -260 -127l-173 176q198 222 482 222q204 0 332.5 -113.5t128.5 -288.5q0 -138 -101.5 -250t-261.5 -149v-148h-266zM510 -25q-79 0 -135 56.5t-56 134.5q0 73 56 127.5t135 54.5q74 0 128 -54.5
t54 -127.5q0 -78 -53.5 -134.5t-128.5 -56.5z" />
    <glyph glyph-name="at" unicode="@" horiz-adv-x="1851" 
d="M897 -238q-162 0 -307.5 61t-249 164t-164.5 245.5t-61 299.5q0 171 68.5 328t184 272t275 183.5t332.5 68.5q160 0 303 -58t243.5 -155t159 -227.5t58.5 -271.5q0 -127 -37 -229.5t-98 -164t-132.5 -94t-146.5 -32.5q-101 0 -165.5 43t-88.5 118q-59 -74 -137 -116.5
t-166 -42.5q-154 0 -249 102.5t-95 267.5q0 137 65 256t170.5 187.5t223.5 68.5q182 0 270 -147l25 119l245 -19q-17 -86 -36.5 -184.5t-30 -149.5t-20 -104t-13.5 -83t-4 -52q0 -54 29.5 -83.5t81.5 -29.5q91 0 157 95.5t66 273.5q0 130 -52 246t-141.5 201t-216.5 134.5
t-272 49.5q-157 0 -300 -61.5t-246.5 -165t-164.5 -245.5t-61 -296q0 -142 54 -270t147 -221t223.5 -147.5t277.5 -54.5q124 0 228 30.5t210 94.5l41 -63q-222 -142 -483 -142zM856 360q98 0 165.5 76t78.5 193q9 92 -34 146t-128 54q-108 0 -183 -84.5t-75 -199.5
q0 -86 48 -135.5t128 -49.5z" />
    <glyph glyph-name="A" unicode="A" 
d="M1196 0l-98 242h-611l-98 -242h-338l572 1407h340l571 -1407h-338zM584 477h417l-208 512z" />
    <glyph glyph-name="B" unicode="B" horiz-adv-x="1419" 
d="M145 0v1407h713q189 0 308.5 -99t119.5 -253q0 -209 -199 -314q124 -56 192.5 -150t68.5 -210q0 -168 -130 -274.5t-333 -106.5h-740zM446 840h338q83 0 137 43.5t54 111.5q0 66 -54 110t-137 44h-338v-309zM446 258h383q91 0 149 48.5t58 123.5t-58 123.5t-149 48.5
h-383v-344z" />
    <glyph glyph-name="C" unicode="C" horiz-adv-x="1421" 
d="M821 -25q-199 0 -371.5 99.5t-274 268t-101.5 362.5q0 145 60 279.5t160.5 232.5t239 156.5t287.5 58.5q157 0 298.5 -62.5t246.5 -173.5l-219 -197q-62 73 -147 115.5t-179 42.5q-116 0 -216.5 -61.5t-160 -166t-59.5 -224.5q0 -121 59.5 -226t160 -167t216.5 -62
q94 0 179 42.5t149 115.5l217 -197q-105 -110 -247 -173t-298 -63z" />
    <glyph glyph-name="D" unicode="D" horiz-adv-x="1531" 
d="M145 0v1407h504q234 0 418.5 -89t287.5 -249.5t103 -363.5q0 -204 -103 -364.5t-287.5 -250.5t-418.5 -90h-504zM446 274h242q202 0 330.5 121t128.5 310q0 188 -128.5 308t-330.5 120h-242v-859z" />
    <glyph glyph-name="E" unicode="E" horiz-adv-x="1339" 
d="M1229 1135h-780v-281h706v-272h-706v-310h780v-272h-1084v1407h1084v-272z" />
    <glyph glyph-name="F" unicode="F" horiz-adv-x="1308" 
d="M1229 1135h-780v-306h706v-272h-706v-557h-304v1407h1084v-272z" />
    <glyph glyph-name="G" unicode="G" horiz-adv-x="1490" 
d="M774 555v236h621v-580q-104 -110 -256.5 -173t-311.5 -63q-152 0 -291 58.5t-240.5 156.5t-161.5 233t-60 282q0 146 60 280.5t161.5 232.5t240.5 156t291 58q159 0 311.5 -63t256.5 -173l-219 -197q-61 72 -156.5 115t-192.5 43q-181 0 -311.5 -133.5t-130.5 -318.5
q0 -186 130.5 -320.5t311.5 -134.5q145 0 273 88v217h-326z" />
    <glyph glyph-name="H" unicode="H" horiz-adv-x="1533" 
d="M1087 1407h304v-1407h-304v582h-641v-582h-301v1407h301v-553h641v553z" />
    <glyph glyph-name="I" unicode="I" horiz-adv-x="591" 
d="M145 0v1407h301v-1407h-301z" />
    <glyph glyph-name="J" unicode="J" horiz-adv-x="1120" 
d="M514 -25q-135 0 -268 65.5t-203 168.5l201 197q34 -69 100 -112.5t137 -43.5q94 0 154.5 65.5t60.5 167.5v924h301v-948q0 -212 -135.5 -348t-347.5 -136z" />
    <glyph glyph-name="K" unicode="K" horiz-adv-x="1472" 
d="M145 0v1407h301v-645l570 645h366l-548 -610l587 -797h-366l-432 582l-177 -189v-393h-301z" />
    <glyph glyph-name="L" unicode="L" horiz-adv-x="1212" 
d="M446 272h701v-272h-1002v1407h301v-1135z" />
    <glyph glyph-name="M" unicode="M" horiz-adv-x="1765" 
d="M145 0v1407h301l437 -795l434 795h303v-1407h-303v877l-434 -795l-437 795v-877h-301z" />
    <glyph glyph-name="N" unicode="N" horiz-adv-x="1572" 
d="M145 0v1407h301l680 -909v909h301v-1407h-301l-680 909v-909h-301z" />
    <glyph glyph-name="O" unicode="O" horiz-adv-x="1642" 
d="M821 -25q-199 0 -371.5 99.5t-274 268t-101.5 362.5q0 145 60 279.5t160.5 232.5t239 156.5t287.5 58.5t287.5 -58.5t239 -156.5t161 -232.5t60.5 -279.5t-60.5 -280t-161 -233.5t-239 -157.5t-287.5 -59zM821 250q117 0 217.5 62t159.5 167t59 226q0 183 -129 317.5
t-307 134.5q-116 0 -216.5 -61.5t-160 -166t-59.5 -224.5q0 -121 59.5 -226t160 -167t216.5 -62z" />
    <glyph glyph-name="P" unicode="P" horiz-adv-x="1376" 
d="M145 0v1407h633q230 0 380.5 -133.5t150.5 -341.5t-150.5 -341.5t-380.5 -133.5h-332v-457h-301zM446 733h302q111 0 180 54.5t69 144.5t-69 144t-180 54h-302v-397z" />
    <glyph glyph-name="Q" unicode="Q" horiz-adv-x="1650" 
d="M1569 705q0 -228 -139 -416l126 -111l-153 -178l-139 121q-203 -146 -443 -146q-199 0 -371.5 99.5t-274 268t-101.5 362.5q0 145 60 279.5t160.5 232.5t239 156.5t287.5 58.5t287.5 -58.5t239 -156.5t161 -232.5t60.5 -279.5zM821 250q117 0 219 63l-168 148l154 178
l176 -154q55 104 55 220q0 183 -129 317.5t-307 134.5q-116 0 -216.5 -61.5t-160 -166t-59.5 -224.5q0 -121 59.5 -226t160 -167t216.5 -62z" />
    <glyph glyph-name="R" unicode="R" horiz-adv-x="1396" 
d="M1309 932q0 -164 -96 -284.5t-257 -166.5l338 -481h-344l-321 457h-183v-457h-301v1407h633q230 0 380.5 -133.5t150.5 -341.5zM446 1130v-397h302q111 0 180 54.5t69 144.5t-69 144t-180 54h-302z" />
    <glyph glyph-name="S" unicode="S" horiz-adv-x="1300" 
d="M682 -25q-183 0 -342.5 60t-282.5 174l174 207q214 -185 463 -185q110 0 170 44.5t60 113.5q0 71 -62.5 106t-234.5 74q-99 23 -168 44.5t-138 56t-110 76.5t-66.5 104.5t-25.5 142.5q0 195 145 317t375 122q324 0 551 -195l-158 -217q-195 156 -401 156
q-94 0 -150.5 -43.5t-56.5 -108.5q0 -73 64 -109t237 -75q98 -22 169.5 -44.5t138 -57t107.5 -77t65 -103t24 -136.5q0 -203 -146 -325t-401 -122z" />
    <glyph glyph-name="T" unicode="T" horiz-adv-x="1308" 
d="M504 0v1135h-438v272h1179v-272h-440v-1135h-301z" />
    <glyph glyph-name="U" unicode="U" horiz-adv-x="1503" 
d="M752 -25q-280 0 -458.5 177.5t-178.5 455.5v799h303v-786q0 -163 93.5 -267t240.5 -104t240 104t93 267v786h304v-799q0 -278 -178.5 -455.5t-458.5 -177.5z" />
    <glyph glyph-name="V" unicode="V" horiz-adv-x="1591" 
d="M1198 1407h340l-573 -1407h-338l-574 1407h340l404 -991z" />
    <glyph glyph-name="W" unicode="W" horiz-adv-x="2238" 
d="M483 0l-428 1407h330l258 -944l313 944h328l311 -944l258 944h330l-426 -1407h-303l-334 967l-334 -967h-303z" />
    <glyph glyph-name="X" unicode="X" horiz-adv-x="1497" 
d="M1442 1407l-516 -700l516 -707h-359l-335 461l-340 -461h-351l514 700l-514 707h357l338 -461l338 461h352z" />
    <glyph glyph-name="Y" unicode="Y" horiz-adv-x="1499" 
d="M598 0v508l-551 899h352l351 -616l364 616h338l-549 -899v-508h-305z" />
    <glyph glyph-name="Z" unicode="Z" horiz-adv-x="1345" 
d="M92 0l-2 229l739 906h-723v272h1139v-229l-739 -906h747v-272h-1161z" />
    <glyph glyph-name="bracketleft" unicode="[" horiz-adv-x="819" 
d="M168 -291v1739h557v-195h-322v-1349h322v-195h-557z" />
    <glyph glyph-name="backslash" unicode="\" horiz-adv-x="1067" 
d="M729 -152l-706 1674h315l706 -1674h-315z" />
    <glyph glyph-name="bracketright" unicode="]" horiz-adv-x="819" 
d="M96 -291v195h322v1349h-322v195h555v-1739h-555z" />
    <glyph glyph-name="asciicircum" unicode="^" horiz-adv-x="1032" 
d="M104 846l310 561h207l305 -561h-213l-199 377l-199 -377h-211z" />
    <glyph glyph-name="underscore" unicode="_" horiz-adv-x="1384" 
d="M82 -311v174h1221v-174h-1221z" />
    <glyph glyph-name="grave" unicode="`" horiz-adv-x="577" 
d="M336 1178l-303 270l268 49l238 -319h-203z" />
    <glyph glyph-name="a" unicode="a" horiz-adv-x="1136" 
d="M578 1083q209 0 337.5 -122.5t128.5 -327.5v-633h-288v106q-56 -62 -140.5 -96.5t-173.5 -34.5q-171 0 -284 94t-113 244q0 102 58.5 183.5t158.5 125.5t221 44q137 0 273 -56v23q0 92 -61.5 151.5t-184.5 59.5q-126 0 -274 -76l-101 199q229 116 443 116zM510 182
q90 0 159.5 40.5t86.5 111.5v96q-103 41 -230 41q-82 0 -139 -42.5t-57 -106.5q0 -63 51 -101.5t129 -38.5z" />
    <glyph glyph-name="b" unicode="b" horiz-adv-x="1327" 
d="M782 1083q213 0 349.5 -155t136.5 -398q0 -244 -136.5 -399.5t-349.5 -155.5q-109 0 -200.5 46t-155.5 129v-150h-299v1432h299v-523q64 83 155.5 128.5t200.5 45.5zM696 227q123 0 202 85t79 218q0 132 -79 216.5t-202 84.5q-120 0 -195 -84.5t-75 -216.5
q0 -134 75 -218.5t195 -84.5z" />
    <glyph glyph-name="c" unicode="c" horiz-adv-x="1085" 
d="M627 -25q-153 0 -286 75.5t-211.5 203.5t-78.5 276q0 111 46.5 213t125 176.5t185.5 119t223 44.5q125 0 230.5 -47.5t182.5 -132.5l-198 -170q-39 45 -97.5 71.5t-119.5 26.5q-117 0 -202 -88.5t-85 -210.5q0 -124 85 -214.5t202 -90.5q62 0 122.5 28.5t100.5 74.5
l199 -168q-79 -89 -187 -138t-237 -49z" />
    <glyph glyph-name="d" unicode="d" horiz-adv-x="1327" 
d="M901 1432h299v-1432h-299v150q-64 -83 -155.5 -129t-200.5 -46q-213 0 -349.5 155.5t-136.5 399.5q0 243 136.5 398t349.5 155q109 0 200.5 -45.5t155.5 -128.5v523zM631 227q120 0 195 84.5t75 218.5q0 132 -75 216.5t-195 84.5q-123 0 -202 -84.5t-79 -216.5
q0 -133 79 -218t202 -85z" />
    <glyph glyph-name="e" unicode="e" horiz-adv-x="1179" 
d="M610 207q72 0 148 29t127 75l168 -172q-70 -73 -192 -118.5t-240 -45.5q-156 0 -286 70.5t-206 198.5t-76 288q0 157 73 283.5t199 197t279 70.5q249 0 391 -168.5t142 -463.5h-799q21 -110 93 -177t179 -67zM606 852q-99 0 -170 -60.5t-96 -162.5h510
q-19 102 -82.5 162.5t-161.5 60.5z" />
    <glyph glyph-name="f" unicode="f" horiz-adv-x="776" 
d="M487 1116v-57h230v-242h-230v-817h-288v817h-146v242h146v92q0 143 89 233.5t230 90.5q63 0 129.5 -26t112.5 -67l-72 -182q-35 35 -102 35q-42 0 -70.5 -33.5t-28.5 -85.5z" />
    <glyph glyph-name="g" unicode="g" horiz-adv-x="1296" 
d="M879 1059h299v-946q0 -204 -160 -334.5t-410 -130.5q-136 0 -260.5 39t-206.5 102l105 211q52 -46 138.5 -73t178.5 -27q145 0 230.5 61t85.5 164v119q-64 -79 -155 -122.5t-196 -43.5q-202 0 -336.5 142t-134.5 362t134 360.5t337 140.5q105 0 201 -46t150 -122v144z
M623 330q112 0 184 71t72 181t-71.5 179.5t-184.5 69.5t-184.5 -69.5t-71.5 -179.5t72 -181t184 -71z" />
    <glyph glyph-name="h" unicode="h" horiz-adv-x="1230" 
d="M743 1083q174 0 284 -114t110 -295v-674h-287v610q0 98 -57 159.5t-146 61.5q-94 0 -157.5 -59t-63.5 -145v-627h-299v1432h299v-502q50 71 133.5 112t183.5 41z" />
    <glyph glyph-name="i" unicode="i" horiz-adv-x="530" 
d="M266 1204q-69 0 -116.5 48t-47.5 116q0 64 48 112t116 48q66 0 114 -48t48 -112q0 -67 -48 -115.5t-114 -48.5zM115 0v1059h299v-1059h-299z" />
    <glyph glyph-name="j" unicode="j" horiz-adv-x="546" 
d="M270 1204q-68 0 -116 48t-48 116q0 64 48.5 112t115.5 48t114.5 -48t47.5 -112q0 -68 -47.5 -116t-114.5 -48zM94 -365q-55 0 -114.5 12t-96.5 31l31 222q55 -19 111 -19q44 0 72 33t28 86v1059h299v-1090q0 -146 -92.5 -240t-237.5 -94z" />
    <glyph glyph-name="k" unicode="k" horiz-adv-x="1204" 
d="M127 0v1432h299v-832l395 459h344l-413 -469l407 -590h-342l-264 397l-127 -139v-258h-299z" />
    <glyph glyph-name="l" unicode="l" horiz-adv-x="552" 
d="M127 0v1432h299v-1432h-299z" />
    <glyph glyph-name="m" unicode="m" horiz-adv-x="1867" 
d="M1380 1083q167 0 279.5 -115.5t112.5 -293.5v-672h-287v621q0 92 -52.5 150t-134.5 58q-91 0 -147.5 -53.5t-56.5 -138.5v-637h-289v621q0 92 -52 150t-135 58q-91 0 -147.5 -53.5t-56.5 -138.5v-637h-299v1057h299v-139q39 76 115 119.5t173 43.5q105 0 192 -48.5
t138 -133.5q48 85 139 133.5t209 48.5z" />
    <glyph glyph-name="n" unicode="n" horiz-adv-x="1220" 
d="M733 1083q172 0 281.5 -114t109.5 -295v-674h-286v610q0 98 -56 159.5t-145 61.5q-94 0 -158.5 -59t-64.5 -145v-627h-299v1059h299v-131q48 71 132.5 113t186.5 42z" />
    <glyph glyph-name="o" unicode="o" horiz-adv-x="1257" 
d="M629 -25q-156 0 -289 74.5t-211 202.5t-78 278t78 277.5t211 201.5t289 74q117 0 223.5 -44t184 -118t123.5 -176.5t46 -214.5t-46 -215t-123.5 -177.5t-184 -118.5t-223.5 -44zM629 227q120 0 205.5 89t85.5 214q0 124 -85.5 212.5t-205.5 88.5t-205.5 -88.5
t-85.5 -212.5q0 -125 85.5 -214t205.5 -89z" />
    <glyph glyph-name="p" unicode="p" horiz-adv-x="1327" 
d="M782 1083q213 0 349.5 -155t136.5 -398q0 -244 -136.5 -399.5t-349.5 -155.5q-109 0 -200.5 46t-155.5 129v-502h-299v1411h299v-150q64 83 155.5 128.5t200.5 45.5zM696 227q123 0 202 85t79 218q0 132 -79 216.5t-202 84.5q-120 0 -195 -84.5t-75 -216.5
q0 -134 75 -218.5t195 -84.5z" />
    <glyph glyph-name="q" unicode="q" horiz-adv-x="1327" 
d="M901 1059h299v-1411h-299v502q-64 -83 -155.5 -129t-200.5 -46q-213 0 -349.5 155.5t-136.5 399.5q0 243 136.5 398t349.5 155q109 0 200.5 -45.5t155.5 -128.5v150zM631 227q120 0 195 84.5t75 218.5q0 132 -75 216.5t-195 84.5q-123 0 -202 -84.5t-79 -216.5
q0 -133 79 -218t202 -85z" />
    <glyph glyph-name="r" unicode="r" horiz-adv-x="821" 
d="M414 860q53 104 147.5 163.5t214.5 59.5v-252q-166 0 -264 -88t-98 -237v-506h-299v1059h299v-199z" />
    <glyph glyph-name="s" unicode="s" horiz-adv-x="1005" 
d="M520 -25q-127 0 -254 42t-223 118l121 189q84 -59 181 -94t181 -35q74 0 114 26t40 72q0 25 -14 44t-44.5 33.5t-61.5 24.5t-81 23q-62 15 -105.5 28t-91.5 32t-79.5 42t-58.5 54t-39.5 72.5t-12.5 92.5q0 152 114 248t300 96q218 0 418 -131l-111 -192
q-166 108 -307 108q-61 0 -101 -27t-40 -71q0 -40 40 -60t160 -53q48 -12 80 -21.5t76.5 -26t74 -33.5t61.5 -43t51 -56t31.5 -71t12.5 -89q0 -156 -118 -249t-314 -93z" />
    <glyph glyph-name="t" unicode="t" horiz-adv-x="808" 
d="M684 262l72 -194q-46 -41 -112.5 -67t-129.5 -26q-141 0 -230 90.5t-89 233.5v518h-146v242h146v291h288v-291h230v-242h-230v-471q0 -52 29 -85.5t72 -33.5q65 0 100 35z" />
    <glyph glyph-name="u" unicode="u" horiz-adv-x="1218" 
d="M807 1059h297v-1059h-297v131q-48 -71 -133.5 -113.5t-186.5 -42.5q-173 0 -283 114.5t-110 295.5v674h289v-610q0 -98 56 -160t145 -62q94 0 158.5 59.5t64.5 145.5v627z" />
    <glyph glyph-name="v" unicode="v" horiz-adv-x="1245" 
d="M487 0l-458 1059h313l285 -715l278 715h312l-453 -1059h-277z" />
    <glyph glyph-name="w" unicode="w" horiz-adv-x="1718" 
d="M393 0l-360 1059h293l200 -660l209 660h248l211 -660l199 660h293l-359 -1059h-268l-199 666l-198 -666h-269z" />
    <glyph glyph-name="x" unicode="x" horiz-adv-x="1167" 
d="M1133 0h-322l-229 319l-232 -319h-315l389 539l-373 520h324l211 -295l213 295h315l-371 -514z" />
    <glyph glyph-name="y" unicode="y" horiz-adv-x="1220" 
d="M375 -369q-65 0 -137 18t-127 48l63 205q79 -47 139 -47q90 0 133 73l29 62l-440 1069h309l279 -744l262 744h305l-432 -1112q-61 -155 -159 -235.5t-224 -80.5z" />
    <glyph glyph-name="z" unicode="z" horiz-adv-x="1077" 
d="M74 0v211l532 594h-518v254h907l-2 -211l-530 -594h536v-254h-925z" />
    <glyph glyph-name="braceleft" unicode="{" horiz-adv-x="854" 
d="M741 -340q-259 21 -368 108t-109 263l4 248q0 94 -46 135t-150 41v180q106 0 151 41.5t45 134.5l-4 246q0 176 109 262t368 108l25 -182q-114 -15 -169 -37t-76 -60.5t-21 -113.5l2 -258q0 -178 -160 -231q160 -53 160 -234l-2 -256q0 -109 51 -150t215 -63z" />
    <glyph glyph-name="bar" unicode="|" horiz-adv-x="587" 
d="M190 -152v1674h207v-1674h-207z" />
    <glyph glyph-name="braceright" unicode="}" horiz-adv-x="854" 
d="M113 -340l-25 182q164 22 215 63t51 150l-2 256q0 181 160 234q-160 53 -160 231l2 258q0 75 -21 113.5t-76 60.5t-169 37l25 182q259 -22 368 -108t109 -262l-4 -246q0 -93 45 -134.5t151 -41.5v-180q-104 0 -150 -41t-46 -135l4 -248q0 -176 -109 -263t-368 -108z" />
    <glyph glyph-name="asciitilde" unicode="~" horiz-adv-x="980" 
d="M629 602q-40 0 -82 16.5t-71.5 36t-62 36t-53.5 16.5q-68 0 -88 -107l-147 21q17 137 72 203.5t155 66.5q49 0 102.5 -26.5t97 -52.5t69.5 -26q67 0 88 109l147 -23q-30 -270 -227 -270z" />
    <glyph glyph-name="exclamdown" unicode="&#xa1;" horiz-adv-x="610" 
d="M303 1083q81 0 136 -55.5t55 -134.5q0 -73 -55.5 -127.5t-135.5 -54.5q-74 0 -128 54.5t-54 127.5q0 78 53.5 134t128.5 56zM406 563l67 -911h-338l68 911h203z" />
    <glyph glyph-name="cent" unicode="&#xa2;" horiz-adv-x="1253" 
d="M1135 162q-128 -144 -324 -178v-136h-201v136q-201 36 -338 191.5t-137 354.5q0 198 137 352.5t338 190.5v133h201v-131q187 -30 317 -172l-198 -170q-50 57 -119 80v-567q71 23 125 84zM426 532q0 -94 51.5 -172t132.5 -112v563q-81 -34 -132.5 -110.5t-51.5 -168.5z
" />
    <glyph glyph-name="sterling" unicode="&#xa3;" horiz-adv-x="1441" 
d="M610 236h701v-236h-1180v125l176 111v284h-141v162h141v266q0 212 136 348t350 136q141 0 274 -65.5t197 -168.5l-201 -197q-28 69 -95.5 112.5t-144.5 43.5q-93 0 -153 -65.5t-60 -167.5v-242h334v-162h-334v-284z" />
    <glyph glyph-name="yen" unicode="&#xa5;" horiz-adv-x="1630" 
d="M1518 1407l-457 -748h266v-161h-358v-131h358v-162h-358v-205h-305v205h-353v162h353v131h-353v161h260l-458 748h352l350 -616l365 616h338z" />
    <glyph glyph-name="dieresis" unicode="&#xa8;" horiz-adv-x="837" 
d="M203 1196q-62 0 -104 42t-42 101t42 101.5t104 42.5q58 0 100.5 -42.5t42.5 -101.5t-42 -101t-101 -42zM637 1196q-61 0 -103 42t-42 101t42 101.5t103 42.5q58 0 100.5 -42.5t42.5 -101.5t-42 -101t-101 -42z" />
    <glyph glyph-name="copyright" unicode="&#xa9;" horiz-adv-x="1855" 
d="M928 -238q-164 0 -314.5 64t-259.5 172.5t-174 259t-65 315.5q0 164 65 314t174 258.5t259.5 172.5t314.5 64t314 -64t259 -172.5t173.5 -258.5t64.5 -314q0 -165 -64.5 -315.5t-173.5 -259t-259 -172.5t-314 -64zM928 -156q197 0 365 98t266 266t98 365q0 196 -98 363.5
t-266 265.5t-365 98t-365 -98t-266 -265.5t-98 -363.5q0 -197 98 -365t266 -266t365 -98zM940 18q-153 0 -285.5 75.5t-211 203.5t-78.5 276t78.5 275.5t212 202.5t288.5 75q125 0 231 -47.5t183 -132.5l-199 -170q-39 45 -98 71.5t-121 26.5q-117 0 -201 -88.5t-84 -210.5
q0 -125 84.5 -215t202.5 -90q62 0 122.5 28.5t100.5 74.5l199 -168q-169 -187 -424 -187z" />
    <glyph glyph-name="guillemotleft" unicode="&#xab;" horiz-adv-x="1212" 
d="M410 102l-338 418l338 414l235 -49l-291 -365l291 -366zM889 102l-338 418l338 414l235 -49l-290 -365l290 -366z" />
    <glyph glyph-name="registered" unicode="&#xae;" horiz-adv-x="1251" 
d="M627 1382q102 0 195 -40t160.5 -107t107.5 -159.5t40 -194.5q0 -136 -67.5 -252t-183.5 -184t-252 -68q-137 0 -253.5 68t-184.5 184t-68 252t68 251.5t184.5 182.5t253.5 67zM627 459q175 0 298.5 123.5t123.5 298.5q0 173 -123.5 296t-298.5 123t-299.5 -123
t-124.5 -296q0 -175 124.5 -298.5t299.5 -123.5zM895 975q0 -66 -36 -118t-97 -77l143 -207h-178l-131 187h-55v-187h-166v615h278q105 0 173.5 -60t68.5 -153zM541 1020v-94h106q28 0 46 13.5t18 35.5q0 20 -18 32.5t-46 12.5h-106z" />
    <glyph glyph-name="macron" unicode="&#xaf;" horiz-adv-x="874" 
d="M84 1190v176h707v-176h-707z" />
    <glyph glyph-name="degree" unicode="&#xb0;" horiz-adv-x="860" 
d="M430 829q-132 0 -218.5 85.5t-86.5 215.5q0 131 86.5 216.5t218.5 85.5t218.5 -85.5t86.5 -216.5q0 -130 -86.5 -215.5t-218.5 -85.5zM430 993q58 0 95.5 38.5t37.5 98.5t-37.5 99t-95.5 39t-95.5 -39t-37.5 -99t37.5 -98.5t95.5 -38.5z" />
    <glyph glyph-name="acute" unicode="&#xb4;" horiz-adv-x="579" 
d="M39 1178l237 319l269 -49l-303 -270h-203z" />
    <glyph glyph-name="paragraph" unicode="&#xb6;" horiz-adv-x="1470" 
d="M596 -102v680q-225 0 -358.5 113t-133.5 298q0 184 130 299t335 115h711v-1505h-219v1300h-246v-1300h-219z" />
    <glyph glyph-name="periodcentered" unicode="&#xb7;" horiz-adv-x="540" 
d="M270 399q-71 0 -119.5 48t-48.5 120q0 69 49 117.5t119 48.5q69 0 118.5 -48.5t49.5 -117.5q0 -71 -49 -119.5t-119 -48.5z" />
    <glyph glyph-name="cedilla" unicode="&#xb8;" horiz-adv-x="514" 
d="M307 -88q66 0 109 -39t43 -100q0 -80 -62 -128t-159 -48q-115 0 -195 59l55 119q56 -47 123 -47q36 0 61 17t25 44q0 25 -16.5 40t-48.5 15q-38 0 -62 -18l-45 43l66 154h151l-47 -111h2z" />
    <glyph glyph-name="guillemotright" unicode="&#xbb;" horiz-adv-x="1212" 
d="M324 102l-236 52l291 366l-291 365l236 49l338 -414zM803 102l-236 52l291 366l-291 365l236 49l338 -414z" />
    <glyph glyph-name="questiondown" unicode="&#xbf;" horiz-adv-x="1087" 
d="M578 1083q79 0 133.5 -55.5t54.5 -134.5q0 -73 -55 -127.5t-133 -54.5q-74 0 -128.5 54.5t-54.5 127.5q0 78 54 134t129 56zM709 575v-335q-141 -6 -231.5 -57.5t-90.5 -125.5q0 -66 57.5 -112.5t147.5 -46.5q143 0 260 127l172 -177q-92 -103 -214 -162t-267 -59
q-204 0 -332.5 113.5t-128.5 288.5q0 138 101 250t259 149v147h267z" />
    <glyph glyph-name="Agrave" unicode="&#xc0;" 
d="M899 1526h-203l-303 270l269 49zM1196 0l-98 242h-611l-98 -242h-338l572 1407h340l571 -1407h-338zM584 477h417l-208 512z" />
    <glyph glyph-name="Aacute" unicode="&#xc1;" 
d="M1194 1796l-303 -270h-203l238 319zM1196 0l-98 242h-611l-98 -242h-338l572 1407h340l571 -1407h-338zM584 477h417l-208 512z" />
    <glyph glyph-name="Acircumflex" unicode="&#xc2;" 
d="M795 1677l-154 -151h-184l213 301h248l219 -301h-187zM1196 0l-98 242h-611l-98 -242h-338l572 1407h340l571 -1407h-338zM584 477h417l-208 512z" />
    <glyph glyph-name="Atilde" unicode="&#xc3;" 
d="M662 1626q-67 0 -87 -108l-149 22q17 135 72.5 202.5t154.5 67.5q49 0 103 -26t98 -52t70 -26q66 0 86 106l147 -20q-15 -136 -70.5 -203t-156.5 -67q-49 0 -101.5 26t-96 52t-70.5 26zM1196 0l-98 242h-611l-98 -242h-338l572 1407h340l571 -1407h-338zM584 477h417
l-208 512z" />
    <glyph glyph-name="Adieresis" unicode="&#xc4;" 
d="M578 1544q-62 0 -104 42.5t-42 101.5t42 101t104 42q58 0 100.5 -42.5t42.5 -100.5q0 -59 -42.5 -101.5t-100.5 -42.5zM1012 1544q-61 0 -103.5 42.5t-42.5 101.5t42.5 101t103.5 42q58 0 100.5 -42.5t42.5 -100.5q0 -59 -42.5 -101.5t-100.5 -42.5zM1196 0l-98 242h-611
l-98 -242h-338l572 1407h340l571 -1407h-338zM584 477h417l-208 512z" />
    <glyph glyph-name="Aring" unicode="&#xc5;" 
d="M795 1538q-96 0 -165 67.5t-69 163.5t69 165t165 69q97 0 165 -68.5t68 -165.5t-68 -164t-165 -67zM795 1878q-44 0 -76.5 -32.5t-32.5 -76.5t32.5 -76t76.5 -32t76 32t32 76t-32 76.5t-76 32.5zM1196 0l-98 242h-611l-98 -242h-338l572 1407h340l571 -1407h-338z
M584 477h417l-208 512z" />
    <glyph glyph-name="AE" unicode="&#xc6;" horiz-adv-x="2244" 
d="M47 0l811 1407h1276v-272h-780v-281h706v-272h-706v-310h780v-272h-1083v242h-516l-140 -242h-348zM672 477h379v658z" />
    <glyph glyph-name="Ccedilla" unicode="&#xc7;" horiz-adv-x="1421" 
d="M821 250q94 0 179 42.5t149 115.5l217 -197q-94 -98 -217.5 -159.5t-261.5 -74.5l-29 -65h2q66 0 109 -39t43 -100q0 -80 -62 -128t-159 -48q-115 0 -195 59l55 119q56 -47 123 -47q36 0 61 17t25 44q0 25 -16.5 40t-48.5 15q-38 0 -62 -18l-45 43l47 111
q-136 16 -258 80t-210.5 160.5t-140.5 223t-52 261.5q0 145 60 279.5t160.5 232.5t239 156.5t287.5 58.5q157 0 298.5 -62.5t246.5 -173.5l-219 -197q-62 73 -147 115.5t-179 42.5q-116 0 -216.5 -61.5t-160 -166t-59.5 -224.5q0 -121 59.5 -226t160 -167t216.5 -62z" />
    <glyph glyph-name="Egrave" unicode="&#xc8;" horiz-adv-x="1339" 
d="M795 1526h-203l-303 270l268 49zM1229 1135h-780v-281h706v-272h-706v-310h780v-272h-1084v1407h1084v-272z" />
    <glyph glyph-name="Eacute" unicode="&#xc9;" horiz-adv-x="1339" 
d="M1090 1796l-304 -270h-202l237 319zM1229 1135h-780v-281h706v-272h-706v-310h780v-272h-1084v1407h1084v-272z" />
    <glyph glyph-name="Ecircumflex" unicode="&#xca;" horiz-adv-x="1339" 
d="M688 1677l-153 -151h-185l213 301h248l219 -301h-186zM1229 1135h-780v-281h706v-272h-706v-310h780v-272h-1084v1407h1084v-272z" />
    <glyph glyph-name="Edieresis" unicode="&#xcb;" horiz-adv-x="1339" 
d="M471 1544q-62 0 -103.5 42.5t-41.5 101.5t41.5 101t103.5 42q59 0 101 -42.5t42 -100.5q0 -59 -42.5 -101.5t-100.5 -42.5zM905 1544q-61 0 -103 42.5t-42 101.5t42 101t103 42q59 0 101.5 -42.5t42.5 -100.5t-42.5 -101t-101.5 -43zM1229 1135h-780v-281h706v-272h-706
v-310h780v-272h-1084v1407h1084v-272z" />
    <glyph glyph-name="Igrave" unicode="&#xcc;" horiz-adv-x="591" 
d="M199 1526l-303 270l268 49l237 -319h-202zM145 0v1407h301v-1407h-301z" />
    <glyph glyph-name="Iacute" unicode="&#xcd;" horiz-adv-x="591" 
d="M190 1526l238 319l268 -49l-303 -270h-203zM145 0v1407h301v-1407h-301z" />
    <glyph glyph-name="Icircumflex" unicode="&#xce;" horiz-adv-x="591" 
d="M-41 1526l213 301h248l219 -301h-186l-156 151l-154 -151h-184zM145 0v1407h301v-1407h-301z" />
    <glyph glyph-name="Idieresis" unicode="&#xcf;" horiz-adv-x="591" 
d="M80 1544q-62 0 -104 42.5t-42 101.5t42 101t104 42q58 0 100.5 -42.5t42.5 -100.5q0 -59 -42.5 -101.5t-100.5 -42.5zM514 1544q-61 0 -103 42.5t-42 101.5t42 101t103 42q58 0 100.5 -42.5t42.5 -100.5q0 -59 -42.5 -101.5t-100.5 -42.5zM145 0v1407h301v-1407h-301z
" />
    <glyph glyph-name="Eth" unicode="&#xd0;" horiz-adv-x="1597" 
d="M717 1407q234 0 418 -89t286.5 -249t102.5 -364t-102.5 -364.5t-286.5 -250.5t-418 -90h-506v573h-145v273h145v561h506zM756 274q201 0 329.5 121t128.5 310q0 188 -128.5 308t-329.5 120h-242v-287h328l-2 -273h-326v-299h242z" />
    <glyph glyph-name="Ntilde" unicode="&#xd1;" horiz-adv-x="1572" 
d="M924 1522q-49 0 -102 26t-96.5 52t-70.5 26q-34 0 -55 -25.5t-31 -82.5l-149 22q17 135 72.5 202.5t154.5 67.5q49 0 103 -26t98 -52t70 -26q66 0 86 106l147 -20q-15 -136 -70.5 -203t-156.5 -67zM145 0v1407h301l680 -909v909h301v-1407h-301l-680 909v-909h-301z" />
    <glyph glyph-name="Ograve" unicode="&#xd2;" horiz-adv-x="1642" 
d="M725 1526l-303 270l268 49l238 -319h-203zM821 -25q-199 0 -371.5 99.5t-274 268t-101.5 362.5q0 145 60 279.5t160.5 232.5t239 156.5t287.5 58.5t287.5 -58.5t239 -156.5t161 -232.5t60.5 -279.5t-60.5 -280t-161 -233.5t-239 -157.5t-287.5 -59zM821 250
q117 0 217.5 62t159.5 167t59 226q0 183 -129 317.5t-307 134.5q-116 0 -216.5 -61.5t-160 -166t-59.5 -224.5q0 -121 59.5 -226t160 -167t216.5 -62z" />
    <glyph glyph-name="Oacute" unicode="&#xd3;" horiz-adv-x="1642" 
d="M717 1526l237 319l269 -49l-303 -270h-203zM821 -25q-199 0 -371.5 99.5t-274 268t-101.5 362.5q0 145 60 279.5t160.5 232.5t239 156.5t287.5 58.5t287.5 -58.5t239 -156.5t161 -232.5t60.5 -279.5t-60.5 -280t-161 -233.5t-239 -157.5t-287.5 -59zM821 250
q117 0 217.5 62t159.5 167t59 226q0 183 -129 317.5t-307 134.5q-116 0 -216.5 -61.5t-160 -166t-59.5 -224.5q0 -121 59.5 -226t160 -167t216.5 -62z" />
    <glyph glyph-name="Ocircumflex" unicode="&#xd4;" horiz-adv-x="1642" 
d="M485 1526l213 301h248l219 -301h-186l-156 151l-153 -151h-185zM821 -25q-199 0 -371.5 99.5t-274 268t-101.5 362.5q0 145 60 279.5t160.5 232.5t239 156.5t287.5 58.5t287.5 -58.5t239 -156.5t161 -232.5t60.5 -279.5t-60.5 -280t-161 -233.5t-239 -157.5t-287.5 -59z
M821 250q117 0 217.5 62t159.5 167t59 226q0 183 -129 317.5t-307 134.5q-116 0 -216.5 -61.5t-160 -166t-59.5 -224.5q0 -121 59.5 -226t160 -167t216.5 -62z" />
    <glyph glyph-name="Otilde" unicode="&#xd5;" horiz-adv-x="1642" 
d="M958 1522q-49 0 -101.5 26t-96 52t-70.5 26q-34 0 -55 -25.5t-31 -82.5l-149 22q17 135 72.5 202.5t154.5 67.5q49 0 102.5 -26t97.5 -52t70 -26q66 0 86 106l148 -20q-30 -270 -228 -270zM821 -25q-199 0 -371.5 99.5t-274 268t-101.5 362.5q0 145 60 279.5t160.5 232.5
t239 156.5t287.5 58.5t287.5 -58.5t239 -156.5t161 -232.5t60.5 -279.5t-60.5 -280t-161 -233.5t-239 -157.5t-287.5 -59zM821 250q117 0 217.5 62t159.5 167t59 226q0 183 -129 317.5t-307 134.5q-116 0 -216.5 -61.5t-160 -166t-59.5 -224.5q0 -121 59.5 -226t160 -167
t216.5 -62z" />
    <glyph glyph-name="Odieresis" unicode="&#xd6;" horiz-adv-x="1642" 
d="M606 1544q-62 0 -103.5 42.5t-41.5 101.5t41.5 101t103.5 42q59 0 101.5 -42.5t42.5 -100.5t-43 -101t-101 -43zM1040 1544q-61 0 -103 42.5t-42 101.5t42 101t103 42q59 0 101.5 -42.5t42.5 -100.5t-43 -101t-101 -43zM821 -25q-199 0 -371.5 99.5t-274 268
t-101.5 362.5q0 145 60 279.5t160.5 232.5t239 156.5t287.5 58.5t287.5 -58.5t239 -156.5t161 -232.5t60.5 -279.5t-60.5 -280t-161 -233.5t-239 -157.5t-287.5 -59zM821 250q117 0 217.5 62t159.5 167t59 226q0 183 -129 317.5t-307 134.5q-116 0 -216.5 -61.5t-160 -166
t-59.5 -224.5q0 -121 59.5 -226t160 -167t216.5 -62z" />
    <glyph glyph-name="multiply" unicode="&#xd7;" horiz-adv-x="1091" 
d="M987 426l-182 -182l-262 262l-260 -258l-174 172l260 260l-263 262l183 182l262 -262l258 258l174 -174l-258 -258z" />
    <glyph glyph-name="Oslash" unicode="&#xd8;" horiz-adv-x="1658" 
d="M1374 1200q97 -100 151 -228t54 -267q0 -145 -60.5 -280t-161 -233.5t-239 -157.5t-287.5 -59q-213 0 -397 115l-78 -90h-266l186 221q-91 99 -141.5 223.5t-50.5 260.5q0 145 60 279.5t160.5 232.5t239 156.5t287.5 58.5q205 0 383 -107l70 82h266zM393 705
q0 -138 78 -256l557 657q-91 51 -197 51q-178 0 -308 -134.5t-130 -317.5zM831 250q177 0 307 135.5t130 319.5q0 144 -88 266l-562 -662q100 -59 213 -59z" />
    <glyph glyph-name="Ugrave" unicode="&#xd9;" horiz-adv-x="1503" 
d="M655 1526l-303 270l269 49l237 -319h-203zM752 -25q-280 0 -458.5 177.5t-178.5 455.5v799h303v-786q0 -163 93.5 -267t240.5 -104t240 104t93 267v786h304v-799q0 -278 -178.5 -455.5t-458.5 -177.5z" />
    <glyph glyph-name="Uacute" unicode="&#xda;" horiz-adv-x="1503" 
d="M647 1526l238 319l268 -49l-303 -270h-203zM752 -25q-280 0 -458.5 177.5t-178.5 455.5v799h303v-786q0 -163 93.5 -267t240.5 -104t240 104t93 267v786h304v-799q0 -278 -178.5 -455.5t-458.5 -177.5z" />
    <glyph glyph-name="Ucircumflex" unicode="&#xdb;" horiz-adv-x="1503" 
d="M414 1526l213 301h247l220 -301h-187l-155 151l-154 -151h-184zM752 -25q-280 0 -458.5 177.5t-178.5 455.5v799h303v-786q0 -163 93.5 -267t240.5 -104t240 104t93 267v786h304v-799q0 -278 -178.5 -455.5t-458.5 -177.5z" />
    <glyph glyph-name="Udieresis" unicode="&#xdc;" horiz-adv-x="1503" 
d="M537 1544q-62 0 -104 42.5t-42 101.5t42 101t104 42q59 0 101 -42.5t42 -100.5q0 -59 -42.5 -101.5t-100.5 -42.5zM971 1544q-61 0 -103.5 42.5t-42.5 101.5t42.5 101t103.5 42q59 0 101 -42.5t42 -100.5q0 -59 -42.5 -101.5t-100.5 -42.5zM752 -25q-280 0 -458.5 177.5
t-178.5 455.5v799h303v-786q0 -163 93.5 -267t240.5 -104t240 104t93 267v786h304v-799q0 -278 -178.5 -455.5t-458.5 -177.5z" />
    <glyph glyph-name="Yacute" unicode="&#xdd;" horiz-adv-x="1499" 
d="M645 1526l238 319l268 -49l-303 -270h-203zM598 0v508l-551 899h352l351 -616l364 616h338l-549 -899v-508h-305z" />
    <glyph glyph-name="Thorn" unicode="&#xde;" horiz-adv-x="1376" 
d="M145 0v1407h297v-225h336q230 0 380.5 -133t150.5 -342q0 -208 -150.5 -342t-380.5 -134h-332v-231h-301zM446 510h302q111 0 180 53.5t69 143.5t-69 144t-180 54h-302v-395z" />
    <glyph glyph-name="germandbls" unicode="&#xdf;" horiz-adv-x="1243" 
d="M125 0v1063q0 178 139.5 291.5t358.5 113.5q218 0 357.5 -113.5t139.5 -291.5q0 -246 -184 -322q120 -44 183 -136t63 -224q0 -168 -130 -274.5t-333 -106.5h-148v258h93q91 0 148.5 48.5t57.5 123.5t-57.5 123.5t-148.5 48.5h-93v238h47q82 0 136.5 48t54.5 116
q0 71 -52.5 116t-138.5 45q-85 0 -138.5 -48.5t-53.5 -127.5v-989h-301z" />
    <glyph glyph-name="agrave" unicode="&#xe0;" horiz-adv-x="1136" 
d="M711 1178h-203l-303 270l268 49zM578 1083q209 0 337.5 -122.5t128.5 -327.5v-633h-288v106q-56 -62 -140.5 -96.5t-173.5 -34.5q-171 0 -284 94t-113 244q0 102 58.5 183.5t158.5 125.5t221 44q137 0 273 -56v23q0 92 -61.5 151.5t-184.5 59.5q-126 0 -274 -76l-101 199
q229 116 443 116zM510 182q90 0 159.5 40.5t86.5 111.5v96q-103 41 -230 41q-82 0 -139 -42.5t-57 -106.5q0 -63 51 -101.5t129 -38.5z" />
    <glyph glyph-name="aacute" unicode="&#xe1;" horiz-adv-x="1136" 
d="M1006 1448l-304 -270h-202l237 319zM578 1083q209 0 337.5 -122.5t128.5 -327.5v-633h-288v106q-56 -62 -140.5 -96.5t-173.5 -34.5q-171 0 -284 94t-113 244q0 102 58.5 183.5t158.5 125.5t221 44q137 0 273 -56v23q0 92 -61.5 151.5t-184.5 59.5q-126 0 -274 -76
l-101 199q229 116 443 116zM510 182q90 0 159.5 40.5t86.5 111.5v96q-103 41 -230 41q-82 0 -139 -42.5t-57 -106.5q0 -63 51 -101.5t129 -38.5z" />
    <glyph glyph-name="acircumflex" unicode="&#xe2;" horiz-adv-x="1136" 
d="M606 1329l-153 -151h-185l213 301h248l219 -301h-186zM578 1083q209 0 337.5 -122.5t128.5 -327.5v-633h-288v106q-56 -62 -140.5 -96.5t-173.5 -34.5q-171 0 -284 94t-113 244q0 102 58.5 183.5t158.5 125.5t221 44q137 0 273 -56v23q0 92 -61.5 151.5t-184.5 59.5
q-126 0 -274 -76l-101 199q229 116 443 116zM510 182q90 0 159.5 40.5t86.5 111.5v96q-103 41 -230 41q-82 0 -139 -42.5t-57 -106.5q0 -63 51 -101.5t129 -38.5z" />
    <glyph glyph-name="atilde" unicode="&#xe3;" horiz-adv-x="1136" 
d="M473 1278q-66 0 -86 -109l-149 23q17 135 72.5 202.5t154.5 67.5q49 0 102.5 -26t97.5 -52t70 -26q66 0 86 106l148 -20q-30 -270 -228 -270q-49 0 -101.5 26t-96 52t-70.5 26zM578 1083q209 0 337.5 -122.5t128.5 -327.5v-633h-288v106q-56 -62 -140.5 -96.5
t-173.5 -34.5q-171 0 -284 94t-113 244q0 102 58.5 183.5t158.5 125.5t221 44q137 0 273 -56v23q0 92 -61.5 151.5t-184.5 59.5q-126 0 -274 -76l-101 199q229 116 443 116zM510 182q90 0 159.5 40.5t86.5 111.5v96q-103 41 -230 41q-82 0 -139 -42.5t-57 -106.5
q0 -63 51 -101.5t129 -38.5z" />
    <glyph glyph-name="adieresis" unicode="&#xe4;" horiz-adv-x="1136" 
d="M389 1196q-62 0 -103.5 42t-41.5 101t41.5 101.5t103.5 42.5q58 0 100.5 -42.5t42.5 -101.5t-42 -101t-101 -42zM823 1196q-61 0 -103 42t-42 101t42 101.5t103 42.5q59 0 101.5 -42.5t42.5 -101.5q0 -58 -42.5 -100.5t-101.5 -42.5zM578 1083q209 0 337.5 -122.5
t128.5 -327.5v-633h-288v106q-56 -62 -140.5 -96.5t-173.5 -34.5q-171 0 -284 94t-113 244q0 102 58.5 183.5t158.5 125.5t221 44q137 0 273 -56v23q0 92 -61.5 151.5t-184.5 59.5q-126 0 -274 -76l-101 199q229 116 443 116zM510 182q90 0 159.5 40.5t86.5 111.5v96
q-103 41 -230 41q-82 0 -139 -42.5t-57 -106.5q0 -63 51 -101.5t129 -38.5z" />
    <glyph glyph-name="aring" unicode="&#xe5;" horiz-adv-x="1136" 
d="M604 1190q-96 0 -164.5 67.5t-68.5 163.5q0 97 68.5 165.5t164.5 68.5q97 0 165.5 -68.5t68.5 -165.5q0 -96 -68.5 -163.5t-165.5 -67.5zM604 1530q-44 0 -76 -32.5t-32 -76.5t32 -76t76 -32t76.5 32t32.5 76t-32.5 76.5t-76.5 32.5zM578 1083q209 0 337.5 -122.5
t128.5 -327.5v-633h-288v106q-56 -62 -140.5 -96.5t-173.5 -34.5q-171 0 -284 94t-113 244q0 102 58.5 183.5t158.5 125.5t221 44q137 0 273 -56v23q0 92 -61.5 151.5t-184.5 59.5q-126 0 -274 -76l-101 199q229 116 443 116zM510 182q90 0 159.5 40.5t86.5 111.5v96
q-103 41 -230 41q-82 0 -139 -42.5t-57 -106.5q0 -63 51 -101.5t129 -38.5z" />
    <glyph glyph-name="ae" unicode="&#xe6;" horiz-adv-x="1882" 
d="M1311 207q72 0 147.5 29t128.5 75l168 -172q-70 -73 -192 -118.5t-240 -45.5q-125 0 -235 48t-185 135q-65 -86 -173 -134.5t-241 -48.5q-201 0 -322.5 92t-121.5 246q0 155 126.5 254t313.5 99q123 0 271 -52v19q0 92 -60.5 151.5t-183.5 59.5q-124 0 -276 -76l-99 199
q118 60 215 88t203 28q120 0 210.5 -43t143.5 -122q74 79 177 122t221 43q249 0 389.5 -168.5t140.5 -463.5h-797q21 -109 93.5 -176.5t177.5 -67.5zM1309 852q-99 0 -170.5 -60.5t-96.5 -162.5h508q-18 102 -80.5 162.5t-160.5 60.5zM754 334v96q-112 41 -230 41
q-82 0 -138 -42.5t-56 -106.5q0 -63 51 -101.5t129 -38.5q89 0 159.5 40.5t84.5 111.5z" />
    <glyph glyph-name="ccedilla" unicode="&#xe7;" horiz-adv-x="1085" 
d="M1051 162q-154 -171 -377 -185l-29 -65h2q66 0 109 -39t43 -100q0 -80 -62 -128t-159 -48q-115 0 -195 59l55 119q56 -47 123 -47q36 0 61 17t25 44q0 25 -16.5 40t-48.5 15q-38 0 -62 -18l-45 43l49 115q-200 37 -336.5 192t-136.5 354q0 111 46.5 213t125 176.5
t185.5 119t223 44.5q125 0 230.5 -47.5t182.5 -132.5l-198 -170q-39 45 -97.5 71.5t-119.5 26.5q-117 0 -202 -88.5t-85 -210.5q0 -124 85 -214.5t202 -90.5q62 0 122.5 28.5t100.5 74.5z" />
    <glyph glyph-name="egrave" unicode="&#xe8;" horiz-adv-x="1179" 
d="M711 1178h-203l-303 270l268 49zM610 207q72 0 148 29t127 75l168 -172q-70 -73 -192 -118.5t-240 -45.5q-156 0 -286 70.5t-206 198.5t-76 288q0 157 73 283.5t199 197t279 70.5q249 0 391 -168.5t142 -463.5h-799q21 -110 93 -177t179 -67zM606 852q-99 0 -170 -60.5
t-96 -162.5h510q-19 102 -82.5 162.5t-161.5 60.5z" />
    <glyph glyph-name="eacute" unicode="&#xe9;" horiz-adv-x="1179" 
d="M1006 1448l-304 -270h-202l237 319zM610 207q72 0 148 29t127 75l168 -172q-70 -73 -192 -118.5t-240 -45.5q-156 0 -286 70.5t-206 198.5t-76 288q0 157 73 283.5t199 197t279 70.5q249 0 391 -168.5t142 -463.5h-799q21 -110 93 -177t179 -67zM606 852
q-99 0 -170 -60.5t-96 -162.5h510q-19 102 -82.5 162.5t-161.5 60.5z" />
    <glyph glyph-name="ecircumflex" unicode="&#xea;" horiz-adv-x="1179" 
d="M606 1329l-153 -151h-185l213 301h248l219 -301h-186zM610 207q72 0 148 29t127 75l168 -172q-70 -73 -192 -118.5t-240 -45.5q-156 0 -286 70.5t-206 198.5t-76 288q0 157 73 283.5t199 197t279 70.5q249 0 391 -168.5t142 -463.5h-799q21 -110 93 -177t179 -67z
M606 852q-99 0 -170 -60.5t-96 -162.5h510q-19 102 -82.5 162.5t-161.5 60.5z" />
    <glyph glyph-name="edieresis" unicode="&#xeb;" horiz-adv-x="1179" 
d="M389 1196q-62 0 -103.5 42t-41.5 101t41.5 101.5t103.5 42.5q58 0 100.5 -42.5t42.5 -101.5t-42 -101t-101 -42zM823 1196q-61 0 -103 42t-42 101t42 101.5t103 42.5q59 0 101.5 -42.5t42.5 -101.5q0 -58 -42.5 -100.5t-101.5 -42.5zM610 207q72 0 148 29t127 75
l168 -172q-70 -73 -192 -118.5t-240 -45.5q-156 0 -286 70.5t-206 198.5t-76 288q0 157 73 283.5t199 197t279 70.5q249 0 391 -168.5t142 -463.5h-799q21 -110 93 -177t179 -67zM606 852q-99 0 -170 -60.5t-96 -162.5h510q-19 102 -82.5 162.5t-161.5 60.5z" />
    <glyph glyph-name="igrave" unicode="&#xec;" horiz-adv-x="530" 
d="M170 1178l-303 270l268 49l238 -319h-203zM115 0v1059h299v-1059h-299z" />
    <glyph glyph-name="iacute" unicode="&#xed;" horiz-adv-x="530" 
d="M162 1178l237 319l269 -49l-303 -270h-203zM115 0v1059h299v-1059h-299z" />
    <glyph glyph-name="icircumflex" unicode="&#xee;" horiz-adv-x="530" 
d="M-72 1178l213 301h248l219 -301h-186l-156 151l-153 -151h-185zM115 0v1059h299v-1059h-299z" />
    <glyph glyph-name="idieresis" unicode="&#xef;" horiz-adv-x="530" 
d="M49 1196q-62 0 -103.5 42t-41.5 101t41.5 101.5t103.5 42.5q59 0 101.5 -42.5t42.5 -101.5q0 -58 -42.5 -100.5t-101.5 -42.5zM483 1196q-61 0 -103 42t-42 101t42 101.5t103 42.5q59 0 101.5 -42.5t42.5 -101.5q0 -58 -42.5 -100.5t-101.5 -42.5zM115 0v1059h299v-1059
h-299z" />
    <glyph glyph-name="eth" unicode="&#xf0;" horiz-adv-x="1228" 
d="M817 1260q181 -168 266.5 -330.5t85.5 -356.5q0 -262 -156 -430t-401 -168q-244 0 -401.5 151t-157.5 386q0 219 130 359.5t333 140.5q182 0 311 -148q-75 147 -247 289l-213 -94l-70 158l127 57q-12 9 -145 98l268 115q31 -24 129 -103l182 82l70 -157zM612 229
q117 0 192 75.5t75 195.5q0 115 -75 192.5t-194 77.5q-118 0 -192 -75t-74 -193q0 -120 75 -196.5t193 -76.5z" />
    <glyph glyph-name="ntilde" unicode="&#xf1;" horiz-adv-x="1220" 
d="M479 1278q-66 0 -86 -109l-149 23q17 135 72.5 202.5t154.5 67.5q49 0 102.5 -26t97.5 -52t70 -26q66 0 86 106l148 -20q-15 -136 -70.5 -203t-156.5 -67q-49 0 -102 26t-96.5 52t-70.5 26zM733 1083q172 0 281.5 -114t109.5 -295v-674h-286v610q0 98 -56 159.5
t-145 61.5q-94 0 -158.5 -59t-64.5 -145v-627h-299v1059h299v-131q48 71 132.5 113t186.5 42z" />
    <glyph glyph-name="ograve" unicode="&#xf2;" horiz-adv-x="1257" 
d="M532 1178l-303 270l269 49l237 -319h-203zM629 -25q-156 0 -289 74.5t-211 202.5t-78 278t78 277.5t211 201.5t289 74q117 0 223.5 -44t184 -118t123.5 -176.5t46 -214.5t-46 -215t-123.5 -177.5t-184 -118.5t-223.5 -44zM629 227q120 0 205.5 89t85.5 214
q0 124 -85.5 212.5t-205.5 88.5t-205.5 -88.5t-85.5 -212.5q0 -125 85.5 -214t205.5 -89z" />
    <glyph glyph-name="oacute" unicode="&#xf3;" horiz-adv-x="1257" 
d="M524 1178l238 319l268 -49l-303 -270h-203zM629 -25q-156 0 -289 74.5t-211 202.5t-78 278t78 277.5t211 201.5t289 74q117 0 223.5 -44t184 -118t123.5 -176.5t46 -214.5t-46 -215t-123.5 -177.5t-184 -118.5t-223.5 -44zM629 227q120 0 205.5 89t85.5 214
q0 124 -85.5 212.5t-205.5 88.5t-205.5 -88.5t-85.5 -212.5q0 -125 85.5 -214t205.5 -89z" />
    <glyph glyph-name="ocircumflex" unicode="&#xf4;" horiz-adv-x="1257" 
d="M293 1178l213 301h248l219 -301h-187l-155 151l-154 -151h-184zM629 -25q-156 0 -289 74.5t-211 202.5t-78 278t78 277.5t211 201.5t289 74q117 0 223.5 -44t184 -118t123.5 -176.5t46 -214.5t-46 -215t-123.5 -177.5t-184 -118.5t-223.5 -44zM629 227q120 0 205.5 89
t85.5 214q0 124 -85.5 212.5t-205.5 88.5t-205.5 -88.5t-85.5 -212.5q0 -125 85.5 -214t205.5 -89z" />
    <glyph glyph-name="otilde" unicode="&#xf5;" horiz-adv-x="1257" 
d="M766 1174q-49 0 -101.5 26t-96 52t-70.5 26q-66 0 -86 -109l-150 23q17 135 72.5 202.5t154.5 67.5q49 0 103 -26t98 -52t70 -26q66 0 86 106l147 -20q-15 -136 -70.5 -203t-156.5 -67zM629 -25q-156 0 -289 74.5t-211 202.5t-78 278t78 277.5t211 201.5t289 74
q117 0 223.5 -44t184 -118t123.5 -176.5t46 -214.5t-46 -215t-123.5 -177.5t-184 -118.5t-223.5 -44zM629 227q120 0 205.5 89t85.5 214q0 124 -85.5 212.5t-205.5 88.5t-205.5 -88.5t-85.5 -212.5q0 -125 85.5 -214t205.5 -89z" />
    <glyph glyph-name="odieresis" unicode="&#xf6;" horiz-adv-x="1257" 
d="M414 1196q-62 0 -104 42t-42 101t42 101.5t104 42.5q58 0 100.5 -42.5t42.5 -101.5t-42.5 -101t-100.5 -42zM848 1196q-61 0 -103.5 42t-42.5 101t42.5 101.5t103.5 42.5q58 0 100.5 -42.5t42.5 -101.5t-42.5 -101t-100.5 -42zM629 -25q-156 0 -289 74.5t-211 202.5
t-78 278t78 277.5t211 201.5t289 74q117 0 223.5 -44t184 -118t123.5 -176.5t46 -214.5t-46 -215t-123.5 -177.5t-184 -118.5t-223.5 -44zM629 227q120 0 205.5 89t85.5 214q0 124 -85.5 212.5t-205.5 88.5t-205.5 -88.5t-85.5 -212.5q0 -125 85.5 -214t205.5 -89z" />
    <glyph glyph-name="divide" unicode="&#xf7;" horiz-adv-x="1210" 
d="M608 905q-70 0 -119 49.5t-49 118.5q0 65 49 113.5t119 48.5q66 0 114 -48.5t48 -113.5q0 -69 -48 -118.5t-114 -49.5zM109 563v244h989v-244h-989zM608 133q-70 0 -119 49.5t-49 118.5q0 65 49 113.5t119 48.5q66 0 114 -48.5t48 -113.5q0 -69 -48 -118.5t-114 -49.5z
" />
    <glyph glyph-name="oslash" unicode="&#xf8;" horiz-adv-x="1282" 
d="M1071 897q146 -156 146 -367q0 -150 -77.5 -278t-210 -202.5t-288.5 -74.5q-161 0 -299 80l-47 -55h-217l135 158q-72 75 -112 171t-40 201q0 150 78 277.5t211.5 201.5t290.5 74q162 0 303 -82l49 58h217zM348 530q0 -92 47 -163l375 434q-65 30 -129 30
q-121 0 -207 -88t-86 -213zM641 227q119 0 204 89.5t85 213.5q0 82 -41 156l-373 -430q63 -29 125 -29z" />
    <glyph glyph-name="ugrave" unicode="&#xf9;" horiz-adv-x="1218" 
d="M692 1178h-203l-303 270l269 49zM807 1059h297v-1059h-297v131q-48 -71 -133.5 -113.5t-186.5 -42.5q-173 0 -283 114.5t-110 295.5v674h289v-610q0 -98 56 -160t145 -62q94 0 158.5 59.5t64.5 145.5v627z" />
    <glyph glyph-name="uacute" unicode="&#xfa;" horiz-adv-x="1218" 
d="M987 1448l-303 -270h-203l238 319zM807 1059h297v-1059h-297v131q-48 -71 -133.5 -113.5t-186.5 -42.5q-173 0 -283 114.5t-110 295.5v674h289v-610q0 -98 56 -160t145 -62q94 0 158.5 59.5t64.5 145.5v627z" />
    <glyph glyph-name="ucircumflex" unicode="&#xfb;" horiz-adv-x="1218" 
d="M588 1329l-154 -151h-184l213 301h248l219 -301h-187zM807 1059h297v-1059h-297v131q-48 -71 -133.5 -113.5t-186.5 -42.5q-173 0 -283 114.5t-110 295.5v674h289v-610q0 -98 56 -160t145 -62q94 0 158.5 59.5t64.5 145.5v627z" />
    <glyph glyph-name="udieresis" unicode="&#xfc;" horiz-adv-x="1218" 
d="M371 1196q-62 0 -104 42t-42 101t42 101.5t104 42.5q58 0 100.5 -42.5t42.5 -101.5t-42 -101t-101 -42zM805 1196q-61 0 -103.5 42t-42.5 101t42.5 101.5t103.5 42.5q58 0 100.5 -42.5t42.5 -101.5t-42 -101t-101 -42zM807 1059h297v-1059h-297v131
q-48 -71 -133.5 -113.5t-186.5 -42.5q-173 0 -283 114.5t-110 295.5v674h289v-610q0 -98 56 -160t145 -62q94 0 158.5 59.5t64.5 145.5v627z" />
    <glyph glyph-name="yacute" unicode="&#xfd;" horiz-adv-x="1220" 
d="M518 1178l238 319l268 -49l-303 -270h-203zM375 -369q-65 0 -137 18t-127 48l63 205q79 -47 139 -47q90 0 133 73l29 62l-440 1069h309l279 -744l262 744h305l-432 -1112q-61 -155 -159 -235.5t-224 -80.5z" />
    <glyph glyph-name="thorn" unicode="&#xfe;" horiz-adv-x="1337" 
d="M793 1083q213 0 350 -155t137 -398q0 -244 -137 -399.5t-350 -155.5q-223 0 -357 177v-504h-299v1784h299v-525q133 176 357 176zM707 227q124 0 203 84.5t79 218.5q0 132 -79 216.5t-203 84.5q-119 0 -195 -84.5t-76 -216.5q0 -133 76 -218t195 -85z" />
    <glyph glyph-name="ydieresis" unicode="&#xff;" horiz-adv-x="1220" 
d="M408 1196q-62 0 -104 42t-42 101t42 101.5t104 42.5q58 0 100.5 -42.5t42.5 -101.5t-42.5 -101t-100.5 -42zM842 1196q-61 0 -103.5 42t-42.5 101t42.5 101.5t103.5 42.5q58 0 100.5 -42.5t42.5 -101.5t-42.5 -101t-100.5 -42zM375 -369q-65 0 -137 18t-127 48l63 205
q79 -47 139 -47q90 0 133 73l29 62l-440 1069h309l279 -744l262 744h305l-432 -1112q-61 -155 -159 -235.5t-224 -80.5z" />
    <glyph glyph-name="Amacron" unicode="&#x100;" 
d="M1147 1714v-176h-707v176h707zM1196 0l-98 242h-611l-98 -242h-338l572 1407h340l571 -1407h-338zM584 477h417l-208 512z" />
    <glyph glyph-name="amacron" unicode="&#x101;" horiz-adv-x="1136" 
d="M956 1366v-176h-706v176h706zM578 1083q209 0 337.5 -122.5t128.5 -327.5v-633h-288v106q-56 -62 -140.5 -96.5t-173.5 -34.5q-171 0 -284 94t-113 244q0 102 58.5 183.5t158.5 125.5t221 44q137 0 273 -56v23q0 92 -61.5 151.5t-184.5 59.5q-126 0 -274 -76l-101 199
q229 116 443 116zM510 182q90 0 159.5 40.5t86.5 111.5v96q-103 41 -230 41q-82 0 -139 -42.5t-57 -106.5q0 -63 51 -101.5t129 -38.5z" />
    <glyph glyph-name="Abreve" unicode="&#x102;" 
d="M1122 1673q-135 -135 -329 -135q-192 0 -330 135l129 129q41 -40 95 -63t106 -23q111 0 200 86zM1196 0l-98 242h-611l-98 -242h-338l572 1407h340l571 -1407h-338zM584 477h417l-208 512z" />
    <glyph glyph-name="abreve" unicode="&#x103;" horiz-adv-x="1136" 
d="M934 1325q-135 -135 -330 -135q-192 0 -330 135l129 129q41 -40 95 -63t106 -23q112 0 201 86zM578 1083q209 0 337.5 -122.5t128.5 -327.5v-633h-288v106q-56 -62 -140.5 -96.5t-173.5 -34.5q-171 0 -284 94t-113 244q0 102 58.5 183.5t158.5 125.5t221 44
q137 0 273 -56v23q0 92 -61.5 151.5t-184.5 59.5q-126 0 -274 -76l-101 199q229 116 443 116zM510 182q90 0 159.5 40.5t86.5 111.5v96q-103 41 -230 41q-82 0 -139 -42.5t-57 -106.5q0 -63 51 -101.5t129 -38.5z" />
    <glyph glyph-name="Aogonek" unicode="&#x104;" 
d="M1612 -147l53 -140q-77 -67 -184 -67q-101 0 -164.5 61.5t-63.5 165.5q0 72 39 127h-96l-98 242h-611l-98 -242h-338l572 1407h340l571 -1407q-41 0 -67.5 -25.5t-26.5 -64.5q0 -41 25.5 -62.5t70.5 -21.5q46 0 76 27zM584 477h417l-208 512z" />
    <glyph glyph-name="aogonek" unicode="&#x105;" horiz-adv-x="1136" 
d="M1120 -147l54 -140q-77 -67 -185 -67q-101 0 -164 61.5t-63 165.5q0 72 39 127h-45v106q-56 -62 -140.5 -96.5t-173.5 -34.5q-171 0 -284 94t-113 244q0 102 58.5 183.5t158.5 125.5t221 44q137 0 273 -56v23q0 92 -61.5 151.5t-184.5 59.5q-126 0 -274 -76l-101 199
q229 116 443 116q209 0 337.5 -122.5t128.5 -327.5v-633h-2q-41 0 -67.5 -25.5t-26.5 -64.5q0 -41 25.5 -62.5t70.5 -21.5q46 0 76 27zM510 182q90 0 159.5 40.5t86.5 111.5v96q-103 41 -230 41q-82 0 -139 -42.5t-57 -106.5q0 -63 51 -101.5t129 -38.5z" />
    <glyph glyph-name="Cacute" unicode="&#x106;" horiz-adv-x="1421" 
d="M717 1526l237 319l269 -49l-303 -270h-203zM821 -25q-199 0 -371.5 99.5t-274 268t-101.5 362.5q0 145 60 279.5t160.5 232.5t239 156.5t287.5 58.5q157 0 298.5 -62.5t246.5 -173.5l-219 -197q-62 73 -147 115.5t-179 42.5q-116 0 -216.5 -61.5t-160 -166t-59.5 -224.5
q0 -121 59.5 -226t160 -167t216.5 -62q94 0 179 42.5t149 115.5l217 -197q-105 -110 -247 -173t-298 -63z" />
    <glyph glyph-name="cacute" unicode="&#x107;" horiz-adv-x="1085" 
d="M481 1178l238 319l268 -49l-303 -270h-203zM627 -25q-153 0 -286 75.5t-211.5 203.5t-78.5 276q0 111 46.5 213t125 176.5t185.5 119t223 44.5q125 0 230.5 -47.5t182.5 -132.5l-198 -170q-39 45 -97.5 71.5t-119.5 26.5q-117 0 -202 -88.5t-85 -210.5q0 -124 85 -214.5
t202 -90.5q62 0 122.5 28.5t100.5 74.5l199 -168q-79 -89 -187 -138t-237 -49z" />
    <glyph glyph-name="Ccaron" unicode="&#x10c;" horiz-adv-x="1421" 
d="M698 1526l-213 301h185l153 -154l156 154h186l-219 -301h-248zM821 -25q-199 0 -371.5 99.5t-274 268t-101.5 362.5q0 145 60 279.5t160.5 232.5t239 156.5t287.5 58.5q157 0 298.5 -62.5t246.5 -173.5l-219 -197q-62 73 -147 115.5t-179 42.5q-116 0 -216.5 -61.5
t-160 -166t-59.5 -224.5q0 -121 59.5 -226t160 -167t216.5 -62q94 0 179 42.5t149 115.5l217 -197q-105 -110 -247 -173t-298 -63z" />
    <glyph glyph-name="ccaron" unicode="&#x10d;" horiz-adv-x="1085" 
d="M463 1178l-213 301h184l154 -154l155 154h187l-219 -301h-248zM627 -25q-153 0 -286 75.5t-211.5 203.5t-78.5 276q0 111 46.5 213t125 176.5t185.5 119t223 44.5q125 0 230.5 -47.5t182.5 -132.5l-198 -170q-39 45 -97.5 71.5t-119.5 26.5q-117 0 -202 -88.5t-85 -210.5
q0 -124 85 -214.5t202 -90.5q62 0 122.5 28.5t100.5 74.5l199 -168q-79 -89 -187 -138t-237 -49z" />
    <glyph glyph-name="Dcaron" unicode="&#x10e;" horiz-adv-x="1531" 
d="M526 1526l-213 301h185l153 -154l156 154h186l-219 -301h-248zM145 0v1407h504q234 0 418.5 -89t287.5 -249.5t103 -363.5q0 -204 -103 -364.5t-287.5 -250.5t-418.5 -90h-504zM446 274h242q202 0 330.5 121t128.5 310q0 188 -128.5 308t-330.5 120h-242v-859z" />
    <glyph glyph-name="dcaron" unicode="&#x10f;" horiz-adv-x="1626" 
d="M901 909v523h299v-1432h-299v150q-64 -83 -155.5 -129t-200.5 -46q-213 0 -349.5 155.5t-136.5 399.5q0 243 136.5 398t349.5 155q109 0 200.5 -45.5t155.5 -128.5zM1468 1432q66 0 108 -55t42 -142q0 -135 -168 -303l-84 63q77 74 96 150q-58 0 -96.5 40.5t-38.5 102.5
t40 103t101 41zM631 227q120 0 195 84.5t75 218.5q0 132 -75 216.5t-195 84.5q-123 0 -202 -84.5t-79 -216.5q0 -133 79 -218t202 -85z" />
    <glyph glyph-name="Dcroat" unicode="&#x110;" horiz-adv-x="1597" 
d="M717 1407q234 0 418 -89t286.5 -249t102.5 -364t-102.5 -364.5t-286.5 -250.5t-418 -90h-506v573h-145v273h145v561h506zM756 274q201 0 329.5 121t128.5 310q0 188 -128.5 308t-329.5 120h-242v-287h328l-2 -273h-326v-299h242z" />
    <glyph glyph-name="dcroat" unicode="&#x111;" horiz-adv-x="1343" 
d="M1343 1325v-151h-143v-1174h-299v150q-64 -83 -155.5 -129t-200.5 -46q-213 0 -349.5 155.5t-136.5 399.5q0 243 136.5 398t349.5 155q109 0 200.5 -45.5t155.5 -128.5v265h-291v151h291v107h299v-107h143zM631 227q120 0 195 84.5t75 218.5q0 132 -75 216.5t-195 84.5
q-123 0 -202 -84.5t-79 -216.5q0 -133 79 -218t202 -85z" />
    <glyph glyph-name="Emacron" unicode="&#x112;" horiz-adv-x="1339" 
d="M1040 1714v-176h-706v176h706zM1229 1135h-780v-281h706v-272h-706v-310h780v-272h-1084v1407h1084v-272z" />
    <glyph glyph-name="emacron" unicode="&#x113;" horiz-adv-x="1179" 
d="M956 1366v-176h-706v176h706zM610 207q72 0 148 29t127 75l168 -172q-70 -73 -192 -118.5t-240 -45.5q-156 0 -286 70.5t-206 198.5t-76 288q0 157 73 283.5t199 197t279 70.5q249 0 391 -168.5t142 -463.5h-799q21 -110 93 -177t179 -67zM606 852q-99 0 -170 -60.5
t-96 -162.5h510q-19 102 -82.5 162.5t-161.5 60.5z" />
    <glyph glyph-name="Edotaccent" unicode="&#x116;" horiz-adv-x="1339" 
d="M688 1544q-62 0 -103.5 42.5t-41.5 101.5t41.5 101t103.5 42q58 0 100.5 -42.5t42.5 -100.5q0 -59 -42.5 -101.5t-100.5 -42.5zM1229 1135h-780v-281h706v-272h-706v-310h780v-272h-1084v1407h1084v-272z" />
    <glyph glyph-name="edotaccent" unicode="&#x117;" horiz-adv-x="1179" 
d="M604 1196q-62 0 -103.5 42t-41.5 101t41.5 101.5t103.5 42.5q58 0 101 -42.5t43 -101.5q0 -58 -42.5 -100.5t-101.5 -42.5zM610 207q72 0 148 29t127 75l168 -172q-70 -73 -192 -118.5t-240 -45.5q-156 0 -286 70.5t-206 198.5t-76 288q0 157 73 283.5t199 197t279 70.5
q249 0 391 -168.5t142 -463.5h-799q21 -110 93 -177t179 -67zM606 852q-99 0 -170 -60.5t-96 -162.5h510q-19 102 -82.5 162.5t-161.5 60.5z" />
    <glyph glyph-name="Eogonek" unicode="&#x118;" horiz-adv-x="1339" 
d="M1307 -147l53 -140q-77 -67 -184 -67q-101 0 -164.5 61.5t-63.5 165.5q0 72 39 127h-842v1407h1084v-272h-780v-281h706v-272h-706v-310h780v-272q-41 0 -67.5 -25.5t-26.5 -64.5q0 -41 25.5 -62.5t70.5 -21.5q46 0 76 27z" />
    <glyph glyph-name="eogonek" unicode="&#x119;" horiz-adv-x="1196" 
d="M610 207q72 0 148 29t127 75l168 -172q-92 -99 -277 -145q-8 -13 -8 -37q0 -39 25.5 -60.5t70.5 -21.5q46 0 76 27l53 -142q-78 -65 -184 -65q-101 0 -164 61.5t-63 165.5q0 29 6 53q-149 8 -270.5 80.5t-193 198t-71.5 278.5q0 157 73 283.5t199 197t279 70.5
q249 0 391 -168.5t142 -463.5h-799q21 -110 93 -177t179 -67zM606 852q-99 0 -170 -60.5t-96 -162.5h510q-19 102 -82.5 162.5t-161.5 60.5z" />
    <glyph glyph-name="Ecaron" unicode="&#x11a;" horiz-adv-x="1339" 
d="M811 1526h-248l-213 301h185l153 -154l156 154h186zM1229 1135h-780v-281h706v-272h-706v-310h780v-272h-1084v1407h1084v-272z" />
    <glyph glyph-name="ecaron" unicode="&#x11b;" horiz-adv-x="1179" 
d="M729 1178h-248l-213 301h185l153 -154l156 154h186zM610 207q72 0 148 29t127 75l168 -172q-70 -73 -192 -118.5t-240 -45.5q-156 0 -286 70.5t-206 198.5t-76 288q0 157 73 283.5t199 197t279 70.5q249 0 391 -168.5t142 -463.5h-799q21 -110 93 -177t179 -67zM606 852
q-99 0 -170 -60.5t-96 -162.5h510q-19 102 -82.5 162.5t-161.5 60.5z" />
    <glyph glyph-name="Gbreve" unicode="&#x11e;" horiz-adv-x="1490" 
d="M1157 1673q-135 -135 -330 -135q-191 0 -329 135l129 129q42 -40 95 -63t105 -23q112 0 201 86zM774 555v236h621v-580q-104 -110 -256.5 -173t-311.5 -63q-152 0 -291 58.5t-240.5 156.5t-161.5 233t-60 282q0 146 60 280.5t161.5 232.5t240.5 156t291 58
q159 0 311.5 -63t256.5 -173l-219 -197q-61 72 -156.5 115t-192.5 43q-181 0 -311.5 -133.5t-130.5 -318.5q0 -186 130.5 -320.5t311.5 -134.5q145 0 273 88v217h-326z" />
    <glyph glyph-name="gbreve" unicode="&#x11f;" horiz-adv-x="1296" 
d="M954 1325q-135 -135 -329 -135q-192 0 -330 135l129 129q41 -40 95 -63t106 -23q111 0 200 86zM879 1059h299v-946q0 -204 -160 -334.5t-410 -130.5q-136 0 -260.5 39t-206.5 102l105 211q52 -46 138.5 -73t178.5 -27q145 0 230.5 61t85.5 164v119q-64 -79 -155 -122.5
t-196 -43.5q-202 0 -336.5 142t-134.5 362t134 360.5t337 140.5q105 0 201 -46t150 -122v144zM623 330q112 0 184 71t72 181t-71.5 179.5t-184.5 69.5t-184.5 -69.5t-71.5 -179.5t72 -181t184 -71z" />
    <glyph glyph-name="uni0122" unicode="&#x122;" horiz-adv-x="1490" 
d="M774 555v236h621v-580q-104 -110 -256.5 -173t-311.5 -63q-152 0 -291 58.5t-240.5 156.5t-161.5 233t-60 282q0 146 60 280.5t161.5 232.5t240.5 156t291 58q159 0 311.5 -63t256.5 -173l-219 -197q-61 72 -156.5 115t-192.5 43q-181 0 -311.5 -133.5t-130.5 -318.5
q0 -186 130.5 -320.5t311.5 -134.5q145 0 273 88v217h-326zM827 -96q65 0 107.5 -53t42.5 -132q0 -147 -168 -315l-82 64q78 75 96 151q-60 0 -98.5 39.5t-38.5 101.5t40 103t101 41z" />
    <glyph glyph-name="uni0123" unicode="&#x123;" horiz-adv-x="1296" 
d="M627 1198q-65 0 -107.5 52.5t-42.5 131.5q0 148 168 316l84 -64q-78 -75 -96 -151q58 0 96.5 -40t38.5 -102t-40 -102.5t-101 -40.5zM879 1059h299v-946q0 -204 -160 -334.5t-410 -130.5q-136 0 -260.5 39t-206.5 102l105 211q52 -46 138.5 -73t178.5 -27q145 0 230.5 61
t85.5 164v119q-64 -79 -155 -122.5t-196 -43.5q-202 0 -336.5 142t-134.5 362t134 360.5t337 140.5q105 0 201 -46t150 -122v144zM623 330q112 0 184 71t72 181t-71.5 179.5t-184.5 69.5t-184.5 -69.5t-71.5 -179.5t72 -181t184 -71z" />
    <glyph glyph-name="Imacron" unicode="&#x12a;" horiz-adv-x="591" 
d="M-57 1538v176h706v-176h-706zM145 0v1407h301v-1407h-301z" />
    <glyph glyph-name="imacron" unicode="&#x12b;" horiz-adv-x="530" 
d="M-88 1190v176h706v-176h-706zM115 0v1059h299v-1059h-299z" />
    <glyph glyph-name="Iogonek" unicode="&#x12e;" horiz-adv-x="591" 
d="M524 -147l54 -140q-77 -67 -185 -67q-101 0 -164 61.5t-63 165.5q0 72 39 127h-60v1407h301v-1407q-41 0 -67.5 -25.5t-26.5 -64.5q0 -41 26 -62.5t71 -21.5t75 27z" />
    <glyph glyph-name="iogonek" unicode="&#x12f;" horiz-adv-x="530" 
d="M266 1196q-62 0 -103.5 42t-41.5 101t41.5 101.5t103.5 42.5q58 0 101 -42.5t43 -101.5q0 -58 -42.5 -100.5t-101.5 -42.5zM492 -147l53 -140q-77 -67 -185 -67q-101 0 -164 61.5t-63 165.5q0 72 39 127h-57v1059h299v-1059q-41 0 -68 -26t-27 -64q0 -41 26 -62.5
t71 -21.5q46 0 76 27z" />
    <glyph glyph-name="Idotaccent" unicode="&#x130;" horiz-adv-x="591" 
d="M297 1544q-62 0 -103.5 42.5t-41.5 101.5t41.5 101t103.5 42q59 0 101 -42.5t42 -100.5q0 -59 -42.5 -101.5t-100.5 -42.5zM145 0v1407h301v-1407h-301z" />
    <glyph glyph-name="dotlessi" unicode="&#x131;" horiz-adv-x="530" 
d="M115 0v1059h299v-1059h-299z" />
    <glyph glyph-name="uni0136" unicode="&#x136;" horiz-adv-x="1472" 
d="M145 0v1407h301v-645l570 645h366l-548 -610l587 -797h-366l-432 582l-177 -189v-393h-301zM766 -596l-82 64q78 75 96 151q-60 0 -98.5 39.5t-38.5 101.5t40 103t101 41q65 0 107.5 -53t42.5 -132q0 -147 -168 -315z" />
    <glyph glyph-name="uni0137" unicode="&#x137;" horiz-adv-x="1204" 
d="M127 0v1432h299v-832l395 459h344l-413 -469l407 -590h-342l-264 397l-127 -139v-258h-299zM578 -596l-82 64q78 75 96 151q-60 0 -98.5 39.5t-38.5 101.5t40 103t101 41q65 0 107 -53t42 -132q0 -148 -167 -315z" />
    <glyph glyph-name="Lacute" unicode="&#x139;" horiz-adv-x="1212" 
d="M698 1796l-303 -270h-202l237 319zM446 272h701v-272h-1002v1407h301v-1135z" />
    <glyph glyph-name="lacute" unicode="&#x13a;" horiz-adv-x="552" 
d="M172 1550l238 320l268 -49l-303 -271h-203zM127 0v1432h299v-1432h-299z" />
    <glyph glyph-name="Lcaron" unicode="&#x13d;" horiz-adv-x="1212" 
d="M711 1145q-59 0 -97.5 40t-38.5 101q0 62 40.5 103t101.5 41q65 0 107 -53t42 -132q0 -147 -168 -315l-84 63q79 76 97 152zM446 272h701v-272h-1002v1407h301v-1135z" />
    <glyph glyph-name="lcaron" unicode="&#x13e;" horiz-adv-x="837" 
d="M127 0v1432h299v-1432h-299zM662 932l-82 63q77 74 96 150q-60 0 -98.5 40.5t-38.5 102.5t40 103t101 41q66 0 107.5 -54.5t41.5 -142.5q0 -136 -167 -303z" />
    <glyph glyph-name="Lslash" unicode="&#x141;" horiz-adv-x="1325" 
d="M559 272h701v-272h-1002v508l-195 -98v268l195 96v633h301v-481l199 98v-266l-199 -101v-385z" />
    <glyph glyph-name="lslash" unicode="&#x142;" horiz-adv-x="716" 
d="M668 987v-266l-160 -80v-641h-299v489l-160 -79v268l160 80v674h299v-525z" />
    <glyph glyph-name="Nacute" unicode="&#x143;" horiz-adv-x="1572" 
d="M682 1526l238 319l268 -49l-303 -270h-203zM145 0v1407h301l680 -909v909h301v-1407h-301l-680 909v-909h-301z" />
    <glyph glyph-name="nacute" unicode="&#x144;" horiz-adv-x="1220" 
d="M1014 1448l-303 -270h-203l237 319zM733 1083q172 0 281.5 -114t109.5 -295v-674h-286v610q0 98 -56 159.5t-145 61.5q-94 0 -158.5 -59t-64.5 -145v-627h-299v1059h299v-131q48 71 132.5 113t186.5 42z" />
    <glyph glyph-name="uni0145" unicode="&#x145;" horiz-adv-x="1572" 
d="M145 0v1407h301l680 -909v909h301v-1407h-301l-680 909v-909h-301zM768 -596l-82 64q78 75 96 151q-60 0 -98.5 39.5t-38.5 101.5t40 103t101 41q65 0 107.5 -53t42.5 -132q0 -147 -168 -315z" />
    <glyph glyph-name="uni0146" unicode="&#x146;" horiz-adv-x="1220" 
d="M733 1083q172 0 281.5 -114t109.5 -295v-674h-286v610q0 98 -56 159.5t-145 61.5q-94 0 -158.5 -59t-64.5 -145v-627h-299v1059h299v-131q48 71 132.5 113t186.5 42zM612 -96q65 0 107.5 -53t42.5 -132q0 -147 -168 -315l-82 64q78 75 96 151q-60 0 -98.5 39.5
t-38.5 101.5t40 103t101 41z" />
    <glyph glyph-name="Ncaron" unicode="&#x147;" horiz-adv-x="1572" 
d="M662 1526l-213 301h184l153 -154l156 154h186l-219 -301h-247zM145 0v1407h301l680 -909v909h301v-1407h-301l-680 909v-909h-301z" />
    <glyph glyph-name="ncaron" unicode="&#x148;" horiz-adv-x="1220" 
d="M735 1178h-248l-213 301h185l153 -154l156 154h186zM733 1083q172 0 281.5 -114t109.5 -295v-674h-286v610q0 98 -56 159.5t-145 61.5q-94 0 -158.5 -59t-64.5 -145v-627h-299v1059h299v-131q48 71 132.5 113t186.5 42z" />
    <glyph glyph-name="Omacron" unicode="&#x14c;" horiz-adv-x="1642" 
d="M467 1538v176h707v-176h-707zM821 -25q-199 0 -371.5 99.5t-274 268t-101.5 362.5q0 145 60 279.5t160.5 232.5t239 156.5t287.5 58.5t287.5 -58.5t239 -156.5t161 -232.5t60.5 -279.5t-60.5 -280t-161 -233.5t-239 -157.5t-287.5 -59zM821 250q117 0 217.5 62t159.5 167
t59 226q0 183 -129 317.5t-307 134.5q-116 0 -216.5 -61.5t-160 -166t-59.5 -224.5q0 -121 59.5 -226t160 -167t216.5 -62z" />
    <glyph glyph-name="omacron" unicode="&#x14d;" horiz-adv-x="1257" 
d="M274 1190v176h707v-176h-707zM629 -25q-156 0 -289 74.5t-211 202.5t-78 278t78 277.5t211 201.5t289 74q117 0 223.5 -44t184 -118t123.5 -176.5t46 -214.5t-46 -215t-123.5 -177.5t-184 -118.5t-223.5 -44zM629 227q120 0 205.5 89t85.5 214q0 124 -85.5 212.5
t-205.5 88.5t-205.5 -88.5t-85.5 -212.5q0 -125 85.5 -214t205.5 -89z" />
    <glyph glyph-name="Ohungarumlaut" unicode="&#x150;" horiz-adv-x="1642" 
d="M481 1524l236 321l268 -49l-303 -272h-201zM961 1524l237 319l268 -49l-303 -270h-202zM821 -25q-199 0 -371.5 99.5t-274 268t-101.5 362.5q0 145 60 279.5t160.5 232.5t239 156.5t287.5 58.5t287.5 -58.5t239 -156.5t161 -232.5t60.5 -279.5t-60.5 -280t-161 -233.5
t-239 -157.5t-287.5 -59zM821 250q117 0 217.5 62t159.5 167t59 226q0 183 -129 317.5t-307 134.5q-116 0 -216.5 -61.5t-160 -166t-59.5 -224.5q0 -121 59.5 -226t160 -167t216.5 -62z" />
    <glyph glyph-name="ohungarumlaut" unicode="&#x151;" horiz-adv-x="1257" 
d="M289 1176l235 321l269 -49l-304 -272h-200zM768 1176l238 319l268 -49l-303 -270h-203zM629 -25q-156 0 -289 74.5t-211 202.5t-78 278t78 277.5t211 201.5t289 74q117 0 223.5 -44t184 -118t123.5 -176.5t46 -214.5t-46 -215t-123.5 -177.5t-184 -118.5t-223.5 -44z
M629 227q120 0 205.5 89t85.5 214q0 124 -85.5 212.5t-205.5 88.5t-205.5 -88.5t-85.5 -212.5q0 -125 85.5 -214t205.5 -89z" />
    <glyph glyph-name="OE" unicode="&#x152;" horiz-adv-x="2138" 
d="M72 696q0 145 60.5 277t161.5 227t239 151t288 56h1207v-272h-781v-281h707v-272h-707v-310h781v-272h-1207q-150 0 -288 53.5t-239 145.5t-161.5 222t-60.5 275zM383 696q0 -120 60 -217.5t160 -151t218 -53.5h123v859h-123q-117 0 -218 -58t-160.5 -158.5t-59.5 -220.5
z" />
    <glyph glyph-name="oe" unicode="&#x153;" horiz-adv-x="2043" 
d="M1475 207q73 0 147.5 29t126.5 75l168 -172q-70 -73 -192 -118.5t-240 -45.5q-129 0 -241.5 51.5t-188.5 143.5q-76 -91 -187.5 -143t-238.5 -52q-156 0 -289 75t-211 203.5t-78 278.5t78 277t211 200.5t289 73.5q126 0 237 -50.5t187 -139.5q75 89 183 139.5t232 50.5
q249 0 391 -168.5t142 -463.5h-793q21 -110 91.5 -177t175.5 -67zM1473 852q-99 0 -168 -60.5t-93 -162.5h502q-19 102 -81.5 162.5t-159.5 60.5zM629 227q120 0 205.5 90t85.5 215q0 124 -85.5 211.5t-205.5 87.5t-205.5 -87.5t-85.5 -211.5q0 -125 85.5 -215t205.5 -90z
" />
    <glyph glyph-name="Racute" unicode="&#x154;" horiz-adv-x="1396" 
d="M1061 1796l-303 -270h-203l238 319zM1309 932q0 -164 -96 -284.5t-257 -166.5l338 -481h-344l-321 457h-183v-457h-301v1407h633q230 0 380.5 -133.5t150.5 -341.5zM446 1130v-397h302q111 0 180 54.5t69 144.5t-69 144t-180 54h-302z" />
    <glyph glyph-name="racute" unicode="&#x155;" horiz-adv-x="821" 
d="M852 1448l-303 -270h-203l238 319zM414 860q53 104 147.5 163.5t214.5 59.5v-252q-166 0 -264 -88t-98 -237v-506h-299v1059h299v-199z" />
    <glyph glyph-name="uni0156" unicode="&#x156;" horiz-adv-x="1396" 
d="M1309 932q0 -164 -96 -284.5t-257 -166.5l338 -481h-344l-321 457h-183v-457h-301v1407h633q230 0 380.5 -133.5t150.5 -341.5zM446 1130v-397h302q111 0 180 54.5t69 144.5t-69 144t-180 54h-302zM668 -96q65 0 107 -53t42 -132q0 -147 -168 -315l-82 64q79 76 97 151
q-60 0 -99 40t-39 101q0 62 40.5 103t101.5 41z" />
    <glyph glyph-name="uni0157" unicode="&#x157;" horiz-adv-x="821" 
d="M414 860q53 104 147.5 163.5t214.5 59.5v-252q-166 0 -264 -88t-98 -237v-506h-299v1059h299v-199zM451 -96q65 0 107 -53t42 -132q0 -147 -168 -315l-82 64q78 75 96 151q-60 0 -98.5 39.5t-38.5 101.5t40.5 103t101.5 41z" />
    <glyph glyph-name="Rcaron" unicode="&#x158;" horiz-adv-x="1396" 
d="M784 1526h-247l-213 301h184l154 -154l155 154h187zM1309 932q0 -164 -96 -284.5t-257 -166.5l338 -481h-344l-321 457h-183v-457h-301v1407h633q230 0 380.5 -133.5t150.5 -341.5zM446 1130v-397h302q111 0 180 54.5t69 144.5t-69 144t-180 54h-302z" />
    <glyph glyph-name="rcaron" unicode="&#x159;" horiz-adv-x="821" 
d="M573 1178h-247l-213 301h184l154 -154l155 154h187zM414 860q53 104 147.5 163.5t214.5 59.5v-252q-166 0 -264 -88t-98 -237v-506h-299v1059h299v-199z" />
    <glyph glyph-name="Sacute" unicode="&#x15a;" horiz-adv-x="1300" 
d="M545 1526l237 319l269 -49l-303 -270h-203zM682 -25q-183 0 -342.5 60t-282.5 174l174 207q214 -185 463 -185q110 0 170 44.5t60 113.5q0 71 -62.5 106t-234.5 74q-99 23 -168 44.5t-138 56t-110 76.5t-66.5 104.5t-25.5 142.5q0 195 145 317t375 122q324 0 551 -195
l-158 -217q-195 156 -401 156q-94 0 -150.5 -43.5t-56.5 -108.5q0 -73 64 -109t237 -75q98 -22 169.5 -44.5t138 -57t107.5 -77t65 -103t24 -136.5q0 -203 -146 -325t-401 -122z" />
    <glyph glyph-name="sacute" unicode="&#x15b;" horiz-adv-x="1005" 
d="M401 1178l238 319l268 -49l-303 -270h-203zM520 -25q-127 0 -254 42t-223 118l121 189q84 -59 181 -94t181 -35q74 0 114 26t40 72q0 25 -14 44t-44.5 33.5t-61.5 24.5t-81 23q-62 15 -105.5 28t-91.5 32t-79.5 42t-58.5 54t-39.5 72.5t-12.5 92.5q0 152 114 248t300 96
q218 0 418 -131l-111 -192q-166 108 -307 108q-61 0 -101 -27t-40 -71q0 -40 40 -60t160 -53q48 -12 80 -21.5t76.5 -26t74 -33.5t61.5 -43t51 -56t31.5 -71t12.5 -89q0 -156 -118 -249t-314 -93z" />
    <glyph glyph-name="Scedilla" unicode="&#x15e;" horiz-adv-x="1300" 
d="M1229 422q0 -197 -136.5 -317.5t-377.5 -129.5l-27 -63h2q66 0 109 -39t43 -100q0 -80 -62 -128t-159 -48q-115 0 -195 59l55 119q56 -47 123 -47q36 0 61 17t25 44q0 25 -16.5 40t-48.5 15q-38 0 -62 -18l-45 43l49 113q-303 35 -510 227l174 207q214 -185 463 -185
q110 0 170 44.5t60 113.5q0 71 -62.5 106t-234.5 74q-99 23 -168 44.5t-138 56t-110 76.5t-66.5 104.5t-25.5 142.5q0 195 145 317t375 122q324 0 551 -195l-158 -217q-195 156 -401 156q-94 0 -150.5 -43.5t-56.5 -108.5q0 -73 64 -109t237 -75q98 -22 169.5 -44.5t138 -57
t107.5 -77t65 -103t24 -136.5z" />
    <glyph glyph-name="scedilla" unicode="&#x15f;" horiz-adv-x="1005" 
d="M952 317q0 -145 -103.5 -236.5t-277.5 -103.5l-28 -65h2q66 0 108.5 -39t42.5 -100q0 -80 -62 -128t-159 -48q-114 0 -194 59l55 119q56 -47 123 -47q36 0 61 17t25 44q0 25 -17 40t-49 15q-37 0 -61 -18l-45 43l49 113q-222 29 -379 153l121 189q84 -59 181 -94t181 -35
q74 0 114 26t40 72q0 25 -14 44t-44.5 33.5t-61.5 24.5t-81 23q-62 15 -105.5 28t-91.5 32t-79.5 42t-58.5 54t-39.5 72.5t-12.5 92.5q0 152 114 248t300 96q218 0 418 -131l-111 -192q-166 108 -307 108q-61 0 -101 -27t-40 -71q0 -40 40 -60t160 -53q48 -12 80 -21.5
t76.5 -26t74 -33.5t61.5 -43t51 -56t31.5 -71t12.5 -89z" />
    <glyph glyph-name="Scaron" unicode="&#x160;" horiz-adv-x="1300" 
d="M526 1526l-213 301h185l153 -154l156 154h186l-219 -301h-248zM682 -25q-183 0 -342.5 60t-282.5 174l174 207q214 -185 463 -185q110 0 170 44.5t60 113.5q0 71 -62.5 106t-234.5 74q-99 23 -168 44.5t-138 56t-110 76.5t-66.5 104.5t-25.5 142.5q0 195 145 317t375 122
q324 0 551 -195l-158 -217q-195 156 -401 156q-94 0 -150.5 -43.5t-56.5 -108.5q0 -73 64 -109t237 -75q98 -22 169.5 -44.5t138 -57t107.5 -77t65 -103t24 -136.5q0 -203 -146 -325t-401 -122z" />
    <glyph glyph-name="scaron" unicode="&#x161;" horiz-adv-x="1005" 
d="M381 1178l-213 301h184l154 -154l156 154h186l-219 -301h-248zM520 -25q-127 0 -254 42t-223 118l121 189q84 -59 181 -94t181 -35q74 0 114 26t40 72q0 25 -14 44t-44.5 33.5t-61.5 24.5t-81 23q-62 15 -105.5 28t-91.5 32t-79.5 42t-58.5 54t-39.5 72.5t-12.5 92.5
q0 152 114 248t300 96q218 0 418 -131l-111 -192q-166 108 -307 108q-61 0 -101 -27t-40 -71q0 -40 40 -60t160 -53q48 -12 80 -21.5t76.5 -26t74 -33.5t61.5 -43t51 -56t31.5 -71t12.5 -89q0 -156 -118 -249t-314 -93z" />
    <glyph glyph-name="uni0162" unicode="&#x162;" horiz-adv-x="1308" 
d="M805 0h-76l-37 -88h2q66 0 109 -39t43 -100q0 -80 -62 -128t-159 -48q-115 0 -195 59l55 119q56 -47 123 -47q36 0 61 17t25 44q0 25 -16.5 40t-48.5 15q-38 0 -62 -18l-45 43l56 131h-74v1135h-438v272h1179v-272h-440v-1135z" />
    <glyph glyph-name="uni0163" unicode="&#x163;" horiz-adv-x="808" 
d="M557 -88q66 0 109 -39t43 -100q0 -80 -62.5 -128t-159.5 -48q-114 0 -194 59l55 119q56 -47 123 -47q36 0 61 17t25 44q0 25 -16.5 40t-48.5 15q-38 0 -62 -18l-45 43l49 115q-109 25 -174 109.5t-65 205.5v518h-146v242h146v291h288v-291h230v-242h-230v-471
q0 -52 29 -85.5t72 -33.5q65 0 100 35l72 -194q-67 -61 -170 -84l-31 -72h2z" />
    <glyph glyph-name="Tcaron" unicode="&#x164;" horiz-adv-x="1308" 
d="M530 1526l-213 301h185l153 -154l156 154h186l-219 -301h-248zM504 0v1135h-438v272h1179v-272h-440v-1135h-301z" />
    <glyph glyph-name="tcaron" unicode="&#x165;" horiz-adv-x="1122" 
d="M963 1432q67 0 108 -54.5t41 -142.5q0 -137 -166 -303l-84 63q77 74 96 150q-60 0 -97.5 40.5t-37.5 102.5t40 103t100 41zM584 227q65 0 100 35l72 -194q-46 -41 -112.5 -67t-129.5 -26q-141 0 -230 90.5t-89 233.5v518h-146v242h146v291h288v-291h230v-242h-230v-471
q0 -52 29 -85.5t72 -33.5z" />
    <glyph glyph-name="Umacron" unicode="&#x16a;" horiz-adv-x="1503" 
d="M397 1538v176h707v-176h-707zM752 -25q-280 0 -458.5 177.5t-178.5 455.5v799h303v-786q0 -163 93.5 -267t240.5 -104t240 104t93 267v786h304v-799q0 -278 -178.5 -455.5t-458.5 -177.5z" />
    <glyph glyph-name="umacron" unicode="&#x16b;" horiz-adv-x="1218" 
d="M940 1366v-176h-707v176h707zM807 1059h297v-1059h-297v131q-48 -71 -133.5 -113.5t-186.5 -42.5q-173 0 -283 114.5t-110 295.5v674h289v-610q0 -98 56 -160t145 -62q94 0 158.5 59.5t64.5 145.5v627z" />
    <glyph glyph-name="Uring" unicode="&#x16e;" horiz-adv-x="1503" 
d="M752 1538q-96 0 -165 67.5t-69 163.5t69 165t165 69q97 0 165 -68.5t68 -165.5t-68 -164t-165 -67zM752 1661q44 0 76 32t32 76t-32 76.5t-76 32.5t-76.5 -32.5t-32.5 -76.5t32.5 -76t76.5 -32zM752 -25q-280 0 -458.5 177.5t-178.5 455.5v799h303v-786q0 -163 93.5 -267
t240.5 -104t240 104t93 267v786h304v-799q0 -278 -178.5 -455.5t-458.5 -177.5z" />
    <glyph glyph-name="uring" unicode="&#x16f;" horiz-adv-x="1218" 
d="M588 1190q-96 0 -165 67.5t-69 163.5t69 165t165 69q97 0 165 -68.5t68 -165.5t-68 -164t-165 -67zM588 1530q-44 0 -76.5 -32.5t-32.5 -76.5t32.5 -76t76.5 -32t76 32t32 76t-32 76.5t-76 32.5zM807 1059h297v-1059h-297v131q-48 -71 -133.5 -113.5t-186.5 -42.5
q-173 0 -283 114.5t-110 295.5v674h289v-610q0 -98 56 -160t145 -62q94 0 158.5 59.5t64.5 145.5v627z" />
    <glyph glyph-name="Uhungarumlaut" unicode="&#x170;" horiz-adv-x="1503" 
d="M410 1524l235 321l268 -49l-303 -272h-200zM889 1524l237 319l269 -49l-303 -270h-203zM752 -25q-280 0 -458.5 177.5t-178.5 455.5v799h303v-786q0 -163 93.5 -267t240.5 -104t240 104t93 267v786h304v-799q0 -278 -178.5 -455.5t-458.5 -177.5z" />
    <glyph glyph-name="uhungarumlaut" unicode="&#x171;" horiz-adv-x="1218" 
d="M750 1448l-304 -272h-200l235 321zM928 1176h-203l238 319l268 -49zM807 432v627h297v-1059h-297v131q-48 -71 -133.5 -113.5t-186.5 -42.5q-173 0 -283 114.5t-110 295.5v674h289v-610q0 -98 56 -160t145 -62q94 0 158.5 59.5t64.5 145.5z" />
    <glyph glyph-name="Uogonek" unicode="&#x172;" horiz-adv-x="1503" 
d="M1085 1407h304v-799q0 -278 -178.5 -455.5t-458.5 -177.5q-41 0 -68 -26t-27 -64q0 -41 26 -62.5t71 -21.5t75 27l54 -139q-78 -68 -185 -68q-101 0 -164 61.5t-63 165.5q0 98 66 158q-193 62 -307.5 222.5t-114.5 379.5v799h303v-786q0 -163 93.5 -267t240.5 -104
t240 104t93 267v786z" />
    <glyph glyph-name="uogonek" unicode="&#x173;" horiz-adv-x="1218" 
d="M1182 -147l53 -140q-77 -67 -184 -67q-101 0 -164.5 61.5t-63.5 165.5q0 72 39 127h-55v131q-48 -71 -133.5 -113.5t-186.5 -42.5q-173 0 -283 114.5t-110 295.5v674h289v-610q0 -98 56 -160t145 -62q94 0 158.5 59.5t64.5 145.5v627h297v-1059q-41 0 -67.5 -25.5
t-26.5 -64.5q0 -41 25.5 -62.5t70.5 -21.5q46 0 76 27z" />
    <glyph glyph-name="Wcircumflex" unicode="&#x174;" horiz-adv-x="2238" 
d="M784 1526l213 301h248l219 -301h-186l-156 151l-153 -151h-185zM483 0l-428 1407h330l258 -944l313 944h328l311 -944l258 944h330l-426 -1407h-303l-334 967l-334 -967h-303z" />
    <glyph glyph-name="wcircumflex" unicode="&#x175;" horiz-adv-x="1718" 
d="M522 1178l213 301h248l219 -301h-186l-156 151l-153 -151h-185zM393 0l-360 1059h293l200 -660l209 660h248l211 -660l199 660h293l-359 -1059h-268l-199 666l-198 -666h-269z" />
    <glyph glyph-name="Ycircumflex" unicode="&#x176;" horiz-adv-x="1499" 
d="M414 1526l213 301h247l220 -301h-187l-155 151l-154 -151h-184zM598 0v508l-551 899h352l351 -616l364 616h338l-549 -899v-508h-305z" />
    <glyph glyph-name="ycircumflex" unicode="&#x177;" horiz-adv-x="1220" 
d="M285 1178l213 301h247l220 -301h-187l-155 151l-154 -151h-184zM375 -369q-65 0 -137 18t-127 48l63 205q79 -47 139 -47q90 0 133 73l29 62l-440 1069h309l279 -744l262 744h305l-432 -1112q-61 -155 -159 -235.5t-224 -80.5z" />
    <glyph glyph-name="Ydieresis" unicode="&#x178;" horiz-adv-x="1499" 
d="M535 1544q-62 0 -104 42.5t-42 101.5t42 101t104 42q59 0 101 -42.5t42 -100.5q0 -59 -42.5 -101.5t-100.5 -42.5zM969 1544q-61 0 -103.5 42.5t-42.5 101.5t42.5 101t103.5 42q59 0 101 -42.5t42 -100.5q0 -59 -42.5 -101.5t-100.5 -42.5zM598 0v508l-551 899h352
l351 -616l364 616h338l-549 -899v-508h-305z" />
    <glyph glyph-name="Zacute" unicode="&#x179;" horiz-adv-x="1345" 
d="M573 1526l238 319l268 -49l-303 -270h-203zM92 0l-2 229l739 906h-723v272h1139v-229l-739 -906h747v-272h-1161z" />
    <glyph glyph-name="zacute" unicode="&#x17a;" horiz-adv-x="1077" 
d="M444 1178l238 319l268 -49l-303 -270h-203zM74 0v211l532 594h-518v254h907l-2 -211l-530 -594h536v-254h-925z" />
    <glyph glyph-name="Zdotaccent" unicode="&#x17b;" horiz-adv-x="1345" 
d="M680 1544q-62 0 -103.5 42.5t-41.5 101.5t41.5 101t103.5 42q58 0 100.5 -42.5t42.5 -100.5q0 -59 -42.5 -101.5t-100.5 -42.5zM92 0l-2 229l739 906h-723v272h1139v-229l-739 -906h747v-272h-1161z" />
    <glyph glyph-name="zdotaccent" unicode="&#x17c;" horiz-adv-x="1077" 
d="M549 1196q-62 0 -104 42t-42 101t42 101.5t104 42.5q58 0 100.5 -42.5t42.5 -101.5t-42 -101t-101 -42zM74 0v211l532 594h-518v254h907l-2 -211l-530 -594h536v-254h-925z" />
    <glyph glyph-name="Zcaron" unicode="&#x17d;" horiz-adv-x="1345" 
d="M555 1526l-213 301h184l154 -154l156 154h186l-219 -301h-248zM92 0l-2 229l739 906h-723v272h1139v-229l-739 -906h747v-272h-1161z" />
    <glyph glyph-name="zcaron" unicode="&#x17e;" horiz-adv-x="1077" 
d="M424 1178l-213 301h184l154 -154l156 154h186l-219 -301h-248zM74 0v211l532 594h-518v254h907l-2 -211l-530 -594h536v-254h-925z" />
    <glyph glyph-name="uni0237" unicode="&#x237;" horiz-adv-x="546" 
d="M94 -365q-55 0 -114.5 12t-96.5 31l31 222q55 -19 111 -19q44 0 72 33t28 86v1059h299v-1090q0 -146 -92.5 -240t-237.5 -94z" />
    <glyph glyph-name="circumflex" unicode="&#x2c6;" horiz-adv-x="759" 
d="M41 1178l213 301h248l219 -301h-186l-156 151l-154 -151h-184z" />
    <glyph glyph-name="caron" unicode="&#x2c7;" horiz-adv-x="759" 
d="M254 1178l-213 301h184l154 -154l156 154h186l-219 -301h-248z" />
    <glyph glyph-name="breve" unicode="&#x2d8;" horiz-adv-x="731" 
d="M365 1190q-192 0 -330 135l129 129q41 -40 95 -63t106 -23q111 0 200 86l129 -129q-135 -135 -329 -135z" />
    <glyph glyph-name="dotaccent" unicode="&#x2d9;" horiz-adv-x="403" 
d="M203 1196q-62 0 -104 42t-42 101t42 101.5t104 42.5q58 0 100.5 -42.5t42.5 -101.5t-42 -101t-101 -42z" />
    <glyph glyph-name="ring" unicode="&#x2da;" horiz-adv-x="579" 
d="M289 1190q-96 0 -165 67.5t-69 163.5t69 165t165 69q97 0 165 -68.5t68 -165.5t-68 -164t-165 -67zM289 1313q44 0 76 32t32 76t-32 76.5t-76 32.5t-76.5 -32.5t-32.5 -76.5t32.5 -76t76.5 -32z" />
    <glyph glyph-name="ogonek" unicode="&#x2db;" horiz-adv-x="514" 
d="M287 -354q-101 0 -164.5 61.5t-63.5 165.5q0 125 107 188l174 -61q-41 0 -67.5 -25.5t-26.5 -64.5q0 -41 25.5 -62.5t70.5 -21.5q46 0 76 27l53 -140q-77 -67 -184 -67z" />
    <glyph glyph-name="tilde" unicode="&#x2dc;" horiz-adv-x="843" 
d="M559 1174q-49 0 -101.5 26t-96 52t-70.5 26q-66 0 -86 -109l-150 23q35 270 228 270q49 0 102.5 -26t97.5 -52t70 -26q66 0 86 106l147 -20q-15 -136 -70.5 -203t-156.5 -67z" />
    <glyph glyph-name="hungarumlaut" unicode="&#x2dd;" horiz-adv-x="1060" 
d="M41 1176l235 321l269 -49l-303 -272h-201zM520 1176l238 319l268 -49l-303 -270h-203z" />
    <glyph glyph-name="uni0307" unicode="&#x307;" horiz-adv-x="0" 
d="M-219 1204q-69 0 -116.5 48t-47.5 116q0 64 48 112t116 48q65 0 113.5 -48t48.5 -112q0 -67 -48 -115.5t-114 -48.5z" />
    <glyph glyph-name="uni0326" unicode="&#x326;" horiz-adv-x="0" 
d="M-225 -596l-82 64q78 75 96 151q-60 0 -98.5 39.5t-38.5 101.5t40 103t101 41q65 0 107.5 -53t42.5 -132q0 -147 -168 -315z" />
    <glyph glyph-name="Wgrave" unicode="&#x1e80;" horiz-adv-x="2238" 
d="M1024 1526l-303 270l268 49l238 -319h-203zM483 0l-428 1407h330l258 -944l313 944h328l311 -944l258 944h330l-426 -1407h-303l-334 967l-334 -967h-303z" />
    <glyph glyph-name="wgrave" unicode="&#x1e81;" horiz-adv-x="1718" 
d="M764 1178l-303 270l268 49l238 -319h-203zM393 0l-360 1059h293l200 -660l209 660h248l211 -660l199 660h293l-359 -1059h-268l-199 666l-198 -666h-269z" />
    <glyph glyph-name="Wacute" unicode="&#x1e82;" horiz-adv-x="2238" 
d="M1016 1526l237 319l269 -49l-303 -270h-203zM483 0l-428 1407h330l258 -944l313 944h328l311 -944l258 944h330l-426 -1407h-303l-334 967l-334 -967h-303z" />
    <glyph glyph-name="wacute" unicode="&#x1e83;" horiz-adv-x="1718" 
d="M756 1178l237 319l269 -49l-304 -270h-202zM393 0l-360 1059h293l200 -660l209 660h248l211 -660l199 660h293l-359 -1059h-268l-199 666l-198 -666h-269z" />
    <glyph glyph-name="Wdieresis" unicode="&#x1e84;" horiz-adv-x="2238" 
d="M905 1544q-62 0 -103.5 42.5t-41.5 101.5t41.5 101t103.5 42q59 0 101.5 -42.5t42.5 -100.5t-42.5 -101t-101.5 -43zM1339 1544q-61 0 -103 42.5t-42 101.5t42 101t103 42q59 0 101.5 -42.5t42.5 -100.5t-42.5 -101t-101.5 -43zM483 0l-428 1407h330l258 -944l313 944
h328l311 -944l258 944h330l-426 -1407h-303l-334 967l-334 -967h-303z" />
    <glyph glyph-name="wdieresis" unicode="&#x1e85;" horiz-adv-x="1718" 
d="M643 1196q-62 0 -103.5 42t-41.5 101t41.5 101.5t103.5 42.5q58 0 100.5 -42.5t42.5 -101.5t-42 -101t-101 -42zM1077 1196q-61 0 -103 42t-42 101t42 101.5t103 42.5q59 0 101.5 -42.5t42.5 -101.5q0 -58 -42.5 -100.5t-101.5 -42.5zM393 0l-360 1059h293l200 -660
l209 660h248l211 -660l199 660h293l-359 -1059h-268l-199 666l-198 -666h-269z" />
    <glyph glyph-name="uni1EB8" unicode="&#x1eb8;" horiz-adv-x="1337" 
d="M1227 1135h-781v-281h709v-272h-709v-310h781v-272h-1084v1407h1084v-272zM664 -143q59 0 101 -43t42 -101q0 -60 -41.5 -102.5t-101.5 -42.5q-61 0 -102.5 42.5t-41.5 102.5q0 58 42 101t102 43z" />
    <glyph glyph-name="uni1EB9" unicode="&#x1eb9;" horiz-adv-x="1198" 
d="M610 207q72 0 148 29t127 75l168 -172q-70 -73 -192 -118.5t-240 -45.5q-156 0 -286 70.5t-206 198.5t-76 288q0 157 73 283.5t199 197t279 70.5q249 0 391 -168.5t142 -463.5h-799q21 -110 93 -177t179 -67zM606 852q-99 0 -170 -60.5t-96 -162.5h510
q-19 102 -82.5 162.5t-161.5 60.5zM541 -145q58 0 100.5 -43.5t42.5 -100.5q0 -60 -42 -101.5t-101 -41.5q-61 0 -103.5 41.5t-42.5 101.5q0 58 42.5 101t103.5 43z" />
    <glyph glyph-name="uni1EBC" unicode="&#x1ebc;" horiz-adv-x="1339" 
d="M555 1626q-34 0 -55 -25.5t-31 -82.5l-150 22q35 270 228 270q49 0 102.5 -26t97.5 -52t70 -26q66 0 86 106l148 -20q-30 -270 -228 -270q-49 0 -101.5 26t-96 52t-70.5 26zM1229 1135h-780v-281h706v-272h-706v-310h780v-272h-1084v1407h1084v-272z" />
    <glyph glyph-name="uni1EBD" unicode="&#x1ebd;" horiz-adv-x="1179" 
d="M473 1278q-66 0 -86 -109l-149 23q17 135 72.5 202.5t154.5 67.5q49 0 102.5 -26t97.5 -52t70 -26q66 0 86 106l148 -20q-30 -270 -228 -270q-49 0 -101.5 26t-96 52t-70.5 26zM610 207q72 0 148 29t127 75l168 -172q-70 -73 -192 -118.5t-240 -45.5q-156 0 -286 70.5
t-206 198.5t-76 288q0 157 73 283.5t199 197t279 70.5q249 0 391 -168.5t142 -463.5h-799q21 -110 93 -177t179 -67zM606 852q-99 0 -170 -60.5t-96 -162.5h510q-19 102 -82.5 162.5t-161.5 60.5z" />
    <glyph glyph-name="Ygrave" unicode="&#x1ef2;" horiz-adv-x="1499" 
d="M653 1526l-303 270l268 49l238 -319h-203zM598 0v508l-551 899h352l351 -616l364 616h338l-549 -899v-508h-305z" />
    <glyph glyph-name="ygrave" unicode="&#x1ef3;" horiz-adv-x="1220" 
d="M526 1178l-303 270l269 49l237 -319h-203zM375 -369q-65 0 -137 18t-127 48l63 205q79 -47 139 -47q90 0 133 73l29 62l-440 1069h309l279 -744l262 744h305l-432 -1112q-61 -155 -159 -235.5t-224 -80.5z" />
    <glyph glyph-name="uni2002" unicode="&#x2002;" horiz-adv-x="1024" 
 />
    <glyph glyph-name="uni2003" unicode="&#x2003;" horiz-adv-x="2048" 
 />
    <glyph glyph-name="uni2004" unicode="&#x2004;" horiz-adv-x="681" 
 />
    <glyph glyph-name="uni2005" unicode="&#x2005;" horiz-adv-x="512" 
 />
    <glyph glyph-name="uni2006" unicode="&#x2006;" horiz-adv-x="339" 
 />
    <glyph glyph-name="endash" unicode="&#x2013;" horiz-adv-x="1165" 
d="M90 438v250h985v-250h-985z" />
    <glyph glyph-name="emdash" unicode="&#x2014;" horiz-adv-x="1789" 
d="M90 438v250h1610v-250h-1610z" />
    <glyph glyph-name="quoteleft" unicode="&#x2018;" horiz-adv-x="577" 
d="M319 1417l107 -82q-98 -92 -125 -194q73 0 126.5 -55t53.5 -130q0 -76 -54.5 -131t-129.5 -55q-87 0 -141 71.5t-54 182.5q0 182 217 393z" />
    <glyph glyph-name="quoteright" unicode="&#x2019;" horiz-adv-x="575" 
d="M256 772l-106 82q96 90 124 193q-74 0 -127 55t-53 131q0 75 55 130.5t130 55.5q87 0 140.5 -71.5t53.5 -182.5q0 -182 -217 -393z" />
    <glyph glyph-name="quotesinglbase" unicode="&#x201a;" horiz-adv-x="575" 
d="M256 -299l-106 82q95 86 124 192q-73 0 -126.5 55t-53.5 130q0 76 55 132t130 56q87 0 140.5 -71.5t53.5 -184.5q0 -183 -217 -391z" />
    <glyph glyph-name="quotedblleft" unicode="&#x201c;" horiz-adv-x="1110" 
d="M319 1417l107 -82q-98 -92 -125 -194q73 0 126.5 -55t53.5 -130q0 -76 -54.5 -131t-129.5 -55q-87 0 -141 71.5t-54 182.5q0 182 217 393zM852 1417l106 -82q-97 -90 -124 -194q73 0 126.5 -55t53.5 -130q0 -76 -55 -131t-130 -55q-87 0 -140.5 71.5t-53.5 182.5
q0 182 217 393z" />
    <glyph glyph-name="quotedblright" unicode="&#x201d;" horiz-adv-x="1110" 
d="M256 772l-106 82q96 90 124 193q-74 0 -127 55t-53 131q0 75 55 130.5t130 55.5q87 0 140.5 -71.5t53.5 -182.5q0 -182 -217 -393zM791 772l-109 82q100 89 125 193q-73 0 -125.5 54.5t-52.5 131.5q0 76 54 131t130 55q86 0 140.5 -71.5t54.5 -182.5q0 -179 -217 -393z
" />
    <glyph glyph-name="quotedblbase" unicode="&#x201e;" horiz-adv-x="1110" 
d="M256 -299l-106 82q95 86 124 192q-73 0 -126.5 55t-53.5 130q0 76 55 132t130 56q87 0 140.5 -71.5t53.5 -184.5q0 -183 -217 -391zM791 -299l-109 82q99 86 125 192q-73 0 -125.5 55t-52.5 130q0 77 54 132.5t130 55.5q86 0 140.5 -71.5t54.5 -184.5q0 -180 -217 -391z
" />
    <glyph glyph-name="bullet" unicode="&#x2022;" horiz-adv-x="763" 
d="M383 328q-117 0 -200 82.5t-83 199.5q0 116 83 198.5t200 82.5q115 0 198 -82.5t83 -198.5q0 -117 -82.5 -199.5t-198.5 -82.5z" />
    <glyph glyph-name="ellipsis" unicode="&#x2026;" horiz-adv-x="1642" 
d="M291 -25q-79 0 -134 56t-55 135q0 73 55.5 127.5t133.5 54.5q74 0 128 -54.5t54 -127.5q0 -78 -53.5 -134.5t-128.5 -56.5zM823 -25q-79 0 -133.5 56t-54.5 135q0 73 55 127.5t133 54.5q74 0 128.5 -54.5t54.5 -127.5q0 -78 -54 -134.5t-129 -56.5zM1356 -25
q-79 0 -134 56t-55 135q0 73 55.5 127.5t133.5 54.5q74 0 128 -54.5t54 -127.5q0 -78 -53.5 -134.5t-128.5 -56.5z" />
    <glyph glyph-name="uni202F" unicode="&#x202f;" horiz-adv-x="557" 
 />
    <glyph glyph-name="perthousand" unicode="&#x2030;" horiz-adv-x="2576" 
d="M455 700q-155 0 -253 103t-98 256q0 155 98.5 258.5t254.5 103.5t253 -103.5t97 -256.5q0 -154 -98.5 -257.5t-253.5 -103.5zM289 0l979 1407h237l-979 -1407h-237zM457 877q65 0 107 50t42 134q0 81 -42.5 131.5t-108.5 50.5q-65 0 -106.5 -50t-41.5 -132t43 -133
t107 -51zM1335 -23q-156 0 -254 104t-98 257t98.5 256.5t253.5 103.5t253 -104t98 -256q0 -154 -99.5 -257.5t-251.5 -103.5zM2120 -23q-155 0 -254 104t-99 257t99 256.5t254 103.5q156 0 253 -103.5t97 -256.5q0 -154 -98.5 -257.5t-251.5 -103.5zM1335 156
q67 0 108.5 49.5t41.5 132.5q0 82 -43 133t-107 51q-68 0 -109.5 -50t-41.5 -134q0 -81 42.5 -131.5t108.5 -50.5zM2120 156q67 0 108 49.5t41 132.5q0 82 -42.5 133t-106.5 51q-67 0 -108.5 -50t-41.5 -134q0 -81 42.5 -131.5t107.5 -50.5z" />
    <glyph glyph-name="guilsinglleft" unicode="&#x2039;" horiz-adv-x="733" 
d="M410 102l-338 418l338 414l235 -49l-291 -365l291 -366z" />
    <glyph glyph-name="guilsinglright" unicode="&#x203a;" horiz-adv-x="733" 
d="M324 102l-236 52l291 366l-291 365l236 49l338 -414z" />
    <glyph glyph-name="Euro" unicode="&#x20ac;" horiz-adv-x="1652" 
d="M989 250q94 0 179 42.5t149 115.5l217 -197q-105 -110 -247 -173t-298 -63q-246 0 -445.5 148t-269.5 375h-139v149h109q-2 18 -2 58q0 27 4 81h-111v150h148q76 217 271 356.5t435 139.5q157 0 298.5 -62.5t246.5 -173.5l-219 -197q-62 73 -147 115.5t-179 42.5
q-115 0 -214 -60.5t-159 -160.5h498v-150h-553q-8 -36 -8 -81q0 -22 4 -58h557v-149h-512q57 -111 161.5 -179.5t225.5 -68.5z" />
    <glyph glyph-name="trademark" unicode="&#x2122;" horiz-adv-x="1583" 
d="M285 573v449h-168v166h516v-166h-168v-449h-180zM713 573v615h182l166 -275l164 275h182v-615h-182v310l-164 -275l-166 275v-310h-182z" />
    <glyph glyph-name="minus" unicode="&#x2212;" horiz-adv-x="1302" 
d="M156 561v244h989v-244h-989z" />
    <glyph glyph-name="a.alt" horiz-adv-x="1314" 
d="M901 1059h299v-1059h-299v150q-64 -84 -155.5 -129.5t-200.5 -45.5q-214 0 -350 154.5t-136 400.5q0 244 136 398.5t350 154.5q110 0 201.5 -45t154.5 -129v150zM631 227q120 0 195 84.5t75 218.5t-75 217.5t-195 83.5q-125 0 -203 -84t-78 -217q0 -134 78.5 -218.5
t202.5 -84.5z" />
    <glyph glyph-name="aacute.alt" horiz-adv-x="1314" 
d="M1053 1448l-303 -270h-203l237 319zM901 1059h299v-1059h-299v150q-64 -84 -155.5 -129.5t-200.5 -45.5q-214 0 -350 154.5t-136 400.5q0 244 136 398.5t350 154.5q110 0 201.5 -45t154.5 -129v150zM631 227q120 0 195 84.5t75 218.5t-75 217.5t-195 83.5
q-125 0 -203 -84t-78 -217q0 -134 78.5 -218.5t202.5 -84.5z" />
    <glyph glyph-name="abreve.alt" horiz-adv-x="1314" 
d="M981 1325q-135 -135 -330 -135q-191 0 -329 135l129 129q42 -40 95 -63t105 -23q112 0 201 86zM901 1059h299v-1059h-299v150q-64 -84 -155.5 -129.5t-200.5 -45.5q-214 0 -350 154.5t-136 400.5q0 244 136 398.5t350 154.5q110 0 201.5 -45t154.5 -129v150zM631 227
q120 0 195 84.5t75 218.5t-75 217.5t-195 83.5q-125 0 -203 -84t-78 -217q0 -134 78.5 -218.5t202.5 -84.5z" />
    <glyph glyph-name="acircumflex.alt" horiz-adv-x="1314" 
d="M653 1329l-153 -151h-185l213 301h248l219 -301h-186zM901 1059h299v-1059h-299v150q-64 -84 -155.5 -129.5t-200.5 -45.5q-214 0 -350 154.5t-136 400.5q0 244 136 398.5t350 154.5q110 0 201.5 -45t154.5 -129v150zM631 227q120 0 195 84.5t75 218.5t-75 217.5
t-195 83.5q-125 0 -203 -84t-78 -217q0 -134 78.5 -218.5t202.5 -84.5z" />
    <glyph glyph-name="adieresis.alt" horiz-adv-x="1314" 
d="M436 1196q-62 0 -103.5 42t-41.5 101t41.5 101.5t103.5 42.5q58 0 101 -42.5t43 -101.5q0 -58 -42.5 -100.5t-101.5 -42.5zM870 1196q-61 0 -103 42t-42 101t42 101.5t103 42.5q58 0 101 -42.5t43 -101.5q0 -58 -42.5 -100.5t-101.5 -42.5zM901 1059h299v-1059h-299v150
q-64 -84 -155.5 -129.5t-200.5 -45.5q-214 0 -350 154.5t-136 400.5q0 244 136 398.5t350 154.5q110 0 201.5 -45t154.5 -129v150zM631 227q120 0 195 84.5t75 218.5t-75 217.5t-195 83.5q-125 0 -203 -84t-78 -217q0 -134 78.5 -218.5t202.5 -84.5z" />
    <glyph glyph-name="agrave.alt" horiz-adv-x="1314" 
d="M758 1178h-203l-303 270l268 49zM901 1059h299v-1059h-299v150q-64 -84 -155.5 -129.5t-200.5 -45.5q-214 0 -350 154.5t-136 400.5q0 244 136 398.5t350 154.5q110 0 201.5 -45t154.5 -129v150zM631 227q120 0 195 84.5t75 218.5t-75 217.5t-195 83.5q-125 0 -203 -84
t-78 -217q0 -134 78.5 -218.5t202.5 -84.5z" />
    <glyph glyph-name="amacron.alt" horiz-adv-x="1314" 
d="M1004 1366v-176h-707v176h707zM901 1059h299v-1059h-299v150q-64 -84 -155.5 -129.5t-200.5 -45.5q-214 0 -350 154.5t-136 400.5q0 244 136 398.5t350 154.5q110 0 201.5 -45t154.5 -129v150zM631 227q120 0 195 84.5t75 218.5t-75 217.5t-195 83.5q-125 0 -203 -84
t-78 -217q0 -134 78.5 -218.5t202.5 -84.5z" />
    <glyph glyph-name="aogonek.alt" horiz-adv-x="1314" 
d="M1278 -147l53 -140q-77 -67 -184 -67q-101 0 -164 61.5t-63 165.5q0 74 38 127h-57v150q-64 -84 -155.5 -129.5t-200.5 -45.5q-214 0 -350 154.5t-136 400.5q0 244 136 398.5t350 154.5q110 0 201.5 -45t154.5 -129v150h299v-1059q-41 0 -67.5 -25.5t-26.5 -64.5
q0 -41 25.5 -62.5t70.5 -21.5q46 0 76 27zM631 227q120 0 195 84.5t75 218.5t-75 217.5t-195 83.5q-125 0 -203 -84t-78 -217q0 -134 78.5 -218.5t202.5 -84.5z" />
    <glyph glyph-name="aring.alt" horiz-adv-x="1314" 
d="M651 1190q-96 0 -164.5 67.5t-68.5 163.5q0 97 69 165.5t164 68.5q97 0 165.5 -68.5t68.5 -165.5q0 -96 -68.5 -163.5t-165.5 -67.5zM651 1530q-44 0 -76 -32.5t-32 -76.5t32 -76t76 -32t76.5 32t32.5 76t-32.5 76.5t-76.5 32.5zM901 1059h299v-1059h-299v150
q-64 -84 -155.5 -129.5t-200.5 -45.5q-214 0 -350 154.5t-136 400.5q0 244 136 398.5t350 154.5q110 0 201.5 -45t154.5 -129v150zM631 227q120 0 195 84.5t75 218.5t-75 217.5t-195 83.5q-125 0 -203 -84t-78 -217q0 -134 78.5 -218.5t202.5 -84.5z" />
    <glyph glyph-name="atilde.alt" horiz-adv-x="1314" 
d="M520 1278q-66 0 -86 -109l-149 23q17 135 72.5 202.5t154.5 67.5q49 0 102.5 -26t97.5 -52t70 -26q66 0 86 106l148 -20q-30 -270 -228 -270q-49 0 -101.5 26t-96 52t-70.5 26zM901 1059h299v-1059h-299v150q-64 -84 -155.5 -129.5t-200.5 -45.5q-214 0 -350 154.5
t-136 400.5q0 244 136 398.5t350 154.5q110 0 201.5 -45t154.5 -129v150zM631 227q120 0 195 84.5t75 218.5t-75 217.5t-195 83.5q-125 0 -203 -84t-78 -217q0 -134 78.5 -218.5t202.5 -84.5z" />
    </font>
</defs>
</svg>
