<svg xmlns="http://www.w3.org/2000/svg" width="27.875" height="18.188" viewBox="0 0 27.875 18.188">
  <g id="burger-nav" transform="translate(5.5 -3.531)" fill="#333f58">
    <path d="M 21.09375 21.46875 L 4.78125 21.46875 C 4.191020011901855 21.46875 3.75 20.90110015869141 3.75 20.3935604095459 C 3.75 19.85837936401367 4.222249984741211 19.40625 4.78125 19.40625 L 21.09375 19.40625 C 21.68398094177246 19.40625 22.125 19.97389984130859 22.125 20.48144912719727 C 22.125 21.01662063598633 21.65275001525879 21.46875 21.09375 21.46875 Z M 21.09375 13.65625 L -4.21875 13.65625 C -4.787380218505859 13.65625 -5.25 13.19363021850586 -5.25 12.625 C -5.25 12.05636978149414 -4.787380218505859 11.59375 -4.21875 11.59375 L 21.09375 11.59375 C 21.66238021850586 11.59375 22.125 12.05636978149414 22.125 12.625 C 22.125 13.19363021850586 21.66238021850586 13.65625 21.09375 13.65625 Z M 21.09375 5.84375 L 0.78125 5.84375 C 0.1910199970006943 5.84375 -0.25 5.276100158691406 -0.25 4.76855993270874 C -0.25 4.23337984085083 0.2222499996423721 3.78125 0.78125 3.78125 L 21.09375 3.78125 C 21.68398094177246 3.78125 22.125 4.348899841308594 22.125 4.856450080871582 C 22.125 5.39162015914917 21.65275001525879 5.84375 21.09375 5.84375 Z" stroke="none"/>
    <path d="M 0.78125 4.03125 C 0.3494091033935547 4.03125 0 4.380859375 0 4.768550872802734 C 0 5.15625 0.3494091033935547 5.59375 0.78125 5.59375 L 21.09375 5.59375 C 21.52557945251465 5.59375 21.875 5.244329452514648 21.875 4.856439590454102 C 21.875 4.468549728393555 21.52343940734863 4.03125 21.09375 4.03125 L 0.78125 4.03125 M -4.21875 11.84375 C -4.650590896606445 11.84375 -5 12.19530963897705 -5 12.625 C -5 13.05469036102295 -4.650590896606445 13.40625 -4.21875 13.40625 L 21.09375 13.40625 C 21.52343940734863 13.40625 21.875 13.05469036102295 21.875 12.625 C 21.875 12.19530963897705 21.52343940734863 11.84375 21.09375 11.84375 L -4.21875 11.84375 M 4.78125 19.65625 C 4.349410057067871 19.65625 4 20.00566101074219 4 20.39355087280273 C 4 20.78145027160645 4.349410057067871 21.21875 4.78125 21.21875 L 21.09375 21.21875 C 21.52557945251465 21.21875 21.875 20.86932945251465 21.875 20.4814395904541 C 21.875 20.09354972839355 21.52343940734863 19.65625 21.09375 19.65625 L 4.78125 19.65625 M 0.78125 3.53125 L 21.09375 3.53125 C 21.82706069946289 3.53125 22.375 4.230890274047852 22.375 4.856439590454102 C 22.375 5.527130126953125 21.78825950622559 6.09375 21.09375 6.09375 L 0.78125 6.09375 C 0.04793930053710938 6.09375 -0.5 5.394109725952148 -0.5 4.768550872802734 C -0.5 4.097860336303711 0.08674049377441406 3.53125 0.78125 3.53125 Z M -4.21875 11.34375 L 21.09375 11.34375 C 21.80023002624512 11.34375 22.375 11.91851997375488 22.375 12.625 C 22.375 13.33148002624512 21.80023002624512 13.90625 21.09375 13.90625 L -4.21875 13.90625 C -4.925230026245117 13.90625 -5.5 13.33148002624512 -5.5 12.625 C -5.5 11.91851997375488 -4.925230026245117 11.34375 -4.21875 11.34375 Z M 4.78125 19.15625 L 21.09375 19.15625 C 21.82706069946289 19.15625 22.375 19.85589027404785 22.375 20.4814395904541 C 22.375 21.15213012695312 21.78825950622559 21.71875 21.09375 21.71875 L 4.78125 21.71875 C 4.047940254211426 21.71875 3.5 21.01910972595215 3.5 20.39355087280273 C 3.5 19.72286033630371 4.086739540100098 19.15625 4.78125 19.15625 Z" stroke="none" fill="#333f58"/>
  </g>
</svg>
