<svg xmlns="http://www.w3.org/2000/svg" xmlns:xlink="http://www.w3.org/1999/xlink" width="483.133" height="231.439" viewBox="0 0 483.133 231.439">
  <defs>
    <clipPath id="clip-path">
      <rect id="Rectangle_834" data-name="Rectangle 834" width="483.133" height="231.439" fill="none"/>
    </clipPath>
  </defs>
  <g id="cloud2" transform="translate(0 447)" opacity="0.65">
    <g id="Group_403" data-name="Group 403" transform="translate(0 -447)" clip-path="url(#clip-path)">
      <path id="Path_846" data-name="Path 846" d="M408.708,164.867a52.638,52.638,0,0,1-.345,5.806H71.548A40.119,40.119,0,0,1,136.975,143a49.359,49.359,0,0,1,70.907-19.661,85.189,85.189,0,0,1,163.686-6.306,49.392,49.392,0,0,1,37.14,47.835" transform="translate(74.425 60.757)" fill="#fff"/>
      <path id="Path_848" data-name="Path 848" d="M131.328,86.067a7.287,7.287,0,0,1-7.288,7.288H21.357a7.288,7.288,0,0,1,0-14.575H124.04a7.287,7.287,0,0,1,7.288,7.288" transform="translate(14.635 81.946)" fill="#fff"/>
      <path id="Path_850" data-name="Path 850" d="M87.532,113.55a5.654,5.654,0,0,1-5.653,5.653H35.69a5.653,5.653,0,0,1,0-11.307H81.879a5.654,5.654,0,0,1,5.653,5.653" transform="translate(31.247 112.235)" fill="#fff"/>
    </g>
  </g>
</svg>
