<svg xmlns="http://www.w3.org/2000/svg" width="270.144" height="83.528" viewBox="0 0 270.144 83.528">
  <path id="cloud1" d="M252.49,65.55a16.422,16.422,0,0,0-8.81,2.593,26.655,26.655,0,0,0-21.222-10.966,26.077,26.077,0,0,0-17.525,6.886c-5.56-12.331-17.119-20.812-30.485-20.812a31.671,31.671,0,0,0-18.372,5.931C149.816,20.955,126.678,0,99.077,0,73.056,0,51.005,18.625,43.318,44.405c-9.638,2.7-17.607,9.934-21.975,19.5a16.32,16.32,0,0,0-3.619-.408C7.936,63.5,0,72.221,0,82.981c0,.184.02.363.027.547H270.144c-.7-10.054-8.328-17.978-17.654-17.978" fill="#fff" opacity="0.65"/>
</svg>
