<svg xmlns="http://www.w3.org/2000/svg" xmlns:xlink="http://www.w3.org/1999/xlink" width="24" height="11" viewBox="0 0 24 11">
  <defs>
    <clipPath id="clip-path">
      <rect id="Rectangle_1374" data-name="Rectangle 1374" width="24" height="11" transform="translate(-9622 11914)" fill="#fff"/>
    </clipPath>
  </defs>
  <g id="dropdown-pointer" transform="translate(9622 -11914)" clip-path="url(#clip-path)">
    <g id="Path_6273" data-name="Path 6273" transform="translate(-9935 11924)" fill="#fff">
      <path d="M2.7,0H313.747L325.02-10,336.105,0H1097.3a2.863,2.863,0,0,1,2.7,3V275a2.863,2.863,0,0,1-2.7,3H2.7A2.863,2.863,0,0,1,0,275V3A2.863,2.863,0,0,1,2.7,0Z" stroke="none"/>
      <path d="M 325.0146484375 -8.658233642578125 L 314.1264038085938 1 L 2.7032470703125 1 C 1.76416015625 1 1 1.89715576171875 1 3 L 1 275 C 1 276.1028442382812 1.76416015625 277 2.7032470703125 277 L 1097.296630859375 277 C 1098.23583984375 277 1099 276.1028442382812 1099 275 L 1099 3 C 1099 1.89715576171875 1098.23583984375 1 1097.296630859375 1 L 335.720703125 1 L 325.0146484375 -8.658233642578125 M 325.020263671875 -10 L 336.1051635742188 0 L 1097.296630859375 0 C 1098.789672851562 0 1100 1.3431396484375 1100 3 L 1100 275 C 1100 276.6568603515625 1098.789672851562 278 1097.296630859375 278 L 2.7032470703125 278 C 1.2103271484375 278 0 276.6568603515625 0 275 L 0 3 C 0 1.3431396484375 1.2103271484375 0 2.7032470703125 0 L 313.7468872070312 0 L 325.020263671875 -10 Z" stroke="none" fill="rgba(178,178,178,0.3)"/>
    </g>
  </g>
</svg>
