<svg width="45" height="44" viewBox="0 0 45 44" fill="none" xmlns="http://www.w3.org/2000/svg">
<g clip-path="url(#clip0_5_876)">
<path d="M39.3469 0H6.34692C3.31367 0 0.846924 2.46675 0.846924 5.5V38.5C0.846924 41.5332 3.31367 44 6.34692 44H39.3469C42.3802 44 44.8469 41.5332 44.8469 38.5V5.5C44.8469 2.46675 42.3802 0 39.3469 0Z" fill="#1976D2"/>
<path d="M37.9719 22H31.0969V16.5C31.0969 14.982 32.3289 15.125 33.8469 15.125H36.5969V8.25H31.0969C26.5402 8.25 22.8469 11.9433 22.8469 16.5V22H17.3469V28.875H22.8469V44H31.0969V28.875H35.2219L37.9719 22Z" fill="#FAFAFA"/>
</g>
<defs>
<clipPath id="clip0_5_876">
<rect width="44" height="44" fill="white" transform="translate(0.846924)"/>
</clipPath>
</defs>
</svg>
