<svg width="28" height="32" viewBox="0 0 28 32" fill="none" xmlns="http://www.w3.org/2000/svg">
<path d="M12.2405 31.9999C9.00473 32.0042 5.89629 30.7394 3.58269 28.4771C-1.25843 23.4464 -1.1639 15.4609 3.795 10.5461L11.5741 2.7683C14.7526 -0.50163 19.8556 -0.927052 23.5317 1.77147C27.448 4.7782 28.1854 10.3904 25.1786 14.3068C24.9438 14.6127 24.6894 14.9031 24.4171 15.1761L16.2765 23.3166C15.3604 24.2745 14.1445 24.8907 12.8303 25.0632C11.049 25.2584 9.28549 24.5657 8.11314 23.2104C6.31579 20.908 6.50794 17.629 8.56187 15.5522L14.7677 9.35173C15.5547 8.565 16.8304 8.565 17.6174 9.35173C18.4041 10.1387 18.4041 11.4144 17.6174 12.2014L11.2208 18.5994C10.6579 19.1626 10.6582 20.0755 11.2215 20.6382C11.7847 21.201 12.6975 21.2008 13.2603 20.6375L21.4747 12.4245C23.1611 10.7847 23.473 8.18977 22.2231 6.19712C20.7471 3.92358 17.7076 3.27698 15.4341 4.75295C15.1494 4.93773 14.8847 5.15154 14.6441 5.39099L6.53716 13.5047C3.47292 16.4801 3.07483 21.2605 5.60476 24.7018C8.41872 28.3667 13.6709 29.0564 17.3357 26.2425C17.6221 26.0226 17.8939 25.7844 18.1495 25.5294L24.5474 19.1328C25.3344 18.3461 26.6101 18.3461 27.3971 19.1328C28.1838 19.9198 28.1838 21.1955 27.3971 21.9825L20.9991 28.3791C18.6777 30.7034 15.5256 32.0065 12.2405 31.9999Z" fill="black"/>
</svg>
