<svg xmlns="http://www.w3.org/2000/svg" width="14" height="14" viewBox="0 0 14 14">
  <path id="globe" d="M7-12.25a7,7,0,0,1,7,7,7,7,0,0,1-7,7,7,7,0,0,1-7-7A7,7,0,0,1,7-12.25ZM7,.875c.457,0,1.1-.394,1.693-1.567a7.642,7.642,0,0,0,.634-1.933H4.648A8.75,8.75,0,0,0,5.307-.692C5.9.481,6.543.875,7,.875ZM4.493-3.5H9.507a12.789,12.789,0,0,0,.118-1.75A12.789,12.789,0,0,0,9.507-7H4.493a12.788,12.788,0,0,0-.118,1.75A12.788,12.788,0,0,0,4.493-3.5ZM9.327-7.875a7.333,7.333,0,0,0-.634-1.933C8.1-10.982,7.457-11.375,7-11.375s-1.1.393-1.693,1.567a8.337,8.337,0,0,0-.659,1.933ZM10.366-7A10.413,10.413,0,0,1,10.5-5.25a10.413,10.413,0,0,1-.134,1.75h2.5a6.073,6.073,0,0,0,.254-1.75A6.073,6.073,0,0,0,12.871-7ZM8.955-11.056a8.107,8.107,0,0,1,1.291,3.181h2.289A6.135,6.135,0,0,0,8.955-11.056Zm-3.91,0a6.143,6.143,0,0,0-3.58,3.181h2.29A8.107,8.107,0,0,1,5.045-11.056ZM.875-5.25A6.13,6.13,0,0,0,1.129-3.5H3.609A13.918,13.918,0,0,1,3.5-5.25,13.918,13.918,0,0,1,3.609-7H1.129A6.13,6.13,0,0,0,.875-5.25ZM12.534-2.625H10.246A8.1,8.1,0,0,1,8.955.555,6.128,6.128,0,0,0,12.534-2.625Zm-8.78,0H1.465A6.136,6.136,0,0,0,5.045.555,8.1,8.1,0,0,1,3.754-2.625Z" transform="translate(0 12.25)" fill="#b2b2b2"/>
</svg>
