<svg xmlns="http://www.w3.org/2000/svg" width="254.683" height="246.964" viewBox="0 0 254.683 246.964">
  <g id="hero-hexagons" transform="translate(-1000.472 -160.31)">
    <path id="Path_858" data-name="Path 858" d="M152.561.46H52.209L50.74,3.03,2.059,87.331.59,89.9l1.469,2.518L50.74,176.772l1.469,2.57H155.5l1.469-2.57,48.681-84.353,1.469-2.518-1.469-2.57L156.968,3.03,155.5.46Z" transform="translate(999.882 227.931)" fill="#ff5811" opacity="0.03"/>
    <path id="Path_859" data-name="Path 859" d="M92.223.46H31.714l-.886,1.55L1.476,52.84.59,54.39l.886,1.518,29.353,50.861.886,1.55h62.28l.886-1.55,29.353-50.861.886-1.518-.886-1.55L94.88,2.01,93.994.46Z" transform="translate(1128.882 160.85)" fill="none" stroke="rgba(255,88,17,0.27)" stroke-width="2"/>
  </g>
</svg>
