<svg xmlns="http://www.w3.org/2000/svg" xmlns:xlink="http://www.w3.org/1999/xlink" width="251" height="302" viewBox="0 0 251 302">
  <defs>
    <clipPath id="clip-path">
      <rect id="Rectangle_1376" data-name="Rectangle 1376" width="251" height="302" transform="translate(0 832)" fill="#fff" stroke="#707070" stroke-width="1"/>
    </clipPath>
  </defs>
  <g id="hero-hexagons2" transform="translate(0 -832)" clip-path="url(#clip-path)">
    <g id="hero-hexagons2-2" data-name="hero-hexagons2">
      <path id="Path_855" data-name="Path 855" d="M195.24.46H66.705L64.824,3.752,2.471,111.727.59,115.019l1.881,3.225L64.824,226.286l1.881,3.292H199l1.881-3.292,62.353-108.042,1.881-3.225-1.881-3.292L200.884,3.752,199,.46Z" transform="translate(-40.964 831.254)" fill="#ff5811" opacity="0.03"/>
      <path id="Path_856" data-name="Path 856" d="M120.479.46H41.312L40.153,2.488l-38.4,66.5L.59,71.019l1.159,1.986,38.4,66.545,1.159,2.028H122.8l1.159-2.028,38.4-66.545,1.159-1.986-1.159-2.028-38.4-66.5L122.8.46Z" transform="translate(86.482 991.254)" fill="none" stroke="rgba(255,88,17,0.27)" stroke-width="2"/>
    </g>
  </g>
</svg>
