<svg xmlns="http://www.w3.org/2000/svg" xmlns:xlink="http://www.w3.org/1999/xlink" width="290" height="218" viewBox="0 0 290 218">
  <defs>
    <clipPath id="clip-path">
      <rect id="Rectangle_1401" data-name="Rectangle 1401" width="290" height="218" transform="translate(110 2120.706)" fill="#fff" stroke="#707070" stroke-width="1"/>
    </clipPath>
  </defs>
  <g id="hex-white1" transform="translate(-110 -2120.706)" clip-path="url(#clip-path)">
    <g id="Group_1485" data-name="Group 1485">
      <path id="Path_6275" data-name="Path 6275" d="M70.468,229.579H199l1.881-3.292,62.352-107.975,1.881-3.292-1.881-3.225L200.884,3.752,199,.46H66.705L64.824,3.752,2.471,111.794.59,115.02l1.881,3.292L64.824,226.287l1.881,3.292Z" transform="translate(134.882 2099.456)" fill="#fff" stroke="rgba(255,255,255,0.27)" stroke-width="2" opacity="0.11"/>
      <path id="Path_6276" data-name="Path 6276" d="M43.629,141.579H122.8l1.159-2.028,38.4-66.5,1.159-2.028-1.159-1.986-38.4-66.545L122.8.46H41.312L40.153,2.488,1.749,69.033.59,71.019l1.159,2.028,38.4,66.5,1.159,2.028Z" transform="translate(109.036 2027.456)" fill="#fff" stroke="rgba(255,255,255,0.27)" stroke-width="2" opacity="0.11"/>
    </g>
  </g>
</svg>
