<svg xmlns="http://www.w3.org/2000/svg" xmlns:xlink="http://www.w3.org/1999/xlink" width="290" height="276" viewBox="0 0 290 276">
  <defs>
    <clipPath id="clip-path">
      <rect id="Rectangle_1402" data-name="Rectangle 1402" width="290" height="276" transform="translate(1562 2178.706)" fill="#fff" stroke="#707070" stroke-width="1"/>
    </clipPath>
  </defs>
  <g id="hex-white2" transform="translate(-1562 -2178.706)" clip-path="url(#clip-path)">
    <g id="Group_1486" data-name="Group 1486">
      <path id="Path_6277" data-name="Path 6277" d="M195.24.46H66.705L64.824,3.752,2.471,111.727.59,115.019l1.881,3.225L64.824,226.286l1.881,3.292H199l1.881-3.292,62.353-108.042,1.881-3.225-1.881-3.292L200.884,3.752,199,.46Z" transform="translate(1561.223 2178.016)" fill="#fff" stroke="rgba(255,255,255,0.27)" stroke-width="2" opacity="0.11"/>
      <path id="Path_6278" data-name="Path 6278" d="M120.479.46H41.312L40.153,2.488l-38.4,66.5L.59,71.019l1.159,1.986,38.4,66.545,1.159,2.028H122.8l1.159-2.028,38.4-66.545,1.159-1.986-1.159-2.028-38.4-66.5L122.8.46Z" transform="translate(1688.669 2338.016)" fill="#fff" stroke="rgba(255,255,255,0.27)" stroke-width="2" opacity="0.11"/>
    </g>
  </g>
</svg>
