<svg xmlns="http://www.w3.org/2000/svg" width="29" height="15.088" viewBox="0 0 29 15.088">
  <g id="icon-propery" transform="translate(0 -9.251)">
    <path id="Path_1120" data-name="Path 1120" d="M26.929,23.3V12.946c0-.008,0-.015,0-.023a.511.511,0,0,0-.034-.167l0-.013a.53.53,0,0,0-.078-.128L24.219,9.507a.518.518,0,0,0-.4-.186H21.363l-6.178-.07H14.149l-6.512.07H5.179a.518.518,0,0,0-.4.186L2.192,12.614a.537.537,0,0,0-.078.128l0,.014a.522.522,0,0,0-.034.167c0,.008,0,.015,0,.023V23.3H0v1.036H29V23.3ZM25.305,12.429H21.75V10.357h1.829ZM20.714,23.3H17.089V17.089H11.911V23.3H8.286V10.15H20.714Zm-7.768,0V18.125h3.107V23.3ZM5.421,10.357H7.25v2.071H3.695ZM3.107,23.3V13.464H7.25V23.3Zm18.643,0V13.464h4.143V23.3ZM4.4,18.643H5.955v2.071H4.4Zm0-4.143H5.955v2.071H4.4Zm18.643,0H24.6v2.071H23.045Zm0,4.143H24.6v2.071H23.045Z" transform="translate(0 0)" fill="#ff5811"/>
  </g>
</svg>
