<svg xmlns="http://www.w3.org/2000/svg" width="29" height="17.429" viewBox="0 0 29 17.429">
  <g id="icon-hotels" transform="translate(0 -1.732)">
    <path id="Path_1116" data-name="Path 1116" d="M26.411,18.125V6.911h1.036V5.875H19.679V2.768h1.036V1.732H8.286V2.768H9.321V5.875H1.554V6.911H2.589V18.125H0v1.036H29V18.125ZM25.375,6.911v6.036h-5.7V6.911ZM18.643,18.125H17.607V12.946H11.393v5.179H10.357V4.839h8.286Zm-3.625,0V13.982h1.554v4.143Zm-2.589-4.143h1.554v4.143H12.429ZM18.643,2.768V3.8H10.357V2.768ZM15.536,1.732h0ZM9.321,6.911v6.036h-5.7V6.911Zm-5.7,7.071h2.33v4.143H3.625Zm3.366,4.143V13.982h2.33v4.143Zm12.687-4.143h2.33v4.143h-2.33Zm3.366,4.143V13.982h2.33v4.143Z" transform="translate(0 0)" fill="#ff5811"/>
  </g>
</svg>
