<svg xmlns="http://www.w3.org/2000/svg" width="187" height="156.971" viewBox="0 0 187 156.971">
  <path id="icon-councils" d="M170.3,150.293V83.507H146.929V43.435H140.25v-16.7h-6.679V13.382a3.339,3.339,0,0,0-6.679,0V26.739h-6.679v16.7h-6.679V113.56H93.5V46.775H76.8V39.8A20.036,20.036,0,1,0,53.729,16.721H43.411V60.132H16.7v90.161H0v6.679H187v-6.679Zm-6.679,0h-16.7V90.185h16.7Zm-30.054,0H120.214V50.114H140.25V150.293Zm-56.768,0V120.239h36.732v30.054Zm-20.036,0H50.089v-6.679H63.446v-6.679H50.089v-6.679H63.446v-6.679H50.089V116.9H63.446v-6.679H50.089v-6.679H63.446V96.864H50.089V90.185H63.446V83.507H50.089V76.828H63.446V70.15H50.089V63.471H63.446V56.793H50.089V50.114H63.446V43.435H50.089V36.757H63.446V30.078H50.089V23.4H70.125V150.293ZM23.375,66.81H43.411v83.482H23.375Zm63.446,46.75H76.8V53.453H86.821Zm40.071-80.143h6.679V43.435h-6.679ZM73.464,6.7A13.33,13.33,0,0,1,76.8,32.943V16.721H60.581A13.357,13.357,0,0,1,73.464,6.7Zm53.429,50.089h6.679v6.679h-6.679Zm0,13.357h6.679v6.679h-6.679Zm0,13.357h6.679v6.679h-6.679Zm3.339,26.714h3.339V116.9h-6.679v-6.679Zm0-13.357h3.339v6.679h-6.679V96.864Zm0,26.714h3.339v6.679h-6.679v-6.679ZM30.054,86.846h6.679v6.679H30.054Zm0,40.071h6.679V133.6H30.054Zm0-26.714h6.679v6.679H30.054Zm0,13.357h6.679v6.679H30.054Zm0-40.071h6.679v6.679H30.054ZM103.518,133.6H96.839v-6.679h6.679Zm-13.357,0H83.482v-6.679h6.679Z" transform="translate(0 0)" fill="#ff5811"/>
</svg>
