<svg xmlns="http://www.w3.org/2000/svg" width="16" height="16" viewBox="0 0 16 16">
  <path id="icon-download" d="M9-13a1,1,0,0,0-1-1,1,1,0,0,0-1,1v7.584L4.706-7.709a1,1,0,0,0-1.416,0,1,1,0,0,0,0,1.416l4,4a1,1,0,0,0,1.416,0l4-4a1,1,0,0,0,0-1.416,1,1,0,0,0-1.416,0L9-5.416ZM2-3A2,2,0,0,0,0-1V0A2,2,0,0,0,2,2H14a2,2,0,0,0,2-2V-1a2,2,0,0,0-2-2H10.828L9.413-1.584a2,2,0,0,1-2.828,0L5.172-3ZM13.5.25a.748.748,0,0,1-.75-.75.748.748,0,0,1,.75-.75.748.748,0,0,1,.75.75A.748.748,0,0,1,13.5.25Z" transform="translate(0 14)" fill="#ff5811"/>
</svg>
