<svg xmlns="http://www.w3.org/2000/svg" width="29" height="18.436" viewBox="0 0 29 18.436">
  <g id="icon-worship" transform="translate(0 -5.903)">
    <path id="Path_1120" data-name="Path 1120" d="M26.929,23.3V12.946c0-.008,0-.015,0-.023a.511.511,0,0,0-.034-.167l0-.013a.53.53,0,0,0-.078-.128L24.219,9.507a.518.518,0,0,0-.4-.186H21.363L15.018,5.9H13.982L7.637,9.321H5.179a.518.518,0,0,0-.4.186L2.192,12.614a.537.537,0,0,0-.078.128l0,.014a.522.522,0,0,0-.034.167c0,.008,0,.015,0,.023V23.3H0v1.036H29V23.3ZM25.305,12.429H21.75V10.357h1.829ZM20.714,23.3H17.089V17.089H11.911V23.3H8.286V10.15l1.536-.829L14.5,6.8l4.678,2.519,1.536.829Zm-7.768,0V18.125h3.107V23.3ZM5.421,10.357H7.25v2.071H3.695ZM3.107,23.3V13.464H7.25V23.3Zm18.643,0V13.464h4.143V23.3ZM14.5,8.286a2.1,2.1,0,1,0,1.784,1.036A2.065,2.065,0,0,0,14.5,8.286Zm0,3.107a1.036,1.036,0,1,1,1.036-1.036A1.036,1.036,0,0,1,14.5,11.393ZM4.4,18.643H5.955v2.071H4.4Zm0-4.143H5.955v2.071H4.4Zm18.643,0H24.6v2.071H23.045Zm0,4.143H24.6v2.071H23.045Z" transform="translate(0 0)" fill="#ff5811"/>
  </g>
</svg>
