<svg xmlns="http://www.w3.org/2000/svg" width="29" height="19.161" viewBox="0 0 29 19.161">
  <g id="icon-shopping" transform="translate(0 0)">
    <path id="Path_1116" data-name="Path 1116" d="M26.411,18.125V11.911h1.036V10.875H19.679V7.768h1.036V6.732H16.571V5.7h1.036V0H11.393V5.7h1.036V6.732H8.286V7.768H9.321v3.107H1.554v1.036H2.589v6.214H0v1.036H29V18.125Zm-1.036-6.214v1.036h-5.7V11.911Zm-6.732,6.214H17.607V12.946H11.393v5.179H10.357V9.839h8.286Zm-3.625,0V13.982h1.554v4.143Zm-2.589-4.143h1.554v4.143H12.429Zm6.214-6.214V8.8H10.357V7.768ZM12.429,1.036h4.143V4.661H12.429ZM13.464,5.7h2.071V6.732H13.464ZM9.321,11.911v1.036h-5.7V11.911Zm-5.7,2.071h2.33v4.143H3.625Zm3.366,4.143V13.982h2.33v4.143Zm12.687-4.143h2.33v4.143h-2.33Zm3.366,4.143V13.982h2.33v4.143Z" transform="translate(0 0)" fill="#ff5811"/>
  </g>
</svg>
