<svg id="icon-restuarants" xmlns="http://www.w3.org/2000/svg" width="29" height="18.458" viewBox="0 0 29 18.458">
  <path id="Path_1117" data-name="Path 1117" d="M26.929,17.4V4.143a.518.518,0,0,0-.518-.518H21.232V2.071a.518.518,0,0,0-.152-.366C21.011,1.635,19.323,0,14.759,0S8.507,1.635,8.437,1.705a.518.518,0,0,0-.152.366V3.625h-5.7a.518.518,0,0,0-.518.518V17.4H0v1.055H29V17.4Zm-9.011-5.493V7.25h3.47v4.661Zm-5.8,0V7.25h4.764v4.661ZM7.612,7.25H10.66L8.955,8.955a.518.518,0,1,0,.732.732l1.395-1.395v3.618H7.612ZM6.577,11.911H3.107V7.25h3.47ZM22.423,7.25h3.47v4.661h-3.47ZM9.321,2.318C9.8,1.975,11.4,1.036,14.759,1.036s4.963.94,5.438,1.283V3.625H9.321ZM8.8,4.661H25.893V6.214H3.107V4.661ZM3.107,17.4v-.618l1.4-1.4a.518.518,0,0,0-.732-.732l-.67.67V12.946h3.47V17.4Zm4.505,0V12.946h3.47V17.4Zm4.505-4.457h1.864V17.4H12.118Zm2.9,4.457V12.946h1.864V17.4Zm2.9-4.457h1.546l-.67.67a.518.518,0,1,0,.732.732l1.4-1.4h.459V17.4h-3.47ZM23,17.4l1.446-1.243a.518.518,0,0,0-.732-.732L22.423,16.72V12.946h3.47V17.4Zm2.223-8.752L23.929,9.946a.518.518,0,0,1-.732-.732L24.491,7.92a.518.518,0,0,1,.732.732Zm-4.661,6.732-1.295,1.295a.518.518,0,0,1-.732-.732l1.295-1.295a.518.518,0,0,1,.732.732Z" fill="#ff5811"/>
</svg>
