<svg id="icon-hospitals" xmlns="http://www.w3.org/2000/svg" width="29" height="22.268" viewBox="0 0 29 22.268">
  <path id="Path_1119" data-name="Path 1119" d="M25.375,21.232V9.839H22.268V6.214H18.125V0h-7.25V6.214H6.732V9.839H3.625V21.232H0v1.036H29V21.232Zm-1.036,0H22.268V10.875h2.071Zm-7.25,0V15.018H11.911v6.214H7.768V7.25H21.232V21.232Zm-4.143,0V16.054h3.107v5.179ZM4.661,10.875H6.732V21.232H4.661Zm7.25-9.839h5.179V6.214H11.911Zm3.107,2.071h1.036V4.143H15.018V5.179H13.982V4.143H12.946V3.107h1.036V2.071h1.036ZM8.8,9.839v3.107h4.661V8.286H8.8Zm1.036-.518h2.589v2.589H9.839Zm5.7.518v3.107H20.2V8.286H15.536Zm1.036-.518h2.589v2.589H16.571Z" fill="#ff5811"/>
</svg>
