<svg xmlns="http://www.w3.org/2000/svg" width="15.75" height="15.752" viewBox="0 0 15.75 15.752">
  <path id="linkedin" d="M-4.35,0H-7.615V-10.515H-4.35ZM-5.984-11.95a1.907,1.907,0,0,1-1.891-1.909A1.891,1.891,0,0,1-5.038-15.5a1.891,1.891,0,0,1,.946,1.638A1.907,1.907,0,0,1-5.984-11.95ZM7.871,0H4.613V-5.119c0-1.22-.025-2.784-1.7-2.784-1.7,0-1.958,1.325-1.958,2.7V0H-2.3V-10.515H.828v1.434H.873a3.431,3.431,0,0,1,3.09-1.7c3.3,0,3.912,2.176,3.912,5V0Z" transform="translate(7.875 15.752)" fill="#333f58" opacity="0.5"/>
</svg>
