<svg width="45" height="44" viewBox="0 0 45 44" fill="none" xmlns="http://www.w3.org/2000/svg">
<g clip-path="url(#clip0_5_868)">
<path d="M38.9235 0H6.92346C3.60975 0 0.923462 2.68629 0.923462 6V38C0.923462 41.3137 3.60975 44 6.92346 44H38.9235C42.2372 44 44.9235 41.3137 44.9235 38V6C44.9235 2.68629 42.2372 0 38.9235 0Z" fill="#0077B5"/>
<path d="M16.7734 12C16.7734 12.7417 16.5535 13.4667 16.1415 14.0834C15.7294 14.7001 15.1437 15.1807 14.4585 15.4645C13.7733 15.7484 13.0193 15.8226 12.2919 15.6779C11.5644 15.5333 10.8962 15.1761 10.3718 14.6517C9.84734 14.1272 9.49019 13.459 9.34549 12.7316C9.2008 12.0042 9.27506 11.2502 9.55889 10.5649C9.84272 9.87971 10.3234 9.29404 10.9401 8.88199C11.5567 8.46993 12.2818 8.25 13.0234 8.25C14.018 8.25 14.9718 8.64509 15.6751 9.34835C16.3784 10.0516 16.7734 11.0054 16.7734 12Z" fill="white"/>
<path d="M15.9234 18.25V34.8175C15.9241 34.9397 15.9006 35.0608 15.8542 35.174C15.8079 35.2871 15.7397 35.3899 15.6535 35.4766C15.5673 35.5632 15.4649 35.632 15.352 35.6789C15.2391 35.7258 15.1181 35.75 14.9959 35.75H11.0434C10.9212 35.7503 10.8001 35.7265 10.6871 35.6799C10.5741 35.6332 10.4715 35.5647 10.3851 35.4783C10.2986 35.3919 10.2301 35.2892 10.1835 35.1763C10.1369 35.0633 10.1131 34.9422 10.1134 34.82V18.25C10.1134 18.0033 10.2114 17.7668 10.3858 17.5924C10.5602 17.418 10.7968 17.32 11.0434 17.32H14.9959C15.2421 17.3206 15.478 17.4189 15.6519 17.5933C15.8258 17.7676 15.9234 18.0038 15.9234 18.25Z" fill="white"/>
<path d="M36.5835 26.875V34.895C36.5838 35.0073 36.562 35.1187 36.5191 35.2225C36.4763 35.3264 36.4133 35.4208 36.3338 35.5003C36.2544 35.5797 36.16 35.6427 36.0561 35.6855C35.9522 35.7284 35.8409 35.7503 35.7285 35.75H31.4785C31.3661 35.7503 31.2548 35.7284 31.1509 35.6855C31.0471 35.6427 30.9527 35.5797 30.8732 35.5003C30.7937 35.4208 30.7308 35.3264 30.6879 35.2225C30.6451 35.1187 30.6232 35.0073 30.6235 34.895V27.1225C30.6235 25.9625 30.9635 22.0425 27.591 22.0425C24.9785 22.0425 24.446 24.725 24.341 25.93V34.895C24.341 35.1196 24.2527 35.3352 24.095 35.4952C23.9374 35.6551 23.7231 35.7467 23.4985 35.75H19.3935C19.2814 35.75 19.1703 35.7278 19.0667 35.6848C18.9631 35.6418 18.869 35.5788 18.7898 35.4994C18.7106 35.4199 18.6479 35.3257 18.6052 35.222C18.5625 35.1182 18.5407 35.0071 18.541 34.895V18.1775C18.5407 18.0653 18.5625 17.9542 18.6052 17.8504C18.6479 17.7467 18.7106 17.6525 18.7898 17.573C18.869 17.4936 18.9631 17.4306 19.0667 17.3876C19.1703 17.3446 19.2814 17.3225 19.3935 17.3225H23.4985C23.7253 17.3225 23.9428 17.4125 24.1031 17.5729C24.2634 17.7332 24.3535 17.9507 24.3535 18.1775V19.6225C25.3235 18.1675 26.761 17.045 29.8285 17.045C36.6235 17.045 36.5835 23.39 36.5835 26.875Z" fill="white"/>
</g>
<defs>
<clipPath id="clip0_5_868">
<rect width="44" height="44" fill="white" transform="translate(0.923462)"/>
</clipPath>
</defs>
</svg>
