<svg width="44" height="44" viewBox="0 0 44 44" fill="none" xmlns="http://www.w3.org/2000/svg">
<g clip-path="url(#clip0_5_865)">
<path d="M23.4714 21.2488L33.373 35.4116H29.3093L21.2294 23.8547V23.854L20.0432 22.1574L10.6045 8.65622H14.6681L22.2851 19.5522L23.4714 21.2488Z" fill="black"/>
<path d="M39.2457 0H4.75429C2.12864 0 0 2.12864 0 4.75429V39.2457C0 41.8714 2.12864 44 4.75429 44H39.2457C41.8714 44 44 41.8714 44 39.2457V4.75429C44 2.12864 41.8714 0 39.2457 0ZM28.0646 37.3129L19.8882 25.4131L9.65131 37.3129H7.00557L18.7134 23.7041L7.00557 6.66455H15.9354L23.6779 17.9328L33.3715 6.66455H36.0172L24.853 19.6422H24.8523L36.9944 37.3129H28.0646Z" fill="black"/>
</g>
<defs>
<clipPath id="clip0_5_865">
<rect width="44" height="44" fill="white"/>
</clipPath>
</defs>
</svg>
